<?xml version="1.0" encoding="utf-8"?>
<!-- Generator: Adobe Illustrator 27.5.0, SVG Export Plug-In . SVG Version: 6.00 Build 0)  -->
<svg version="1.1" xmlns="http://www.w3.org/2000/svg" xmlns:xlink="http://www.w3.org/1999/xlink" x="0px" y="0px"
	 viewBox="0 0 500 500" style="enable-background:new 0 0 500 500;" xml:space="preserve">
<g id="Background_Complete">
	<rect x="416.779" y="398.494" style="fill:#EBEBEB;" width="33.122" height="0.25"/>
	<rect x="322.527" y="401.208" style="fill:#EBEBEB;" width="8.693" height="0.25"/>
	<rect x="396.586" y="389.208" style="fill:#EBEBEB;" width="19.192" height="0.25"/>
	<rect x="52.459" y="390.888" style="fill:#EBEBEB;" width="43.193" height="0.25"/>
	<rect x="104.556" y="390.888" style="fill:#EBEBEB;" width="6.333" height="0.25"/>
	<rect x="131.471" y="395.111" style="fill:#EBEBEB;" width="93.676" height="0.25"/>
	<path style="fill:#EBEBEB;" d="M237.014,337.8H43.915c-3.147,0-5.708-2.561-5.708-5.708V60.66c0-3.147,2.561-5.708,5.708-5.708
		h193.099c3.146,0,5.707,2.561,5.707,5.708v271.432C242.721,335.239,240.16,337.8,237.014,337.8z M43.915,55.203
		c-3.01,0-5.458,2.448-5.458,5.458v271.432c0,3.01,2.448,5.458,5.458,5.458h193.099c3.009,0,5.457-2.448,5.457-5.458V60.66
		c0-3.009-2.448-5.458-5.457-5.458H43.915z"/>
	<path style="fill:#EBEBEB;" d="M453.31,337.8H260.212c-3.147,0-5.707-2.561-5.707-5.708V60.66c0-3.147,2.561-5.708,5.707-5.708
		H453.31c3.148,0,5.708,2.561,5.708,5.708v271.432C459.019,335.239,456.458,337.8,453.31,337.8z M260.212,55.203
		c-3.009,0-5.457,2.448-5.457,5.458v271.432c0,3.01,2.448,5.458,5.457,5.458H453.31c3.01,0,5.458-2.448,5.458-5.458V60.66
		c0-3.009-2.448-5.458-5.458-5.458H260.212z"/>
	<rect y="382.398" style="fill:#EBEBEB;" width="500" height="0.25"/>
	<g>
		<path style="fill:#EBEBEB;" d="M413.062,279.196l4.37,3.202c0.032,0.029,0.065,0.059,0.111,0.072l4.245-3.556
			c13.222-11.478,28.24-24.123,16.423-34.44c-8.19-7.172-17.69-0.491-22.484,3.848c-5.073-4.018-15.738-15.425-24.721-1.558
			C383.518,258.305,399.132,268.594,413.062,279.196z"/>
		<g>
			<path style="opacity:0.5;fill:#FFFFFF;" d="M437.557,248.896c-0.879-0.299-1.92,0.577-1.774,1.494
				c0.145,0.917,1.406,1.429,2.149,0.874c0.744-0.556,0.609-1.91-0.229-2.309L437.557,248.896z"/>
		</g>
		<path style="opacity:0.5;fill:#FFFFFF;" d="M432.37,264.494c3.65-2.37-0.003-10.662,4.562-11.365
			C440.297,254.512,436.878,261.541,432.37,264.494z"/>
	</g>
	<g>
		<g>
			<path style="fill:#EBEBEB;" d="M113.906,294.055l-24.185,10.154c-5.51,2.314-11.853-0.278-14.167-5.788l-0.697-1.659
				c-2.314-5.51,0.278-11.853,5.788-14.167l24.185-10.154c5.51-2.314,11.853,0.278,14.167,5.788l0.696,1.659
				C122.008,285.398,119.416,291.741,113.906,294.055z"/>
			<g>
				<path style="fill:#FFFFFF;" d="M85.723,291.625l-1.819,0.763l-0.45-1.072l4.954-2.08l0.45,1.072l-1.818,0.764l1.936,4.614
					l-1.315,0.553L85.723,291.625z"/>
				<path style="fill:#FFFFFF;" d="M96.337,287.455l0.25,5.035l-1.217,0.511l-2.123-2.301l0.124,3.14l-1.217,0.511l-3.411-3.709
					l1.194-0.501l2.273,2.524l-0.169-3.407l1.072-0.45l2.28,2.52l-0.177-3.404L96.337,287.455z"/>
				<path style="fill:#FFFFFF;" d="M102.133,288.011l-3.306,1.388c0.351,0.493,0.953,0.632,1.62,0.353
					c0.463-0.194,0.738-0.473,0.919-0.883l0.98,0.447c-0.212,0.634-0.718,1.134-1.506,1.465c-1.511,0.634-2.893,0.095-3.438-1.204
					c-0.548-1.306,0.055-2.668,1.387-3.228c1.284-0.539,2.635-0.094,3.226,1.311C102.055,287.757,102.098,287.902,102.133,288.011z
					 M98.501,288.666l2.153-0.903c-0.322-0.514-0.885-0.698-1.454-0.459C98.624,287.546,98.355,288.069,98.501,288.666z"/>
				<path style="fill:#FFFFFF;" d="M107.26,285.858l-3.306,1.389c0.351,0.493,0.953,0.632,1.619,0.352
					c0.463-0.194,0.738-0.473,0.92-0.882l0.98,0.447c-0.212,0.633-0.719,1.133-1.507,1.464c-1.511,0.634-2.893,0.095-3.438-1.203
					c-0.549-1.307,0.054-2.67,1.386-3.228c1.284-0.539,2.637-0.094,3.226,1.31C107.182,285.604,107.224,285.75,107.26,285.858z
					 M103.628,286.514l2.153-0.905c-0.322-0.514-0.886-0.697-1.454-0.457C103.75,285.394,103.482,285.917,103.628,286.514z"/>
				<path style="fill:#FFFFFF;" d="M111.627,285.925c-0.181,0.297-0.525,0.547-0.914,0.711c-1.032,0.433-1.855,0.156-2.292-0.883
					l-0.753-1.794l-0.674,0.282l-0.41-0.975l0.674-0.282l-0.447-1.065l1.267-0.532l0.447,1.064l1.088-0.457l0.41,0.975l-1.088,0.457
					l0.747,1.779c0.157,0.374,0.445,0.492,0.786,0.349c0.186-0.079,0.35-0.214,0.443-0.378L111.627,285.925z"/>
			</g>
		</g>
		<g>
			<path style="fill:#E6E6E6;" d="M114.249,281.398l-66.28-8.401c-2.144-0.272-3.661-2.23-3.389-4.373l1.794-14.157
				c0.272-2.144,2.23-3.661,4.373-3.389l66.28,8.401c2.144,0.272,3.661,2.23,3.389,4.373l-1.795,14.157
				C118.351,280.152,116.392,281.67,114.249,281.398z"/>
			<g>
				<path style="fill:#FFFFFF;" d="M67.493,261.687l-0.239,1.883l3.299,0.418l-0.168,1.324l-3.299-0.418l-0.329,2.596l-1.649-0.209
					l0.903-7.127l5.386,0.682l-0.168,1.323L67.493,261.687z"/>
				<path style="fill:#FFFFFF;" d="M71.294,265.283c0.21-1.65,1.63-2.66,3.371-2.439c1.741,0.22,2.856,1.552,2.646,3.202
					c-0.209,1.649-1.62,2.66-3.361,2.44C72.21,268.264,71.086,266.932,71.294,265.283z M75.703,265.841
					c0.121-0.947-0.409-1.594-1.203-1.693c-0.794-0.101-1.477,0.391-1.597,1.338c-0.12,0.947,0.419,1.596,1.213,1.696
					C74.909,267.283,75.582,266.788,75.703,265.841z"/>
				<path style="fill:#FFFFFF;" d="M78.975,261.362l1.59,0.202l-0.957,7.555l-1.589-0.202L78.975,261.362z"/>
				<path style="fill:#FFFFFF;" d="M82.039,261.75l1.589,0.201l-0.958,7.556l-1.589-0.201L82.039,261.75z"/>
				<path style="fill:#FFFFFF;" d="M84.083,266.903c0.209-1.649,1.63-2.659,3.371-2.439c1.741,0.221,2.855,1.552,2.646,3.202
					c-0.209,1.65-1.62,2.661-3.361,2.44C84.997,269.886,83.873,268.553,84.083,266.903z M88.491,267.462
					c0.12-0.947-0.408-1.593-1.202-1.694c-0.794-0.1-1.477,0.392-1.597,1.34c-0.12,0.946,0.419,1.595,1.212,1.695
					C87.699,268.904,88.371,268.409,88.491,267.462z"/>
				<path style="fill:#FFFFFF;" d="M100.145,266.157l-2.679,5.226l-1.528-0.194l-0.801-3.557l-1.704,3.24l-1.526-0.194l-1.282-5.728
					l1.497,0.19l0.824,3.87l1.813-3.536l1.344,0.171l0.834,3.871l1.804-3.537L100.145,266.157z"/>
			</g>
		</g>
		<g>
			
				<rect x="53.503" y="230.491" transform="matrix(0.7963 0.6049 -0.6049 0.7963 164.6176 -5.7328)" style="fill:#E0E0E0;" width="74.635" height="22.095"/>
			<g>
				<path style="fill:#FFFFFF;" d="M64.764,224.901l1.207-0.655c0.215,0.717,0.748,1.509,1.435,2.031
					c0.785,0.596,1.301,0.577,1.569,0.225c0.813-1.07-3.072-2.862-1.458-4.986c0.739-0.973,2.139-1.186,3.765,0.049
					c0.719,0.546,1.324,1.277,1.601,2.016l-1.172,0.694c-0.301-0.706-0.738-1.268-1.244-1.654c-0.784-0.596-1.31-0.532-1.584-0.172
					c-0.801,1.055,3.078,2.854,1.482,4.954c-0.726,0.956-2.14,1.171-3.774-0.071C65.684,226.643,64.973,225.679,64.764,224.901z"/>
				<path style="fill:#FFFFFF;" d="M71.858,227.21l2.433-3.203l1.324,1.006l-2.396,3.154c-0.826,1.087-0.693,1.896,0.108,2.505
					c0.809,0.615,1.616,0.52,2.442-0.568l2.396-3.154l1.308,0.993l-2.433,3.203c-1.279,1.684-2.951,1.883-4.578,0.647
					C70.836,230.558,70.579,228.893,71.858,227.21z"/>
				<path style="fill:#FFFFFF;" d="M82.863,237.079c-0.751,0.989-1.97,0.965-3.474-0.178l-2.958-2.248l4.346-5.721l2.795,2.123
					c1.43,1.087,1.713,2.241,1.035,3.133c-0.435,0.572-1.064,0.79-1.716,0.681C83.373,235.559,83.409,236.359,82.863,237.079z
					 M81.334,230.93l-1.024,1.348l1.316,1c0.646,0.49,1.171,0.528,1.512,0.078c0.341-0.449,0.158-0.936-0.488-1.427L81.334,230.93z
					 M81.636,235.928c0.367-0.483,0.173-0.99-0.514-1.512l-1.545-1.173l-1.074,1.413l1.545,1.173
					C80.734,236.351,81.263,236.418,81.636,235.928z"/>
				<path style="fill:#FFFFFF;" d="M82.656,238.493l1.207-0.655c0.215,0.717,0.748,1.509,1.435,2.031
					c0.785,0.596,1.301,0.577,1.569,0.225c0.813-1.07-3.071-2.862-1.458-4.986c0.739-0.973,2.139-1.186,3.765,0.049
					c0.719,0.546,1.324,1.277,1.601,2.016l-1.172,0.694c-0.301-0.706-0.737-1.268-1.244-1.653c-0.785-0.596-1.311-0.532-1.584-0.173
					c-0.801,1.054,3.078,2.854,1.482,4.955c-0.726,0.956-2.14,1.171-3.774-0.071C83.575,240.236,82.865,239.271,82.656,238.493z"/>
				<path style="fill:#FFFFFF;" d="M89.7,240.224c1.31-1.724,3.572-1.953,5.353-0.6c0.989,0.751,1.541,1.738,1.583,2.802
					l-1.446,0.139c-0.049-0.733-0.357-1.329-0.929-1.763c-1.071-0.813-2.402-0.639-3.222,0.44c-0.82,1.079-0.63,2.408,0.44,3.221
					c0.572,0.435,1.228,0.573,1.954,0.415l0.254,1.431c-1.042,0.251-2.14-0.016-3.137-0.773
					C88.777,244.188,88.391,241.948,89.7,240.224z"/>
				<path style="fill:#FFFFFF;" d="M97.517,250.674l0.107-2.432l-0.065-0.05l-1.152-0.875l-1.211,1.594l-1.324-1.006l4.346-5.721
					l2.476,1.881c1.528,1.161,1.882,2.68,0.908,3.963c-0.652,0.858-1.563,1.158-2.549,0.913l-0.114,2.813L97.517,250.674z
					 M99.801,245.088l-1.078-0.819l-1.515,1.994l1.079,0.819c0.809,0.615,1.503,0.55,1.976-0.072
					C100.74,246.38,100.61,245.703,99.801,245.088z"/>
				<path style="fill:#FFFFFF;" d="M104.22,246.744l1.324,1.006l-4.346,5.721l-1.324-1.006L104.22,246.744z"/>
				<path style="fill:#FFFFFF;" d="M108.985,256.924c-0.751,0.989-1.97,0.965-3.474-0.178l-2.958-2.248l4.346-5.721l2.795,2.123
					c1.43,1.087,1.713,2.242,1.035,3.133c-0.435,0.572-1.064,0.79-1.716,0.681C109.495,255.404,109.532,256.205,108.985,256.924z
					 M107.457,250.775l-1.024,1.348l1.316,1c0.646,0.49,1.171,0.528,1.513,0.078c0.341-0.449,0.158-0.936-0.488-1.427
					L107.457,250.775z M107.758,255.773c0.367-0.483,0.172-0.99-0.514-1.512l-1.545-1.174l-1.074,1.413l1.545,1.174
					C106.857,256.196,107.386,256.263,107.758,255.773z"/>
				<path style="fill:#FFFFFF;" d="M114.036,261.548l-0.807,1.062l-4.43-3.365l4.346-5.721l4.323,3.285l-0.807,1.062l-3.008-2.285
					l-0.944,1.242l2.656,2.018l-0.783,1.03l-2.656-2.018l-1.006,1.324L114.036,261.548z"/>
			</g>
		</g>
	</g>
	<g>
		<g>
			<g>
				<path style="fill:#E0E0E0;" d="M206.335,124.251c-1.507,0-2.733-1.226-2.733-2.733v-6.732h-1.321c-1.936,0-3.51-1.575-3.51-3.51
					V79.407c0.009-1.927,1.576-3.487,3.497-3.487c0.005,0,0.011,0,0.016,0h49.729c1.927,0,3.495,1.568,3.495,3.495v31.861
					c0,1.936-1.575,3.51-3.51,3.51h-32.499l-11.524,8.911C207.503,124.055,206.922,124.251,206.335,124.251z M202.27,76.919
					c-1.374,0-2.493,1.114-2.499,2.49v31.867c0,1.384,1.126,2.51,2.51,2.51h2.321v7.732c0,0.956,0.777,1.733,1.733,1.733
					c0.37,0,0.736-0.124,1.031-0.348l11.791-9.117h32.84c1.384,0,2.51-1.126,2.51-2.51V79.414c0-1.376-1.119-2.495-2.495-2.495
					h-49.732C202.277,76.919,202.274,76.919,202.27,76.919z"/>
			</g>
		</g>
		<g>
			<rect x="218.227" y="71.935" style="fill:#E0E0E0;" width="6.226" height="0.762"/>
			<path style="fill:#E0E0E0;" d="M195.327,80.912h-0.762v-3.757c0.004-2.888,2.347-5.228,5.235-5.228h13.892v0.762H199.8
				c-2.468,0-4.469,1.998-4.473,4.466V80.912z"/>
		</g>
		<g>
			<g>
				<path style="fill:#E0E0E0;" d="M240.603,90.78H213.28c-0.842,0-1.524-0.682-1.524-1.524s0.682-1.524,1.524-1.524h27.323
					c0.842,0,1.524,0.682,1.524,1.524S241.444,90.78,240.603,90.78z"/>
			</g>
			<g>
				<path style="fill:#E0E0E0;" d="M240.603,96.81H213.28c-0.842,0-1.524-0.682-1.524-1.524c0-0.842,0.682-1.524,1.524-1.524h27.323
					c0.842,0,1.524,0.682,1.524,1.524C242.127,96.127,241.444,96.81,240.603,96.81z"/>
			</g>
			<g>
				<path style="fill:#E0E0E0;" d="M240.603,102.84H213.28c-0.842,0-1.524-0.683-1.524-1.524c0-0.842,0.682-1.524,1.524-1.524
					h27.323c0.842,0,1.524,0.682,1.524,1.524C242.127,102.157,241.444,102.84,240.603,102.84z"/>
			</g>
		</g>
	</g>
	<g>
		<g>
			<g>
				<g>
					<path style="fill:#E0E0E0;" d="M258.049,132.918h27.323c0.842,0,1.524-0.682,1.524-1.524c0-0.842-0.682-1.524-1.524-1.524
						h-27.323c-0.842,0-1.524,0.682-1.524,1.524C256.525,132.236,257.207,132.918,258.049,132.918z"/>
				</g>
				<g>
					<path style="fill:#E0E0E0;" d="M258.049,138.948h27.323c0.842,0,1.524-0.682,1.524-1.524c0-0.842-0.682-1.524-1.524-1.524
						h-27.323c-0.842,0-1.524,0.682-1.524,1.524C256.525,138.266,257.207,138.948,258.049,138.948z"/>
				</g>
				<g>
					<path style="fill:#E0E0E0;" d="M258.049,144.978h27.323c0.842,0,1.524-0.682,1.524-1.524c0-0.842-0.682-1.524-1.524-1.524
						h-27.323c-0.842,0-1.524,0.682-1.524,1.524C256.525,144.296,257.207,144.978,258.049,144.978z"/>
				</g>
			</g>
		</g>
		<path style="fill:none;stroke:#E0E0E0;stroke-miterlimit:10;" d="M299.876,137.719c0,4.79-2.74,9.15-7.26,12.46v11.01
			c0,1.03-1.24,1.54-1.96,0.81l-10.56-6.5c-2.7,0.56-5.59,0.87-8.58,0.87c-15.67,0-28.37-8.35-28.37-18.65s12.7-18.65,28.37-18.65
			C287.177,119.069,299.876,127.419,299.876,137.719z"/>
	</g>
	<g>
		<g>
			<path style="fill:#EBEBEB;" d="M363.412,120.08h-4.215c-1.988,0-3.691,1.616-3.794,3.606l-1.019,19.448
				c-0.104,1.99,1.429,3.605,3.417,3.605h4.215c1.988,0,3.688-1.615,3.792-3.605l1.02-19.448
				C366.93,121.695,365.399,120.08,363.412,120.08z M363.522,143.133c-0.038,0.727-0.661,1.321-1.388,1.321h-4.215
				c-0.728,0-1.29-0.594-1.252-1.321l1.019-19.448c0.038-0.728,0.663-1.321,1.39-1.321h4.215c0.728,0,1.287,0.594,1.249,1.321
				L363.522,143.133z"/>
			<path style="fill:#EBEBEB;" d="M396.701,120.08H384.37l2.755-6.475c0.298-0.705,0.412-1.468,0.325-2.204l-0.582-5.105
				c-0.239-2.08-1.94-3.588-4.044-3.588h-4.902l-0.414,7.908l-7.946,10.023c-0.793,0.991-1.264,2.222-1.329,3.468l-0.953,18.185
				c-0.129,2.454,1.763,4.449,4.216,4.449h17.254c1.513,0,2.983-0.665,4.03-1.825l1.608-1.789c0.63-0.696,1.074-1.549,1.28-2.464
				l3.779-16.841L396.701,120.08z"/>
		</g>
		<g style="opacity:0.5;">
			<path style="fill:#EBEBEB;" d="M363.412,120.08h-4.215c-1.988,0-3.691,1.616-3.794,3.606l-1.019,19.448
				c-0.104,1.99,1.429,3.605,3.417,3.605h4.215c1.988,0,3.688-1.615,3.792-3.605l1.02-19.448
				C366.93,121.695,365.399,120.08,363.412,120.08z M363.522,143.133c-0.038,0.727-0.661,1.321-1.388,1.321h-4.215
				c-0.728,0-1.29-0.594-1.252-1.321l1.019-19.448c0.038-0.728,0.663-1.321,1.39-1.321h4.215c0.728,0,1.287,0.594,1.249,1.321
				L363.522,143.133z"/>
		</g>
	</g>
	<g>
		<g>
			<polygon style="fill:#EBEBEB;" points="124.175,110.321 106.2,106.755 110.125,98.716 123.616,101.391 			"/>
			<polygon style="fill:#E0E0E0;" points="123.616,101.391 119.348,109.363 124.175,110.321 			"/>
			<g>
				<path style="fill:#EBEBEB;" d="M125.31,146.532l-34.216-6.786c-3.027-0.6-4.994-3.54-4.393-6.567l4.693-23.663
					c0.6-3.027,3.541-4.994,6.567-4.393l34.215,6.786c3.027,0.6,4.994,3.541,4.393,6.567l-4.694,23.664
					C131.276,145.165,128.336,147.132,125.31,146.532z"/>
				<path style="fill:#E0E0E0;" d="M125.698,146.609l-1.008-0.2l6.867-34.624l1.008,0.2c2.812,0.558,4.64,3.29,4.082,6.102
					l-4.847,24.44C131.242,145.339,128.51,147.167,125.698,146.609z"/>
			</g>
			<path style="fill:#FAFAFA;" d="M121.881,126.214c-1.341,6.762-7.91,11.157-14.672,9.815c-6.762-1.341-11.156-7.91-9.815-14.672
				c1.341-6.762,7.91-11.156,14.672-9.815C118.828,112.883,123.223,119.452,121.881,126.214z"/>
			<path style="fill:#E0E0E0;" d="M120.246,125.722c-1.176,5.93-6.937,9.784-12.867,8.608c-5.93-1.176-9.784-6.937-8.608-12.867
				s6.937-9.784,12.867-8.608C117.568,114.031,121.422,119.792,120.246,125.722z"/>
			<path style="fill:#E0E0E0;" d="M103.273,111.196l8.366,1.659l-4.259,21.475l-10.752-2.055
				C96.627,132.274,105.308,114.567,103.273,111.196z"/>
			
				<rect x="99.143" y="103.71" transform="matrix(0.9809 0.1946 -0.1946 0.9809 22.3761 -17.8468)" style="fill:#EBEBEB;" width="5.793" height="2.549"/>
			<path style="fill:#FAFAFA;" d="M126.981,117.398c-0.158,0.797-0.932,1.315-1.729,1.157c-0.797-0.158-1.315-0.932-1.157-1.729
				c0.158-0.797,0.932-1.315,1.729-1.157C126.622,115.827,127.14,116.601,126.981,117.398z"/>
		</g>
		<g>
			<path style="fill:#EBEBEB;" d="M104.987,121.905c-1.572,7.923-9.268,13.072-17.191,11.5c-1.297-0.257-2.516-0.679-3.644-1.236
				c6.433-0.431,12.036-5.122,13.351-11.748c1.314-6.626-2.074-13.101-7.856-15.955c1.256-0.085,2.544-0.009,3.84,0.248
				C101.409,106.285,106.558,113.982,104.987,121.905z"/>
			<path style="fill:#FAFAFA;" d="M97.502,120.42c-1.314,6.626-6.917,11.317-13.351,11.748c-5.782-2.854-9.17-9.328-7.856-15.955
				c1.314-6.626,6.917-11.317,13.35-11.749C95.428,107.32,98.816,113.794,97.502,120.42z"/>
			<path style="fill:#E6E6E6;" d="M84.151,132.169c-1.256,0.085-2.543,0.009-3.84-0.248c-7.923-1.571-13.072-9.268-11.5-17.191
				s9.268-13.072,17.191-11.5c1.297,0.257,2.516,0.679,3.644,1.236c-6.433,0.431-12.036,5.122-13.35,11.749
				C74.981,122.84,78.369,129.315,84.151,132.169z"/>
		</g>
	</g>
</g>
<g id="Background_Simple" style="display:none;">
	<g style="display:inline;">
		<g>
			<path style="fill:#407BFF;" d="M86.283,338.798c-9.44-35.958-2.965-75.792,17.378-106.909
				c5.239-8.014,11.532-15.625,19.812-20.434c8.28-4.808,18.853-6.434,27.515-2.352c9.846,4.639,15.152,15.183,20.92,24.412
				c5.768,9.23,14.364,18.615,25.24,18.195c6.477-0.25,12.24-4.009,17.469-7.84c53.569-39.247,91.753-100.072,152.758-126.309
				c13.505-5.808,29.388-9.621,42.598-3.169c14.479,7.072,21.067,24.294,22.563,40.339c2.328,24.968-4.534,50.212-16.299,72.358
				c-11.765,22.145-28.254,41.451-45.976,59.193c-45.9,45.949-102.97,83.361-167.02,94.123c-21.444,3.603-43.747,4.128-64.681-1.756
				s-40.437-18.668-51.578-37.342C87.041,342.901,86.283,338.798,86.283,338.798z"/>
		</g>
		<g style="opacity:0.9;">
			<path style="fill:#FFFFFF;" d="M86.283,338.798c-9.44-35.958-2.965-75.792,17.378-106.909
				c5.239-8.014,11.532-15.625,19.812-20.434c8.28-4.808,18.853-6.434,27.515-2.352c9.846,4.639,15.152,15.183,20.92,24.412
				c5.768,9.23,14.364,18.615,25.24,18.195c6.477-0.25,12.24-4.009,17.469-7.84c53.569-39.247,91.753-100.072,152.758-126.309
				c13.505-5.808,29.388-9.621,42.598-3.169c14.479,7.072,21.067,24.294,22.563,40.339c2.328,24.968-4.534,50.212-16.299,72.358
				c-11.765,22.145-28.254,41.451-45.976,59.193c-45.9,45.949-102.97,83.361-167.02,94.123c-21.444,3.603-43.747,4.128-64.681-1.756
				s-40.437-18.668-51.578-37.342C87.041,342.901,86.283,338.798,86.283,338.798z"/>
		</g>
	</g>
</g>
<g id="Shadow">
	<ellipse id="_x3C_Path_x3E__359_" style="fill:#F5F5F5;" cx="250" cy="415.693" rx="193.889" ry="11.323"/>
</g>
<g id="Podium">
	<g>
		<g>
			<g>
				<rect x="137.438" y="323.733" style="fill:#407BFF;" width="230.233" height="75.917"/>
				<rect x="137.436" y="323.736" style="opacity:0.2;fill:#FFFFFF;" width="230.232" height="75.912"/>
			</g>
			<g>
				<rect x="199.701" y="248.724" style="fill:#407BFF;" width="99.932" height="75.917"/>
				<rect x="199.701" y="248.724" style="opacity:0.2;fill:#FFFFFF;" width="99.932" height="75.917"/>
			</g>
		</g>
		<g>
			<path style="fill:#263238;" d="M258.919,270.272l-5.653,28.266h-6.542l4.604-23.017h-5.653l1.05-5.249H258.919z"/>
		</g>
	</g>
</g>
<g id="Character_2">
	<g>
		<g>
			<polygon style="fill:#263238;" points="310.992,221.064 314.878,225.176 342.453,206.834 373.583,217.132 400.672,197.124 
				402.491,200.375 409.815,188.071 395.497,187.88 397.317,191.131 373.118,212.2 341.922,202.131 			"/>
		</g>
	</g>
	<g>
		<g>
			<g>
				<path style="opacity:0.2;" d="M327.472,331.547l20.953-0.759c-4.94-1.42-10.167-1.334-15.281-1.862
					c-1.477-0.152-2.966-0.361-4.348-0.903c-1.319-0.516-2.507-1.322-3.815-1.863c-1.705-0.705-3.601-0.943-5.428-0.68
					c-0.59,0.085-1.18,0.223-1.707,0.501c-1.016,0.536-1.713,1.55-2.103,2.631c-0.346,0.961-0.512,1.945-0.563,2.935h-0.017
					c-0.009,0.145-0.016,0.294-0.019,0.447l0.018-0.001c-0.027,2.176,0.541,4.365,1.375,6.376
					c4.865,11.767,44.228,1.717,44.228,1.717c-1.374,7.726,0.686,13.541,2.095,21.279l3.685,20.352l-3.938,0.435l1.591,5.7h3.468
					v-56.305H327.472z"/>
				<path style="opacity:0.2;" d="M367.931,392.77v6.379l-0.165-0.188l-0.859-4.484c-0.012-0.059-0.012-0.129-0.012-0.188
					C366.895,393.606,367.307,393.017,367.931,392.77z"/>
				<g>
					<g>
						<g>
							<g>
								<g id="Character--inject-2_1_">
									<g>
										<polygon style="fill:#FF8B7B;" points="386.342,388.066 392.508,387.4 393.105,372.908 386.934,373.577 										"/>
										<path style="fill:#263238;" d="M393.136,384.8l-6.965-0.075c-0.242-0.027-0.459,0.148-0.486,0.389
											c-0.002,0.015-0.003,0.029-0.003,0.044l-0.401,5.505c-0.005,0.603,0.474,1.099,1.077,1.115
											c2.421-0.017,3.436-0.135,6.495-0.318c1.882-0.12,6.374-0.416,8.935-0.895c2.561-0.479,2.009-2.998,0.881-3.023
											c-2.67-0.05-6.759-0.935-8.495-2.329C393.884,384.964,393.519,384.818,393.136,384.8z"/>
										<polygon style="opacity:0.2;enable-background:new    ;" points="386.932,373.586 393.105,372.908 392.817,379.893 
											386.653,380.353 										"/>
										<path style="fill:#263238;" d="M342.966,309.625c0,0,47.007-2.321,50.11,15.184c2.549,26.524,0.895,49.507,0.895,49.507
											l-8.689,1.71c0,0-6.803-30.373-6.1-45.303c-12.948-1.421-48.215,4.856-53.708-4.789
											c-4.494-7.87-3.654-12.768-3.654-12.768L342.966,309.625z"/>
										<polygon style="fill:#407BFF;" points="382.488,378.816 395.709,378.196 396.621,373.236 381.974,373.737 										"/>
										<path style="fill:#407BFF;" d="M396.488,385.59c0.199-0.206,0.272-0.504,0.191-0.779c-0.033-0.186-0.16-0.342-0.336-0.414
											c-0.764-0.319-2.52,0.874-2.718,1.008c-0.033,0.02-0.055,0.052-0.064,0.089c-0.017,0.077,0.031,0.153,0.107,0.17
											c0.539,0.144,1.092,0.224,1.65,0.241C395.734,385.949,396.151,385.836,396.488,385.59z M396.247,384.659
											c0.085,0.038,0.141,0.121,0.145,0.214c0.063,0.177,0.022,0.374-0.107,0.511c-0.292,0.284-1.108,0.314-2.214,0.079
											C394.791,385.014,395.83,384.504,396.247,384.659z"/>
										<path style="fill:#407BFF;" d="M393.796,385.634c0.62-0.366,1.562-1.639,1.424-2.327
											c-0.053-0.244-0.264-0.423-0.513-0.434c-0.235-0.038-0.473,0.04-0.641,0.208c-0.627,0.598-0.512,2.381-0.507,2.456
											c0.004,0.051,0.034,0.096,0.08,0.118c0.021,0.01,0.043,0.016,0.067,0.017L393.796,385.634z M394.625,383.155
											c0.214,0.027,0.259,0.129,0.276,0.211c0.092,0.446-0.532,1.417-1.079,1.867c-0.008-0.589,0.051-1.607,0.427-1.964
											c0.084-0.082,0.199-0.126,0.317-0.121C394.6,383.165,394.621,383.173,394.625,383.155z"/>
									</g>
									<g>
										<path style="opacity:0.3;enable-background:new    ;" d="M373.359,319.721c0,0,9.808-2.816,11.922,3.099
											s-0.365,34.733-3.307,41.132c-2.943,6.399-8.293-43.264-8.293-43.264L373.359,319.721z"/>
									</g>
									<polygon style="fill:#FF8B7B;" points="373.535,392.768 379.531,392.612 379.073,378.068 373.077,378.224 									"/>
									<path style="fill:#263238;" d="M379.629,390.819l-6.946,0.445c-0.245,0.005-0.441,0.206-0.438,0.452l0.016,5.518
										c0.036,0.605,0.554,1.066,1.159,1.033c2.409-0.231,3.562-0.413,6.616-0.635c1.88-0.122,5.592-0.198,8.13-0.78
										c2.538-0.582,1.904-3.063,0.78-3.053c-2.668,0.041-6.393-1.448-8.23-2.708
										C380.393,390.884,380.011,390.788,379.629,390.819z"/>
									<path style="fill:#407BFF;" d="M383.035,391.351c0.181-0.222,0.229-0.525,0.125-0.792
										c-0.046-0.183-0.183-0.329-0.362-0.388c-0.773-0.264-2.446,1.067-2.633,1.215c-0.029,0.022-0.049,0.055-0.055,0.091
										c-0.013,0.078,0.04,0.151,0.118,0.163c0.548,0.099,1.106,0.137,1.662,0.114
										C382.309,391.769,382.717,391.625,383.035,391.351z M382.714,390.452c0.088,0.028,0.155,0.101,0.174,0.191
										c0.069,0.174,0.041,0.372-0.074,0.521c-0.244,0.303-1.081,0.39-2.2,0.243C381.301,390.9,382.298,390.316,382.714,390.452z"
										/>
									<path style="fill:#407BFF;" d="M380.37,391.633c0.592-0.408,1.428-1.788,1.244-2.421c-0.068-0.246-0.297-0.413-0.552-0.402
										c-0.236-0.029-0.472,0.062-0.627,0.242c-0.589,0.641-0.328,2.411-0.32,2.488c0.006,0.048,0.037,0.09,0.082,0.109
										c0.022,0.004,0.044,0.002,0.064-0.006C380.297,391.651,380.336,391.648,380.37,391.633z M381.015,389.068
										c0.209,0.012,0.277,0.11,0.285,0.194c0.126,0.436-0.426,1.452-0.938,1.943c-0.049-0.574-0.068-1.593,0.285-1.978
										c0.074-0.089,0.183-0.141,0.298-0.146L381.015,389.068z"/>
									<polygon style="opacity:0.2;enable-background:new    ;" points="372.541,378.086 379.243,376.964 379.295,386.05 
										373.424,386.734 									"/>
									<g>
										<path style="fill:#263238;" d="M333.781,311.029c0,0,46.41,3.462,47.029,16.948c3.419,22.037,0.839,51.036,0.839,51.036
											l-11.115,2.314c0,0-5.711-27.143-6.534-47.104c-11.361,1.903-34.733,5.425-42.743-0.257
											c-7.265-6.535-5.245-19.928-5.245-19.928L333.781,311.029z"/>
									</g>
									<polygon style="fill:#407BFF;" points="369.452,384.985 383.037,383.844 383.325,377.902 368.432,379.445 									"/>
									<path style="fill:#FF8B7B;" d="M337.037,270.68c0.263,1.058,0.502,1.976,0.788,2.939c0.286,0.962,0.57,1.873,0.89,2.843
										c0.621,1.865,1.324,3.715,2.099,5.6c1.548,3.903,3.618,7.578,6.154,10.925c0.746,0.934,1.57,1.804,2.463,2.599
										c1,0.899,2.129,1.643,3.349,2.208c2.341,1.046,4.915,1.461,7.466,1.204c2.233-0.225,4.416-0.813,6.461-1.738
										c0.967-0.427,1.906-0.914,2.814-1.456c0.454-0.266,0.892-0.55,1.316-0.877c0.424-0.327,0.824-0.604,1.312-0.981
										l-2.394-3.989l-1.194,0.357l-1.255,0.341c-0.844,0.214-1.679,0.399-2.534,0.543c-1.546,0.286-3.123,0.367-4.691,0.241
										c-1.254-0.087-2.466-0.481-3.532-1.147c-0.46-0.306-0.885-0.661-1.267-1.061c-0.474-0.517-0.913-1.066-1.312-1.644
										c-0.92-1.352-1.727-2.777-2.413-4.261c-0.756-1.534-1.428-3.16-2.068-4.824c-0.64-1.665-1.219-3.359-1.8-5.066
										l-0.819-2.579c-0.26-0.849-0.544-1.759-0.753-2.499L337.037,270.68z"/>
									<path style="fill:#407BFF;" d="M336.127,265.484c3.742-5.082,9.724-3.453,13.299,4.335
										c1.979,4.145,3.581,8.46,4.784,12.893l-13.723,5.317C336.599,280.681,332.276,270.696,336.127,265.484z"/>
									<path style="opacity:0.1;" d="M336.127,265.484c3.742-5.082,9.724-3.453,13.299,4.335c1.979,4.145,3.581,8.46,4.784,12.893
										l-13.723,5.317C336.599,280.681,332.276,270.696,336.127,265.484z"/>
									<path style="opacity:0.3;enable-background:new    ;" d="M342.19,273.59c-1.168-0.743-3.366,3.844-4.279,9.201
										c0.819,1.831,1.696,3.581,2.566,5.213l8.257-3.201C347.204,279.863,344.813,275.263,342.19,273.59z"/>
									<path style="fill:#FF8B7B;" d="M370.398,287.882l2.987-1.754l1.275,6.749c0,0-4.974,3.215-6.511,0.736l0.1-1.756
										C368.37,290.287,369.151,288.842,370.398,287.882z"/>
									<polygon style="fill:#FF8B7B;" points="377.181,285.676 380.015,291.041 374.634,292.881 373.359,286.132 									"/>
									<g>
										<g>
											<path style="fill:#407BFF;" d="M335.929,261.049l-7.137-0.773l-8.826,1.058c-2.756,0.327-4.952,2.458-5.362,5.203
												c-0.811,5.385-1.105,12.994-1.169,19.547c-0.08,7.356,1.079,18.192,2.576,27.955l29.453-4.516
												c-0.537-25.807,1.16-33.867,1.182-40.708c0.017-2.757-1.807-5.187-4.46-5.939L335.929,261.049z"/>
										</g>
										<g>
											<path style="fill:#407BFF;" d="M335.929,261.049l-7.137-0.773l-8.826,1.058c-2.756,0.327-4.952,2.458-5.362,5.203
												c-0.811,5.385-1.105,12.994-1.169,19.547c-0.08,7.356,1.079,18.192,2.576,27.955l29.453-4.516
												c-0.537-25.807,1.16-33.867,1.182-40.708c0.017-2.757-1.807-5.187-4.46-5.939L335.929,261.049z"/>
										</g>
									</g>
									<path style="opacity:0.3;enable-background:new    ;" d="M317.401,264.012c5.866-1.224,5.997,12.176,3.625,22.06
										c-0.686,2.86-4.08,1.781-5.24,1.078C311.991,284.848,310.213,268.522,317.401,264.012z"/>
									<g>
										<path style="fill:#FF8B7B;" d="M317.324,283.86c0.406,5.789-1.337,8.878,1.808,10.714
											c3.145,1.835,21.588,7.307,22.006,6.532c-0.84,1.426-1.656,2.648-2.496,4.074c-5.278-0.62-10.563-1.182-15.853-1.684
											c-3.86-0.366-10.09-1.158-13.181-3.498c-2.798-2.118-2.618-11.803-2.377-18.785
											C309.643,279.703,317.324,283.86,317.324,283.86z"/>
									</g>
									<path style="fill:#407BFF;" d="M315.038,261.722c6.009-1.971,8.457,2.811,6.876,11.199
										c-0.784,4.526-1.976,8.971-3.563,13.281l-12.801-3.599C306.659,274.379,308.893,263.742,315.038,261.722z"/>
									<path style="fill:#263238;" d="M323.824,261.405c-0.178,1.268,0.295,2.557,1.03,3.606c0.735,1.048,1.717,1.893,2.688,2.727
										c1.234,1.059,2.7,2.188,4.304,1.924c1.482-0.243,2.313-1.021,2.856-2.812c1.342,2.013,1.434,3.035,2.839,3.119
										c0.91,0.055,1.681-0.633,2.297-1.307c1.088-1.19,1.57-1.869,1.724-3.473c0.251-2.611-1.937-4.956-4.423-5.792
										c-2.669-0.897-5.02-1.057-7.77-1.286C327.07,257.921,324.2,258.727,323.824,261.405z"/>
									<path style="fill:#FF8B7B;" d="M329.626,248.725l3.327,3.603l4.523,4.906c-0.386,0.549-0.67,1.163-0.838,1.814
										c-0.416,1.435-0.234,2.836,1.332,3.827c0.678,0.29,1.125,3.757-3.267,3.534c-2.99-0.069-4.911-1.046-6.712-2.802
										c-0.839-1.053-1.066-1.626-0.277-2.828C329.98,257.38,330.011,252.552,329.626,248.725z"/>
									<path style="opacity:0.2;enable-background:new    ;" d="M336.385,256.018l-2.866-3.556
										c-0.03,0.11-0.063,0.227-0.099,0.351c-0.115,0.518-0.189,1.043-0.222,1.573c-0.11,1.81,1.66,4.072,3.346,5.01l0.116-0.367
										c0.173-0.61,0.429-1.194,0.759-1.735c0.022-0.031,0.048-0.057,0.079-0.079L336.385,256.018z"/>
									<path style="fill:#263238;" d="M340.375,247.628c2.659-5.167,2.093-8.095,4.648-10.848
										c1.372-0.607,3.768,1.922,2.169,6.224C345.593,247.305,340.375,247.628,340.375,247.628z"/>
									<path style="fill:#FF8B7B;" d="M329.709,241.893c-0.308,5.997-0.747,9.489,1.928,12.801
										c4.042,5.012,11.702,2.955,13.773-2.864c1.866-5.234,2.006-14.155-3.579-17.059c-4.094-2.097-9.113-0.478-11.21,3.616
										C330.062,239.475,329.751,240.672,329.709,241.893z"/>
									<path style="fill:#263238;" d="M329,247.215l4.89,1.933l-1.228-5.251l2.662-1.518l3.244-4.861c0,0-7.033-2.061-9.13-2.341
										c-0.734-0.098-3.309,1.899-3.69,2.739c-1.079,2.376-0.518,5.141,1.129,7.165C327.51,245.86,328.22,246.575,329,247.215z"/>
									<path style="fill:#263238;" d="M331.453,229.056c1.539-0.743,3.409,0.19,5.042,0.691c1.634,0.501,3.239,1.123,4.921,1.422
										c1.458,0.259,3.05,0.246,4.311-0.53c1.261-0.776,2.012-2.504,1.316-3.811c1.788,1.017,3.021,2.949,3.193,4.999
										c0.172,2.05-0.724,4.159-2.318,5.46c-1.473,1.202-3.426,1.687-5.327,1.71c-1.901,0.023-3.778-0.379-5.636-0.779
										c-2.47-0.531-6.048-0.609-8.293-1.742C326.274,235.269,326.746,231.329,331.453,229.056z"/>
									<path style="fill:#FF8B7B;" d="M326.769,246.204c0.167,1.331,0.815,2.556,1.823,3.441c1.317,1.125,2.834-0.199,2.963-1.901
										c0.106-1.52-0.727-3.71-2.287-4.171C327.708,243.114,326.57,244.545,326.769,246.204z"/>
									<path style="fill:#263238;" d="M338.792,245.195c-0.075,0.492,0.119,0.945,0.443,1.002
										c0.325,0.057,0.608-0.286,0.716-0.776s-0.119-0.945-0.445-1.008C339.182,244.349,338.866,244.697,338.792,245.195z"/>
									<path style="fill:#263238;" d="M344.347,246.233c-0.081,0.499,0.12,0.951,0.444,1.008c0.324,0.057,0.64-0.291,0.716-0.776
										c0.076-0.485-0.125-0.944-0.443-1.002C344.746,245.405,344.422,245.741,344.347,246.233z"/>
									<path style="fill:#FF5652;" d="M342.508,246.265c0.213,1.4,0.609,2.765,1.179,4.061c-0.88,0.502-2.05-0.135-2.05-0.135
										L342.508,246.265z"/>
									<path style="fill:#263238;" d="M340.757,253.009c-1.159-0.177-2.194-0.822-2.865-1.784
										c-0.044-0.069-0.024-0.16,0.045-0.204c0.071-0.039,0.161-0.017,0.205,0.051c0.745,1.037,1.93,1.668,3.206,1.707
										c0.082-0.003,0.151,0.061,0.154,0.143c0.003,0.082-0.061,0.151-0.143,0.154c-0.007,0-0.014,0-0.02-0.001
										C341.144,253.066,340.949,253.044,340.757,253.009z"/>
									<path style="fill:#263238;" d="M337.973,243.245c-0.048-0.014-0.091-0.04-0.125-0.077
										c-0.108-0.122-0.098-0.307,0.022-0.417c0.68-0.646,1.638-0.91,2.553-0.703c0.156,0.04,0.249,0.199,0.209,0.355
										c-0.001,0.004-0.002,0.007-0.003,0.011c-0.047,0.156-0.211,0.244-0.367,0.199c-0.719-0.148-1.465,0.066-1.998,0.571
										C338.188,243.259,338.074,243.283,337.973,243.245z"/>
									<path style="fill:#263238;" d="M344.874,243.034c-0.02-0.046-0.029-0.097-0.025-0.147c0.04-0.158,0.199-0.255,0.357-0.217
										c0.919,0.19,1.682,0.829,2.03,1.701c0.053,0.152-0.028,0.319-0.181,0.371c-0.152,0.053-0.319-0.028-0.371-0.181
										c-0.287-0.678-0.89-1.171-1.612-1.318C344.975,243.213,344.9,243.134,344.874,243.034z"/>
								</g>
								<g>
									<g>
										<g>
											<path style="fill:#407BFF;" d="M360.899,320.682l40.154-5.251c0.415-0.054,0.71-0.438,0.656-0.853l0,0
												c-0.054-0.415-0.438-0.71-0.853-0.656l-40.154,5.251c-0.415,0.054-0.71,0.438-0.656,0.853l0,0
												C360.1,320.441,360.484,320.736,360.899,320.682z"/>
											<path style="opacity:0.5;" d="M360.899,320.682l40.154-5.251c0.415-0.054,0.71-0.438,0.656-0.853l0,0
												c-0.054-0.415-0.438-0.71-0.853-0.656l-40.154,5.251c-0.415,0.054-0.71,0.438-0.656,0.853l0,0
												C360.1,320.441,360.484,320.736,360.899,320.682z"/>
											<path style="fill:#407BFF;" d="M341.111,320.454l19.48,0.24c0.419,0.005,0.765-0.333,0.77-0.752l0,0
												c0.005-0.418-0.333-0.765-0.751-0.77l-19.481-0.24c-0.418-0.005-0.765,0.333-0.77,0.751l0,0
												C340.354,320.102,340.692,320.449,341.111,320.454z"/>
											<path style="opacity:0.5;fill:#FFFFFF;" d="M341.111,320.454l19.48,0.24c0.419,0.005,0.765-0.333,0.77-0.752l0,0
												c0.005-0.418-0.333-0.765-0.751-0.77l-19.481-0.24c-0.418-0.005-0.765,0.333-0.77,0.751l0,0
												C340.354,320.102,340.692,320.449,341.111,320.454z"/>
											<g>
												<path style="fill:#407BFF;" d="M361.806,319.796l-21.446-0.162c0,0-0.722-0.425,0.72-0.702
													c1.442-0.277,20.059-2.738,20.059-2.738L361.806,319.796z"/>
												<path style="fill:#407BFF;" d="M361.806,319.796l-20.938-0.229c0,0-0.722-0.426,0.72-0.702
													c1.442-0.277,19.55-2.671,19.55-2.671L361.806,319.796z"/>
												<path style="opacity:0.2;fill:#FFFFFF;" d="M361.806,319.796l-20.938-0.229c0,0-0.722-0.426,0.72-0.702
													c1.442-0.277,19.55-2.671,19.55-2.671L361.806,319.796z"/>
											</g>
										</g>
										<g>
											<path style="fill:#407BFF;" d="M361.796,319.03l37.442-4.896c1.321-0.173,2.355-1.408,2.298-2.744l-0.821-19.176
												c-0.057-1.336-1.185-2.288-2.506-2.115l-37.442,4.896c-1.321,0.173-2.355,1.408-2.298,2.744l0.821,19.176
												C359.347,318.251,360.475,319.203,361.796,319.03z"/>
											<path style="opacity:0.4;" d="M361.796,319.03l37.442-4.896c1.321-0.173,2.355-1.408,2.298-2.744l-0.821-19.176
												c-0.057-1.336-1.185-2.288-2.506-2.115l-37.442,4.896c-1.321,0.173-2.355,1.408-2.298,2.744l0.821,19.176
												C359.347,318.251,360.475,319.203,361.796,319.03z"/>
										</g>
										<g>
											<path style="fill:#407BFF;" d="M362.887,318.805l37.442-4.896c1.321-0.173,2.355-1.408,2.298-2.744l-0.821-19.176
												c-0.057-1.336-1.185-2.289-2.506-2.116l-37.442,4.896c-1.321,0.173-2.356,1.408-2.298,2.744l0.821,19.176
												C360.438,318.025,361.565,318.977,362.887,318.805z"/>
											<path style="opacity:0.2;fill:#FFFFFF;" d="M362.887,318.805l37.442-4.896c1.321-0.173,2.355-1.408,2.298-2.744
												l-0.821-19.176c-0.057-1.336-1.185-2.289-2.506-2.116l-37.442,4.896c-1.321,0.173-2.356,1.408-2.298,2.744l0.821,19.176
												C360.438,318.025,361.565,318.977,362.887,318.805z"/>
										</g>
									</g>
								</g>
								<g>
									<g>
										<path style="fill:#263238;" d="M347.062,274.556c-4.094-0.852-8.374,3.098-9.562,8.809
											c-1.19,5.719,1.16,11.048,5.254,11.9c4.095,0.852,8.374-3.098,9.564-8.817
											C353.506,280.736,351.157,275.408,347.062,274.556z M343.533,294.29c-2.608-0.543-3.864-5.135-2.8-10.253
											c1.065-5.118,4.049-8.829,6.657-8.286c2.616,0.544,3.873,5.137,2.808,10.255
											C349.133,291.124,346.149,294.835,343.533,294.29z"/>
										<path style="opacity:0.5;fill:#FFFFFF;" d="M350.193,286.008c-1.065,5.119-4.046,8.829-6.658,8.285
											c-2.612-0.543-3.866-5.134-2.801-10.253c1.065-5.119,4.046-8.829,6.658-8.285
											C350.004,276.298,351.258,280.889,350.193,286.008z"/>
									</g>
									<path style="fill:#263238;" d="M341.386,294.78l-4.355,13.837c0,0,0.233,1.713,2.236,0.859
										c2.003-0.855,3.487-14.211,3.487-14.211L341.386,294.78z"/>
								</g>
								<g>
									<path style="fill:#FF8B7B;" d="M337.013,298.561l3.086-1.008l-0.041,7.672c0,0-6.707,1.81-7.232-1.29l0.818-1.706
										C334.335,300.755,335.319,299.043,337.013,298.561z"/>
									<polygon style="fill:#FF8B7B;" points="344.829,299.53 344.045,303.862 340.055,305.219 340.1,297.553 									"/>
								</g>
							</g>
						</g>
					</g>
				</g>
			</g>
		</g>
		<polygon style="fill:#F0F0F0;" points="375.762,259.818 375.726,259.833 375.69,259.818 375.726,259.811 		"/>
	</g>
</g>
<g id="Character_1">
	<g>
		<g id="_x3C_Group_x3E__1_">
			<path style="fill:#263238;" d="M145.477,172.549c0.315-0.06,0.652,0.269,0.754,0.746c0.102,0.477-0.063,0.925-0.379,0.985
				c-0.316,0.06-0.652-0.269-0.754-0.746C144.971,173.041,145.161,172.609,145.477,172.549z"/>
			<path style="fill:#B74D3C;" d="M146.462,178.88c0.831,0.034,1.635-0.301,2.196-0.916c-1.213-1.053-2.276-2.267-3.161-3.607
				L146.462,178.88z"/>
			<path style="fill:#263238;" d="M142.981,171.197c0.466-0.57,1.178-0.88,1.913-0.831l0,0c0.031,0.01,0.063,0.015,0.095,0.015
				c0.161-0.001,0.291-0.133,0.29-0.294c-0.001-0.161-0.132-0.291-0.294-0.29c-0.918-0.086-1.82,0.277-2.422,0.975
				c-0.046,0.052-0.071,0.119-0.072,0.189c-0.002,0.161,0.127,0.293,0.288,0.295C142.851,171.263,142.923,171.242,142.981,171.197z"
				/>
			<path style="fill:#B25B52;" d="M139.812,200.381c-8.241,0.089-9.502-4.396-9.502-4.396c2.447-2.396,2.571-6.793,2.048-10.714
				c0.628,0.886,1.414,1.656,2.452,2.343c1.971,1.295,4.104,1.558,6.033,1.079c0.034,0,0.069-0.012,0.103-0.036
				c-0.022,0.08-0.033,0.161-0.043,0.241c-0.493,3.142-0.056,6.503,3.24,7.486C144.141,196.385,148.888,200.283,139.812,200.381z"/>
			<path style="fill:#B25B52;" d="M141.172,187.5c-0.088,0.379-0.175,0.757-0.228,1.159c-0.034,0.023-0.068,0.035-0.103,0.036
				c-1.929,0.479-4.061,0.216-6.033-1.079c-1.038-0.687-1.824-1.457-2.452-2.343c-0.125-0.994-0.307-1.965-0.489-2.856l8.97,4.905
				L141.172,187.5z"/>
			<path style="fill:#407BFF;" d="M127.8,196.744c0,0,1.303-4.02,3.268-5.29c1.965-1.27,10.592,0.048,11.944,0.577
				c1.352,0.529,2.715,3.644,2.715,3.644L127.8,196.744z"/>
			<g>
				<path style="fill:#B25B52;" d="M123.267,209.462c2.488,0.51,4.918-1.094,5.428-3.582c0.51-2.488-1.094-4.918-3.582-5.428
					l-0.057-0.046c-3.693-0.801-7.51-1.734-11.219-2.683c-3.709-0.95-4.976-0.981-8.492-2.223c-0.886-0.295-1.742-0.628-2.592-0.968
					l-0.47-0.179c-0.078-0.022-0.154-0.055-0.224-0.097c-0.227-0.123-0.442-0.268-0.641-0.432
					c-1.167-1.072-9.036-11.262-10.489-14.729l-0.047-0.11c-0.408-0.93-1.378-1.481-2.386-1.355
					c-1.258,0.157-2.15,1.304-1.993,2.561c0.467,4.203,8.167,18.381,9.739,20.191c0.501,0.542,1.052,1.035,1.644,1.475
					c0.599,0.438,1.242,0.814,1.917,1.123c0.957,0.466,7.66,2.473,11.619,3.619c3.924,1.122,7.808,2.087,11.89,2.858
					L123.267,209.462z"/>
				<path style="fill:#B25B52;" d="M90.385,177.885l0.048,0.8c0.057,0.785-0.382,1.521-1.099,1.845
					c-1.409,0.56-2.937,0.752-4.44,0.557l1.23-6.902l3.389,2.202C90.027,176.719,90.351,177.275,90.385,177.885z"/>
				<polygon style="fill:#B25B52;" points="86.115,174.173 84.884,181.074 80.289,178.361 80.192,172.128 				"/>
				<path style="fill:#263238;" d="M124.697,195.462c-1.769,0.262-8.765,1.757-14.578,0.119l-0.379,11.872
					c0,0,10.086,4.996,14.658,1.386C129.074,205.138,131.837,198.718,124.697,195.462z"/>
				<polygon style="fill:#407BFF;" points="111.705,210.559 107.137,208.512 108.449,194.323 112.699,195.09 				"/>
			</g>
			<path style="fill:#263238;" d="M148.42,195.029c-1.332-0.221-2.827-0.424-4.353-0.545c-4.594-0.218-9.197-0.168-13.785,0.149
				c-0.04,0.003-2.991,0.283-3.03,0.286c-4.804,0.355-9.637,4.521-8.67,9.24c5.323,25.978,3.805,40.482,3.317,44.712l32.434-0.351
				c3.353-26.7,2.429-40.16,1.117-46.699C154.747,198.317,151.948,195.612,148.42,195.029z"/>
			<path style="opacity:0.2;enable-background:new    ;" d="M155.4,239.102l-1.033,9.418c2.074-16.72,2.493-28.24,2.188-36.127
				l-12.317-8.234C149.796,221.611,151.613,227.117,155.4,239.102z"/>
			<g>
				<path style="fill:#B25B52;" d="M147.075,180.774c-0.059,3.046-1.725,5.616-4.057,7.015l-0.011,0
					c-0.011,0.012-0.023,0.012-0.034,0.012c-0.625,0.396-1.309,0.678-2.028,0.857c-0.034,0.023-0.068,0.035-0.103,0.036
					c-1.929,0.479-4.061,0.216-6.033-1.079c-1.038-0.687-1.824-1.457-2.452-2.343c-1.615-2.215-2.288-5.172-3.443-9.326
					c-0.356-1.221-0.428-2.514-0.201-3.764c0.81-4.473,5.094-7.438,9.555-6.628C144.53,166.664,147.198,175.209,147.075,180.774z"/>
				<path style="opacity:0.2;" d="M142.973,187.801c-0.625,0.396-1.309,0.678-2.028,0.857c-0.034,0.023,0.224-3.665,0.224-3.665
					C141.144,184.932,142.538,187.806,142.973,187.801z"/>
			</g>
			<g>
				<path style="fill:#263238;" d="M143.472,177.6c-0.282,2.561-1.562,5.067-3.687,6.525c-0.27,0.185-0.557,0.355-0.876,0.426
					c-1.051,0.235-2.032-0.664-2.509-1.629c-0.618-1.25-0.75-2.68-0.801-4.074c-0.119-3.286,0.288-6.886,2.599-9.225
					c0.544-0.551,1.23-1.03,2.004-1.059C143.144,168.452,143.68,175.719,143.472,177.6z"/>
			</g>
			<path style="fill:#263238;" d="M130.554,162.842c-1.247-0.419-2.734,0.017-3.557,1.043s-0.925,2.573-0.245,3.699
				c-2.611,0.81-5.07,2.765-5.588,5.448c-0.518,2.684,1.695,5.806,4.41,5.498c-0.808,0.651-1.066,1.894-0.585,2.813
				c0.481,0.919,1.65,1.414,2.645,1.12c2.123,3.521,8.724,4.288,11.91,1.69c0.752-0.613,0.209-1.251,0.372-2.207
				c0.163-0.956-0.275-2.054-1.17-2.428c0.229-0.795,0.458-1.59,0.688-2.386c-0.678-0.747-1.355-1.493-2.033-2.24
				c1.819-1.41,3.725-2.934,4.514-5.097c0.788-2.162-0.114-5.106-2.353-5.639c1.476-0.269,2.363-2.191,1.611-3.489
				c-0.79-1.364-2.74-1.375-3.818-0.399c-0.624-0.871-1.138-1.821-2.204-2.11C130.993,157.032,129.854,161.497,130.554,162.842z"/>
			<path style="fill:#B25B52;" d="M141.973,173.244c1.733,0.508,2.636,3.061,2.71,4.682c0.084,1.791-1.112,2.923-2.674,1.724
				c-1.176-0.924-2.016-2.208-2.391-3.656C139.194,174.239,140.24,172.735,141.973,173.244z"/>
			<g>
				<path style="fill:#407BFF;" d="M138.918,402.663c-0.065-0.01-0.116-0.062-0.124-0.127c-0.014-0.061,0.012-0.123,0.065-0.156
					c0.119-0.054,2.343-1.378,3.42-1.107c0.208,0.037,0.391,0.162,0.502,0.343c0.148,0.195,0.156,0.462,0.019,0.662
					c-0.256,0.384-1.021,0.51-1.884,0.527C140.247,402.815,139.579,402.768,138.918,402.663z M141.906,401.522
					c-0.888,0.125-1.741,0.422-2.512,0.874c1.204,0.14,2.834,0.1,3.124-0.318c0.067-0.062,0.099-0.148-0.01-0.336
					c-0.065-0.113-0.179-0.19-0.308-0.209c-0.098-0.012-0.196-0.01-0.293,0.006L141.906,401.522z"/>
				<path style="fill:#407BFF;" d="M138.856,402.63c-0.043-0.033-0.07-0.083-0.073-0.136c0.007-0.078,0.097-1.808,0.94-2.503
					c0.233-0.206,0.543-0.305,0.854-0.274c0.423,0.035,0.576,0.246,0.581,0.418c0.142,0.745-1.363,2.142-2.138,2.509l-0.06,0.001
					C138.925,402.653,138.888,402.648,138.856,402.63z M140.482,400.01c-0.203,0.006-0.395,0.09-0.537,0.234
					c-0.467,0.568-0.749,1.266-0.807,2.002c0.789-0.497,1.801-1.609,1.719-2.045c-0.01-0.034-0.031-0.171-0.307-0.166l-0.086,0.002
					L140.482,400.01z"/>
				<polygon style="fill:#B25B52;" points="132.13,387.793 138.545,387.669 138.309,402.503 131.857,402.628 				"/>
				<path style="fill:#263238;" d="M139.82,402.233c4.445,2.602,5.795,2.697,10.891,3.703c1.114,0.22,0.466,2.921-2.189,2.972
					c-4.393,0.085-4.858-0.114-8.602-0.041c-3.208,0.062-6.888,0.28-9.439,0.373c-0.078,0.003-0.157-0.004-0.234-0.021
					c-0.505-0.11-0.827-0.607-0.719-1.111l1.13-5.757c0.054-0.257,0.278-0.443,0.541-0.449l7.054-0.136
					C138.809,401.773,139.351,401.935,139.82,402.233z"/>
				<polygon style="opacity:0.2;enable-background:new    ;" points="132.121,387.801 131.987,395.424 138.429,395.3 
					138.545,387.677 				"/>
				<path style="fill:#407BFF;" d="M85.078,403.626c-0.01,0.062-0.058,0.111-0.12,0.123c-0.064,0.015-0.129-0.016-0.156-0.074
					c-0.061-0.111-1.343-2.348-1.048-3.418c0.049-0.201,0.175-0.376,0.35-0.487c0.2-0.147,0.47-0.152,0.672-0.013
					c0.372,0.267,0.481,1.03,0.487,1.888C85.259,402.308,85.197,402.971,85.078,403.626z M84.007,400.637
					c0.103,0.882,0.375,1.735,0.801,2.512c0.173-1.199,0.162-2.822-0.253-3.115c-0.052-0.068-0.147-0.1-0.336,0.007
					c-0.114,0.064-0.193,0.176-0.214,0.305C83.991,400.442,83.992,400.541,84.007,400.637L84.007,400.637z"/>
				<path style="fill:#407BFF;" d="M85.07,403.686c-0.03,0.046-0.084,0.071-0.138,0.063c-0.069-0.007-1.813-0.12-2.482-0.967
					c-0.206-0.233-0.302-0.544-0.264-0.855c0.041-0.413,0.255-0.564,0.428-0.567c0.732-0.126,2.121,1.395,2.471,2.163
					c0.003,0.02,0.003,0.04,0.001,0.06C85.096,403.618,85.09,403.655,85.07,403.686z M82.464,402.051
					c0.009,0.197,0.087,0.384,0.219,0.529c0.561,0.47,1.255,0.757,1.989,0.822c-0.48-0.791-1.572-1.819-2.011-1.742
					c-0.034,0.001-0.172,0.021-0.171,0.296c0,0.034,0.001,0.094,0.001,0.094L82.464,402.051z"/>
				<polygon style="fill:#B25B52;" points="88.408,388.611 94.673,388.933 91.293,403.953 84.983,403.628 				"/>
				<path style="fill:#263238;" d="M83.46,402.831c-1.688,2.039-2.58,3.09-7.514,4.738c-1.088,0.358-0.103,2.949,2.542,2.664
					c4.374-0.474,1.961-0.418,5.686-0.819c3.188-0.347,6.869-0.591,9.409-0.821c0.086-0.005,0.171-0.021,0.252-0.049
					c0.494-0.167,0.763-0.702,0.6-1.194l-1.834-5.565c-0.079-0.251-0.327-0.408-0.59-0.375l-7.012,0.754
					C84.42,402.175,83.866,402.414,83.46,402.831z"/>
				<polygon style="opacity:0.2;enable-background:new    ;" points="88.399,388.62 86.646,396.334 92.93,396.658 94.673,388.933 
									"/>
				<path style="fill:#407BFF;" d="M121.9,248.871c0,0-3.4,5.442-5.691,12.067c-3.24,9.371-1.921,14.208-2.939,20.525
					c-1.792,11.125-4.642,19.687-6.589,28.138c-6.079,26.444-21.365,82.315-21.365,82.315l11.363,2.256
					c0,0,22.076-65.007,27.636-83.945c5.013-17.044,17.85-61.821,17.85-61.821L121.9,248.871z"/>
				<path style="fill:#407BFF;" d="M121.9,248.871c0,0-3.4,5.442-5.691,12.067c-3.24,9.371-1.921,14.208-2.939,20.525
					c-1.792,11.125-4.642,19.687-6.589,28.138c-6.079,26.444-21.365,82.315-21.365,82.315l11.363,2.256
					c0,0,22.076-65.007,27.636-83.945c5.013-17.044,17.85-61.821,17.85-61.821L121.9,248.871z"/>
				<path style="fill:#407BFF;" d="M83.947,389.855l-0.035,4.026l13.655,1.189c0,0,1.116-4.418,1.065-4.417L83.947,389.855z"/>
				<path style="opacity:0.3;enable-background:new    ;" d="M136.233,269.042c-4.047,14.055-9.173,31.844-11.909,41.178
					c-0.131,0.45-0.279,0.917-0.417,1.416c0.831-15.513,3.329-41.538,11.097-42.655C135.413,268.91,135.834,268.931,136.233,269.042
					z"/>
				<path style="fill:#407BFF;" d="M132.331,248.597c0,0-2.422,42.747-2.377,62.93c0.045,18.811,0.31,82.45,0.31,82.45l10.901-0.21
					c0,0,6.301-64.92,7.835-84.055c1.461-18.118,5.334-61.191,5.334-61.191L132.331,248.597z"/>
				<path style="fill:#407BFF;" d="M132.331,248.597c0,0-2.422,42.747-2.377,62.93c0.045,18.811,0.31,82.45,0.31,82.45l10.901-0.21
					c0,0,6.301-64.92,7.835-84.055c1.461-18.118,5.334-61.191,5.334-61.191L132.331,248.597z"/>
				<path style="fill:#407BFF;" d="M128.566,390.186l0.457,3.995l13.257-0.256c0,0,0.53-4.5,0.479-4.499L128.566,390.186z"/>
			</g>
			<g>
				<g>
					<g>
						<path style="fill:#407BFF;" d="M172.224,184.74l3.31-2.294c0.752,3.599,4.178,6.416,6.775,8.084
							c1.241,0.797,1.703,2.625,0.826,3.233l-2.153,1.492C178.37,197.065,172.224,184.74,172.224,184.74z"/>
						<g>
							<path style="fill:#407BFF;" d="M170.913,185.649l7.582-5.255c2.461-1.706,3.079-5.115,1.374-7.576l0,0
								c-1.706-2.461-5.115-3.079-7.576-1.374l-7.582,5.255c-2.461,1.706-3.08,5.115-1.374,7.576h0
								C165.042,186.736,168.451,187.355,170.913,185.649z"/>
							<path style="opacity:0.3;" d="M170.913,185.649l7.582-5.255c2.461-1.706,3.079-5.115,1.374-7.576l0,0
								c-1.706-2.461-5.115-3.079-7.576-1.374l-7.582,5.255c-2.461,1.706-3.08,5.115-1.374,7.576h0
								C165.042,186.736,168.451,187.355,170.913,185.649z"/>
						</g>
						<path style="fill:#407BFF;" d="M194.23,177.461l-14.218,5.997c-1.123,0.778-11.179-13.732-10.056-14.51l10.607-11.208
							L194.23,177.461z"/>
						<g>
							<path style="fill:#407BFF;" d="M186.363,168.317c3.774,5.446,7.296,9.54,7.867,9.144c0.571-0.396-2.026-5.131-5.8-10.577
								c-3.774-5.446-7.296-9.539-7.867-9.144C179.993,158.136,182.589,162.871,186.363,168.317z"/>
							<path style="opacity:0.3;" d="M186.363,168.317c3.774,5.446,7.296,9.54,7.867,9.144c0.571-0.396-2.026-5.131-5.8-10.577
								c-3.774-5.446-7.296-9.539-7.867-9.144C179.993,158.136,182.589,162.871,186.363,168.317z"/>
						</g>
						<path style="fill:#407BFF;" d="M189.795,166.551c-0.923-1.331-2.861-1.799-3.495-1.36c-0.634,0.439-0.399,1.875,0.523,3.206
							c0.923,1.332,2.184,2.055,2.818,1.616C190.275,169.574,190.717,167.883,189.795,166.551z"/>
					</g>
				</g>
				<path style="fill:#B25B52;" d="M171.159,191.343l1.023-2.824c0.629-1.737,1.783-3.235,3.301-4.287l2.118-1.468
					c0.414-0.287,0.982-0.188,1.271,0.225c0.876,1.253,2.535,3.929,2.794,6.561c0.059,0.6-0.204,1.186-0.691,1.54l-4.567,3.062
					c-0.72,0.557-1.572,0.838-2.218,0.196L171.159,191.343z"/>
				<path style="fill:#B25B52;" d="M176.266,192.158l-3.273,13.724c-0.103,0.447-0.218,0.881-0.332,1.305
					c-2.759,10.245-8.081,15.682-10.519,14.422c-2.53-1.305-7.807-7.257-7.807-7.257l6.067-4.796l1.74,1.465l9.5-20.523l1.351-2.861
					C172.992,187.637,177.261,187.614,176.266,192.158z"/>
				<path style="fill:#B25B52;" d="M172.992,205.882l-0.309,1.316l-0.023-0.012C172.774,206.764,172.889,206.329,172.992,205.882z"
					/>
			</g>
			<path style="fill:#263238;" d="M154.998,197.873c5.565,4.548,8.97,14.229,8.97,14.229l-8.991,5.704
				c0,0-11.798-8.368-10.881-16.318C144.785,195.404,148.126,192.23,154.998,197.873z"/>
			<polygon style="fill:#407BFF;" points="149.796,215.873 152.979,219.25 165.358,211.295 163.444,207.373 			"/>
		</g>
		<g>
			<g>
				<polygon style="fill:#263238;" points="196.29,162.236 202.742,146.775 207.866,149.613 				"/>
			</g>
			<g>
				<polygon style="fill:#263238;" points="196.951,167.802 213.676,166.848 212.701,161.072 				"/>
			</g>
			<g>
				<polygon style="fill:#263238;" points="201.128,162.39 213.918,147.524 218.984,153.079 				"/>
			</g>
		</g>
		<g>
			<g>
				<polygon style="fill:#407BFF;" points="73.792,158.479 73.792,172.02 86.486,178.741 86.486,164.047 				"/>
				<polygon style="opacity:0.1;" points="73.792,158.479 73.792,172.02 86.486,178.741 86.486,164.047 				"/>
				<polygon style="fill:#407BFF;" points="99.181,158.479 99.181,172.02 86.486,178.741 86.486,164.047 				"/>
				<polygon style="opacity:0.2;" points="99.181,158.479 99.181,172.02 86.486,178.741 86.486,164.047 				"/>
				<polygon style="fill:#407BFF;" points="73.792,158.479 86.486,164.047 99.181,158.479 86.486,152.098 				"/>
			</g>
			<polygon style="fill:#263238;" points="92.173,161.553 92.173,169.964 92.834,168.861 93.229,169.448 93.647,168.497 
				94.067,169.088 94.067,160.721 			"/>
			<polygon style="fill:#263238;" points="92.173,161.553 79.229,155.746 81.321,154.694 94.067,160.721 			"/>
		</g>
	</g>
</g>
<g id="Device">
	<g>
		<g>
			<g>
				<g>
					<path style="fill:#407BFF;" d="M278.627,404.835h-23.316c0-1.597,2.963-2.982,7.176-3.559v-9.955h8.955v9.955
						C275.655,401.853,278.627,403.228,278.627,404.835z"/>
					<path style="opacity:0.4;" d="M278.627,404.835h-23.316c0-1.597,2.963-2.982,7.176-3.559v-9.955h8.955v9.955
						C275.655,401.853,278.627,403.228,278.627,404.835z"/>
				</g>
				<g>
					<g>
						<rect x="229.227" y="353.399" style="fill:#407BFF;" width="75.778" height="40.751"/>
						<rect x="229.227" y="353.399" style="opacity:0.2;" width="75.778" height="40.751"/>
					</g>
					<rect x="230.987" y="355.258" style="opacity:0.2;" width="71.964" height="34.248"/>
				</g>
				<rect x="262.487" y="394.149" style="opacity:0.2;" width="8.955" height="2.161"/>
			</g>
			<polygon style="fill:#FFFFFF;" points="262.487,366.372 262.487,381.176 275.64,373.774 			"/>
		</g>
		<g>
			<g>
				<g>
					<g>
						<path style="fill:#407BFF;" d="M224.581,347.675c-0.091,1.038-1.006,1.879-2.044,1.879H209.24
							c-1.038,0-1.806-0.841-1.715-1.879l0.176-2.015h17.056L224.581,347.675z"/>
						<path style="fill:#407BFF;" d="M198.097,350.06l-5.089,58.171c-0.27,3.087,2.022,5.599,5.109,5.599h24.216
							c3.087,0,5.818-2.512,6.088-5.599l5.089-58.171c0.27-3.087-2.022-5.598-5.109-5.598h-24.216
							C201.098,344.462,198.367,346.973,198.097,350.06z"/>
					</g>
				</g>
				<g style="opacity:0.4;">
					<g>
						<path d="M224.581,347.675c-0.091,1.038-1.006,1.879-2.044,1.879H209.24c-1.038,0-1.806-0.841-1.715-1.879l0.176-2.015h17.056
							L224.581,347.675z"/>
						<path style="fill:#407BFF;" d="M198.097,350.06l-5.089,58.171c-0.27,3.087,2.022,5.599,5.109,5.599h24.216
							c3.087,0,5.818-2.512,6.088-5.599l5.089-58.171c0.27-3.087-2.022-5.598-5.109-5.598h-24.216
							C201.098,344.462,198.367,346.973,198.097,350.06z"/>
					</g>
				</g>
				<g>
					<g>
						<path style="fill:#407BFF;" d="M202.586,345.657h24.216c2.447,0,4.257,1.984,4.043,4.431l-5.089,58.171
							c-0.214,2.447-2.371,4.431-4.818,4.431h-24.216c-2.447,0-4.257-1.984-4.043-4.431l5.089-58.171
							C197.981,347.641,200.139,345.657,202.586,345.657z"/>
						<path style="opacity:0.3;fill:#FFFFFF;" d="M202.586,345.657h24.216c2.447,0,4.257,1.984,4.043,4.431l-5.089,58.171
							c-0.214,2.447-2.371,4.431-4.818,4.431h-24.216c-2.447,0-4.257-1.984-4.043-4.431l5.089-58.171
							C197.981,347.641,200.139,345.657,202.586,345.657z"/>
					</g>
					<g>
						<g>
							<path style="fill:#FFFFFF;" d="M196.6,350.087l-5.089,58.171c-0.27,3.087,2.022,5.599,5.109,5.599h24.216
								c3.087,0,5.818-2.512,6.088-5.599l5.089-58.171c0.27-3.087-2.022-5.598-5.109-5.598h-24.216
								C199.601,344.489,196.87,347,196.6,350.087z M197.767,350.087c0.214-2.447,2.371-4.431,4.818-4.431h24.216
								c2.447,0,4.257,1.984,4.043,4.431l-5.089,58.171c-0.214,2.447-2.371,4.431-4.818,4.431h-24.216
								c-2.447,0-4.257-1.984-4.043-4.431L197.767,350.087z"/>
							<path style="fill:#FFFFFF;" d="M223.26,345.688L223.26,345.688c-0.147,1.68-1.628,3.043-3.309,3.043h-10.971
								c-1.68,0-2.924-1.362-2.777-3.043l0,0H223.26z"/>
						</g>
					</g>
				</g>
			</g>
			<g>
				<g>
					<g>
						<path style="fill:#407BFF;" d="M211.353,381.573l-4.697-0.921c0.896,4.277-1.492,8.978-3.525,12.03
							c-0.971,1.459-0.604,3.67,0.642,3.914l3.055,0.599C210.533,397.922,211.353,381.573,211.353,381.573z"/>
						<g>
							<path style="fill:#407BFF;" d="M213.214,381.937l-10.76-2.109c-3.493-0.685-5.791-4.103-5.106-7.596l0,0
								c0.685-3.493,4.103-5.791,7.596-5.106l10.76,2.109c3.493,0.685,5.791,4.103,5.106,7.596l0,0
								C220.125,380.324,216.707,382.622,213.214,381.937z"/>
							<path style="opacity:0.3;" d="M213.214,381.937l-10.76-2.109c-3.493-0.685-5.791-4.103-5.106-7.596l0,0
								c0.685-3.493,4.103-5.791,7.596-5.106l10.76,2.109c3.493,0.685,5.791,4.103,5.106,7.596l0,0
								C220.125,380.324,216.707,382.622,213.214,381.937z"/>
						</g>
						<path style="fill:#407BFF;" d="M183.921,384.131l18.34-0.244c1.594,0.312,5.63-20.279,4.036-20.592l-16.891-7.15
							L183.921,384.131z"/>
						<g>
							<path style="fill:#407BFF;" d="M188.131,370.426c-1.515,7.728-3.4,13.864-4.21,13.706c-0.81-0.159-0.239-6.553,1.276-14.281
								c1.515-7.728,3.4-13.865,4.21-13.706C190.217,356.304,189.646,362.698,188.131,370.426z"/>
							<path style="opacity:0.3;" d="M188.131,370.426c-1.515,7.728-3.4,13.864-4.21,13.706c-0.81-0.159-0.239-6.553,1.276-14.281
								c1.515-7.728,3.4-13.865,4.21-13.706C190.217,356.304,189.646,362.698,188.131,370.426z"/>
						</g>
						<path style="fill:#407BFF;" d="M183.553,370.138c0.37-1.89,2.259-3.322,3.158-3.146s1.328,1.851,0.958,3.741
							c-0.37,1.89-1.4,3.279-2.299,3.102C184.47,373.659,183.182,372.028,183.553,370.138z"/>
					</g>
				</g>
				<path style="fill:#FFC0BA;" d="M216.138,386.607l-2.459-2.588c-1.513-1.592-3.483-2.673-5.637-3.096l-3.006-0.589
					c-0.588-0.115-1.159,0.264-1.277,0.851c-0.358,1.781-0.889,5.486,0.084,8.476c0.222,0.681,0.787,1.194,1.487,1.348l6.432,1.158
					c1.049,0.264,2.111,0.163,2.509-0.843L216.138,386.607z"/>
				<path style="fill:#FFC0BA;" d="M214.727,393.083l11.073,14.671l1.104-12.615l-10.765-8.533
					C216.138,386.607,211.475,388.609,214.727,393.083z"/>
			</g>
		</g>
		<g>
			<g>
				<polygon style="fill:#FFFFFF;" points="178.609,367.055 165.872,356.172 162.581,361.017 				"/>
			</g>
			<g>
				<polygon style="fill:#FFFFFF;" points="180.532,372.32 165.176,379.019 163.44,373.425 				"/>
			</g>
			<g>
				<polygon style="fill:#FFFFFF;" points="174.361,369.377 156.237,361.885 154.225,369.129 				"/>
			</g>
		</g>
	</g>
</g>
<g id="Target">
	<g>
		<g>
			<g>
				<path style="fill:#407BFF;" d="M212.559,231.577l-3.264,17.148h4.08l5.712-13.68
					C219.087,235.044,218.679,230.761,212.559,231.577z"/>
				<g>
					<path style="fill:#407BFF;" d="M248.258,231.577l3.264,17.148h-4.08l-5.712-13.68
						C241.731,235.044,242.139,230.761,248.258,231.577z"/>
					<g>
						<path style="opacity:0.3;" d="M212.559,231.577l-3.264,17.148h4.08l5.712-13.68
							C219.087,235.044,218.679,230.761,212.559,231.577z"/>
						<path style="opacity:0.3;" d="M248.258,231.577l3.264,17.148h-4.08l-5.712-13.68
							C241.731,235.044,242.139,230.761,248.258,231.577z"/>
					</g>
				</g>
			</g>
			<g>
				<g>
					<circle style="fill:#407BFF;" cx="230.37" cy="210.236" r="30.606"/>
					<circle style="fill:#FFFFFF;" cx="230.762" cy="210.236" r="23.649"/>
					<circle style="fill:#407BFF;" cx="230.37" cy="210.236" r="19.004"/>
					<circle style="fill:#FFFFFF;" cx="230.37" cy="210.236" r="14.684"/>
				</g>
				<circle style="fill:#407BFF;" cx="230.37" cy="210.236" r="4.241"/>
			</g>
		</g>
		<polygon style="fill:#407BFF;" points="264.343,161.873 264.343,169.634 255.987,179.626 255.976,179.626 254.408,173.571 		"/>
		<g>
			
				<rect x="220.887" y="189.362" transform="matrix(0.6418 -0.7669 0.7669 0.6418 -57.0523 257.7222)" style="fill:#263238;" width="52.939" height="1.144"/>
		</g>
		<g>
			<polygon style="fill:#407BFF;" points="271.257,169.771 262.981,179.626 255.987,179.626 264.343,169.634 			"/>
			<polygon style="opacity:0.2;" points="271.257,169.771 262.981,179.626 255.987,179.626 264.343,169.634 			"/>
		</g>
	</g>
</g>
<g id="Money">
	<g>
		<path style="fill:#407BFF;" d="M272.009,214.03l-2.656-5.039c0,0,2.04-3.672,4.488-3.808c2.448-0.136,5.032,2.04,5.032,2.04
			l3.128-1.307l-2.353,8.844C279.648,214.76,275.346,218.253,272.009,214.03z"/>
		<g>
			<g>
				<path style="fill:#407BFF;" d="M292.634,232.701c0,11.223-7.064,15.777-15.777,15.777s-15.777-7.064-15.777-15.777
					c0-8.714,7.064-19.831,15.777-19.831C276.856,212.87,292.634,222.426,292.634,232.701z"/>
				<path style="opacity:0.2;" d="M292.634,232.701c0,11.223-7.064,15.777-15.777,15.777s-15.777-7.064-15.777-15.777
					c0-8.714,7.064-19.831,15.777-19.831C276.856,212.87,292.634,222.426,292.634,232.701z"/>
			</g>
			<g>
				<path style="fill:#FFFFFF;" d="M282.169,234.525c0,2.267-1.824,3.784-4.671,4.022l-0.375,1.876h-1.705l0.375-1.876
					c-1.62-0.153-3.052-0.664-3.921-1.312l1.142-2.114c0.904,0.665,2.046,1.091,3.222,1.211l0.58-2.881
					c-1.585-0.477-3.324-1.108-3.324-3.171c0-2.267,1.858-3.801,4.756-4.006l0.375-1.875h1.705l-0.375,1.893
					c1.211,0.118,2.318,0.46,3.137,0.971l-1.039,2.114c-0.733-0.494-1.62-0.785-2.54-0.886l-0.596,3
					C280.482,231.951,282.169,232.565,282.169,234.525z M277.294,231.013l0.494-2.455c-0.971,0.188-1.517,0.715-1.534,1.364
					C276.254,230.451,276.68,230.757,277.294,231.013z M279.408,234.968c0-0.494-0.392-0.801-0.989-1.023l-0.46,2.335
					C278.879,236.092,279.408,235.616,279.408,234.968z"/>
			</g>
		</g>
	</g>
</g>
</svg>
