<?xml version="1.0" encoding="utf-8"?>
<!-- Generator: Adobe Illustrator 27.5.0, SVG Export Plug-In . SVG Version: 6.00 Build 0)  -->
<svg version="1.1" xmlns="http://www.w3.org/2000/svg" xmlns:xlink="http://www.w3.org/1999/xlink" x="0px" y="0px"
	 viewBox="0 0 2475 1650" style="enable-background:new 0 0 2475 1650;" xml:space="preserve">
<g id="Background">
	<g>
		<g>
			<rect style="fill:#FFFFFF; fill-opacity:0;" width="3710" height="3710"/>
		</g>
	</g>
</g>	
<g id="Illustration">
	<g>
		
			<linearGradient id="SVGID_1_" gradientUnits="userSpaceOnUse" x1="-1444.7864" y1="775.2139" x2="552.7654" y2="775.2139" gradientTransform="matrix(-0.9996 -0.0267 -0.0267 0.9996 778.4694 8.3147)">
			<stop  offset="0" style="stop-color:#DAE3FE"/>
			<stop  offset="1" style="stop-color:#E9EFFD"/>
		</linearGradient>
		<path style="fill:url(#SVGID_1_);" d="M1697.201,241.928c113.645,136.026,524.706-1.087,513.715,243.956
			c-12.869,286.924-415.202,360.956-291.196,566.085s-25.218,427.544-545.609,409.72
			C853.72,1443.865,23.307,1168.835,232.565,899.079c209.258-269.756,75.236-287.366,68.722-409.166
			c-6.514-121.799,102.84-385.743,499.882-152.907C1198.212,569.842,1409.419-102.529,1697.201,241.928z"/>
		<g>
			<path style="fill:#BDD0FB;" d="M1307.465,541.568c-61.792,63.37-406.262,447.066-103.1,840.347
				c0,0,292.015-193.255,115.718-836.997C1318.541,539.286,1311.502,537.428,1307.465,541.568z"/>
			<path style="fill:#91B3FA;" d="M1298.468,631.433c-11.488,26.876-21.931,54.271-31.932,81.775
				c-9.95,27.535-19.282,55.291-28.037,83.224c-8.774,27.928-16.855,56.069-24.295,84.372
				c-7.387,28.314-14.324,56.752-20.172,85.417c-1.586,7.14-2.871,14.341-4.286,21.514c-1.396,7.177-2.809,14.352-3.993,21.567
				l-3.692,21.618l-3.253,21.684l-0.813,5.421l-0.686,5.437l-1.369,10.875l-1.37,10.874c-0.458,3.624-0.752,7.266-1.136,10.898
				c-0.703,7.271-1.503,14.533-2.128,21.809l-1.569,21.849l-0.39,5.463l-0.226,5.469l-0.452,10.94l-0.452,10.938
				c-0.131,3.647-0.087,7.295-0.139,10.943c-0.018,7.294-0.211,14.592-0.086,21.882l0.615,21.865
				c1.348,29.121,4.303,58.147,9.441,86.786l0.01,0.054c0.389,2.172-1.055,4.248-3.227,4.638c-2.172,0.389-4.249-1.055-4.638-3.228
				l-0.005-0.025c-5.028-29.106-7.822-58.507-8.99-87.938l-0.477-22.081c-0.078-7.36,0.164-14.717,0.23-22.074
				c0.077-3.677,0.057-7.359,0.213-11.032l0.527-11.021l0.528-11.019l0.264-5.509l0.428-5.497l1.724-21.987
				c0.677-7.318,1.528-14.619,2.284-21.928c0.41-3.651,0.732-7.313,1.215-10.954l1.448-10.924l1.448-10.924l0.725-5.462l0.853-5.442
				l3.412-21.767l3.85-21.689c1.236-7.239,2.702-14.433,4.151-21.629c1.468-7.193,2.806-14.412,4.444-21.568
				c6.058-28.731,13.203-57.214,20.797-85.558c7.647-28.334,15.933-56.491,24.91-84.425c8.958-27.938,18.492-55.689,28.642-83.213
				c10.209-27.51,20.829-54.839,32.557-81.785c0.373-0.857,1.37-1.25,2.227-0.877c0.853,0.372,1.246,1.362,0.881,2.216
				L1298.468,631.433z"/>
		</g>
		<g>
			<path style="fill:#BDD0FB;" d="M502.976,1381.958c-38.874-56.8-197.48-279.701-356.636-377.467
				c-11.364-6.981-28.113,1.608-25.549,14.622c14.876,75.503,53.936,314.402,375.136,373.95
				C502.109,1394.21,506.506,1387.116,502.976,1381.958z"/>
			<path style="fill:#91B3FA;" d="M492.998,1387.766c-0.729,0-1.465-0.199-2.126-0.615
				c-121.561-76.623-199.361-154.592-243.221-206.509c-47.647-56.398-66.208-94.109-66.975-95.687
				c-0.965-1.984-0.137-4.374,1.846-5.338c1.98-0.97,4.374-0.138,5.34,1.844c0.739,1.518,76.613,153.543,307.271,298.929
				c1.867,1.178,2.426,3.644,1.25,5.511C495.622,1387.106,494.325,1387.766,492.998,1387.766z"/>
		</g>
		<g>
			<path style="fill:#91B3FA;" d="M563.844,1411.631c8.846,4.026,18.923-2.281,19.282-11.985
				c1.981-53.544-6.118-205.453-145.342-327.462C320.216,969.152,266.252,902.127,243.863,870.006
				c-4.735-6.792-15.388-3.604-15.612,4.667C225.772,965.928,243.312,1265.732,563.844,1411.631z"/>
			<path style="fill:#BDD0FB;" d="M572.307,1402.577c-1.552,0-3.028-0.909-3.677-2.425c-0.927-2.169-94.504-218.663-250.333-368.168
				c-1.592-1.527-1.645-4.058-0.117-5.65c1.53-1.59,4.058-1.647,5.65-0.117c157.031,150.659,251.216,368.61,252.149,370.793
				c0.866,2.031-0.076,4.378-2.105,5.244C573.362,1402.473,572.831,1402.577,572.307,1402.577z"/>
		</g>
		<g>
			<path style="fill:#91B3FA;" d="M505.706,250.117c120.954,61.09,810.317,445.343,565.938,1157
				c0,0-518.955-136.14-582.563-1146.078C488.525,252.203,497.804,246.126,505.706,250.117z"/>
			<path style="fill:#BDD0FB;" d="M566.424,371.933c31.432,33.889,61.307,69.073,90.502,104.837
				c29.154,35.791,57.387,72.333,84.729,109.533c54.612,74.44,105.667,151.574,151.494,231.802
				c45.76,80.217,86.47,163.56,118.233,250.472c7.924,21.724,15.337,43.647,21.929,65.827c6.625,22.166,12.736,44.505,17.811,67.098
				c5.093,22.581,9.634,45.312,12.952,68.25c3.352,22.928,5.809,45.995,7.224,69.148c0.135,2.203-1.542,4.097-3.744,4.231
				c-2.202,0.135-4.097-1.542-4.232-3.745l-0.001-0.017l-0.002-0.03c-1.304-22.901-3.641-45.744-6.867-68.472
				c-3.192-22.738-7.603-45.297-12.562-67.725c-4.942-22.439-10.919-44.649-17.41-66.701c-6.458-22.065-13.737-43.893-21.529-65.534
				c-31.234-86.583-71.446-169.808-116.748-249.992c-45.368-80.197-95.999-157.393-150.211-231.935
				c-27.142-37.251-55.18-73.856-84.143-109.716c-28.991-35.819-58.72-71.122-89.889-105.009l-0.023-0.026
				c-0.633-0.688-0.588-1.758,0.1-2.391C564.725,371.206,565.791,371.245,566.424,371.933z"/>
		</g>
		<g>
			<g>
				
					<linearGradient id="SVGID_00000026135073458831052590000017688791954098909614_" gradientUnits="userSpaceOnUse" x1="1171.5579" y1="1273.2952" x2="1169.4011" y2="1306.7245" gradientTransform="matrix(1 0 0 1 -419.0844 0)">
					<stop  offset="0" style="stop-color:#09005D"/>
					<stop  offset="1" style="stop-color:#1A0F91"/>
				</linearGradient>
				<path style="fill:url(#SVGID_00000026135073458831052590000017688791954098909614_);" d="M1038.545,1333.38h-581.11
					c-5.195,0-9.406,4.212-9.406,9.407c0,5.195,4.211,9.406,9.406,9.406h581.11c5.195,0,9.406-4.212,9.406-9.406
					C1047.952,1337.592,1043.74,1333.38,1038.545,1333.38z"/>
				
					<linearGradient id="SVGID_00000138564721313956360290000017365596845412715658_" gradientUnits="userSpaceOnUse" x1="1172.403" y1="1180.9591" x2="1164.8544" y2="1344.8701" gradientTransform="matrix(1 0 0 1 -419.0844 0)">
					<stop  offset="0" style="stop-color:#09005D"/>
					<stop  offset="1" style="stop-color:#1A0F91"/>
				</linearGradient>
				<path style="fill:url(#SVGID_00000138564721313956360290000017365596845412715658_);" d="M956.236,1237.743H539.744
					c-12.556,0-22.735,10.179-22.735,22.735v72.903h461.962v-72.903C978.971,1247.921,968.792,1237.743,956.236,1237.743z"/>
				
					<linearGradient id="SVGID_00000057131008994861987210000007201214929661858713_" gradientUnits="userSpaceOnUse" x1="1171.4269" y1="1136.3987" x2="1164.9567" y2="1273.3511" gradientTransform="matrix(1 0 0 1 -419.0844 0)">
					<stop  offset="0" style="stop-color:#09005D"/>
					<stop  offset="1" style="stop-color:#1A0F91"/>
				</linearGradient>
				<path style="fill:url(#SVGID_00000057131008994861987210000007201214929661858713_);" d="M925.423,1197.12H570.558
					c-12.556,0-22.735,10.179-22.735,22.735v17.888h400.335v-17.888C948.157,1207.299,937.979,1197.12,925.423,1197.12z"/>
				
					<linearGradient id="SVGID_00000072258727120156921410000013010557320475008958_" gradientUnits="userSpaceOnUse" x1="641.0934" y1="1137.2053" x2="854.8867" y2="1137.2053">
					<stop  offset="0" style="stop-color:#09005D"/>
					<stop  offset="1" style="stop-color:#1A0F91"/>
				</linearGradient>
				<path style="fill:url(#SVGID_00000072258727120156921410000013010557320475008958_);" d="M854.887,1197.12H641.093v-107.168
					c0-6.993,5.669-12.661,12.661-12.661h188.471c6.993,0,12.661,5.669,12.661,12.661V1197.12z"/>
				<g>
					
						<linearGradient id="SVGID_00000072986955280583950480000003844297509085781932_" gradientUnits="userSpaceOnUse" x1="1041.7908" y1="1172.6401" x2="1007.4832" y2="1319.9612" gradientTransform="matrix(1 0 0 1 -419.0844 0)">
						<stop  offset="0" style="stop-color:#09005D"/>
						<stop  offset="1" style="stop-color:#1A0F91"/>
					</linearGradient>
					
						<rect x="575.432" y="1257.605" style="fill:url(#SVGID_00000072986955280583950480000003844297509085781932_);" width="37.33" height="75.775"/>
					
						<linearGradient id="SVGID_00000021090154124257231380000000014016961195546287_" gradientUnits="userSpaceOnUse" x1="1079.2556" y1="1181.365" x2="1044.948" y2="1328.686" gradientTransform="matrix(1 0 0 1 -419.0844 0)">
						<stop  offset="0" style="stop-color:#09005D"/>
						<stop  offset="1" style="stop-color:#1A0F91"/>
					</linearGradient>
					
						<rect x="626.094" y="1257.605" style="fill:url(#SVGID_00000021090154124257231380000000014016961195546287_);" width="15" height="75.775"/>
					
						<linearGradient id="SVGID_00000024700590069669812830000007582813196432711319_" gradientUnits="userSpaceOnUse" x1="1099.3079" y1="1186.0343" x2="1065.0002" y2="1333.3553" gradientTransform="matrix(1 0 0 1 -419.0844 0)">
						<stop  offset="0" style="stop-color:#09005D"/>
						<stop  offset="1" style="stop-color:#1A0F91"/>
					</linearGradient>
					
						<rect x="647.234" y="1257.605" style="fill:url(#SVGID_00000024700590069669812830000007582813196432711319_);" width="15" height="75.775"/>
					
						<linearGradient id="SVGID_00000067924744526168955240000015530825247773568403_" gradientUnits="userSpaceOnUse" x1="1119.3602" y1="1190.704" x2="1085.0526" y2="1338.025" gradientTransform="matrix(1 0 0 1 -419.0844 0)">
						<stop  offset="0" style="stop-color:#09005D"/>
						<stop  offset="1" style="stop-color:#1A0F91"/>
					</linearGradient>
					
						<rect x="668.373" y="1257.605" style="fill:url(#SVGID_00000067924744526168955240000015530825247773568403_);" width="15" height="75.775"/>
				</g>
			</g>
			<g>
				<g>
					
						<linearGradient id="SVGID_00000044153144942433859660000005573972475064251327_" gradientUnits="userSpaceOnUse" x1="-1188.735" y1="139.3088" x2="-1141.8053" y2="139.3088" gradientTransform="matrix(0.7357 -0.6774 0.6774 0.7357 1319.101 21.5347)">
						<stop  offset="0" style="stop-color:#09005D"/>
						<stop  offset="1" style="stop-color:#1A0F91"/>
					</linearGradient>
					<path style="fill:url(#SVGID_00000044153144942433859660000005573972475064251327_);" d="M399.356,734.476
						c-5.209,4.796-5.663,12.865-1.023,18.214l292.553,341.624c4.839,5.579,13.33,6.056,18.763,1.053l24.89-22.917L412.343,722.518
						L399.356,734.476z"/>
					
						<linearGradient id="SVGID_00000081645105989975214190000010000829972788051361_" gradientUnits="userSpaceOnUse" x1="-1156.991" y1="99.5636" x2="-1043.1749" y2="99.5636" gradientTransform="matrix(0.7357 -0.6774 0.6774 0.7357 1319.101 21.5347)">
						<stop  offset="0" style="stop-color:#09005D"/>
						<stop  offset="1" style="stop-color:#1A0F91"/>
					</linearGradient>
					<path style="fill:url(#SVGID_00000081645105989975214190000010000829972788051361_);" d="M439.418,624.719
						c-9.96-10.381-26.392-10.89-36.975-1.146l-26.238,24.158c-10.583,9.744-11.429,26.163-1.905,36.944l349.07,398.059
						l73.172-67.372c5.934-5.464,6.204-14.742,0.599-20.542L439.418,624.719z"/>
					
						<linearGradient id="SVGID_00000021096098029855292310000008714041382970066590_" gradientUnits="userSpaceOnUse" x1="-1019.2075" y1="-139.9021" x2="-1124.2026" y2="166.5996" gradientTransform="matrix(0.7357 -0.6774 0.6774 0.7357 1319.101 21.5347)">
						<stop  offset="0" style="stop-color:#4042E2"/>
						<stop  offset="1" style="stop-color:#4F52FF"/>
					</linearGradient>
					<path style="fill:url(#SVGID_00000021096098029855292310000008714041382970066590_);" d="M464.452,708.124l-2.745,2.527
						c-8.497,7.824-9.044,21.055-1.22,29.552l184.208,200.065c7.824,8.497,21.055,9.043,29.552,1.219l2.745-2.527
						c8.497-7.824,9.043-21.055,1.22-29.552L494.005,709.344C486.181,700.846,472.95,700.3,464.452,708.124z"/>
					
						<rect x="564.093" y="667.915" transform="matrix(0.7357 -0.6774 0.6774 0.7357 -408.1821 603.6832)" style="fill:#91B3FA;" width="10.514" height="313.782"/>
				</g>
				<g>
					
						<linearGradient id="SVGID_00000003102452929262063440000018172378389309968540_" gradientUnits="userSpaceOnUse" x1="-1209.2061" y1="372.4843" x2="-1022.7043" y2="372.4843" gradientTransform="matrix(0.7357 -0.6774 0.6774 0.7357 1319.101 21.5347)">
						<stop  offset="0" style="stop-color:#4042E2"/>
						<stop  offset="1" style="stop-color:#4F52FF"/>
					</linearGradient>
					
						<circle style="fill:url(#SVGID_00000003102452929262063440000018172378389309968540_);" cx="750.414" cy="1051.52" r="93.257"/>
					
						<ellipse transform="matrix(0.8961 -0.4438 0.4438 0.8961 -388.7026 442.2347)" style="fill:#91B3FA;" cx="750.414" cy="1051.52" rx="71.236" ry="71.236"/>
				</g>
			</g>
			<g>
				<g>
					
						<linearGradient id="SVGID_00000118355315907514240500000003200371994701344188_" gradientUnits="userSpaceOnUse" x1="-924.5464" y1="-71.2839" x2="-911.6072" y2="-161.8578" gradientTransform="matrix(0.7357 -0.6774 0.6774 0.7357 1319.101 21.5347)">
						<stop  offset="0" style="stop-color:#09005D"/>
						<stop  offset="1" style="stop-color:#1A0F91"/>
					</linearGradient>
					<path style="fill:url(#SVGID_00000118355315907514240500000003200371994701344188_);" d="M395.349,646.937l18.403,19.987
						c4.017,4.363,10.844,4.543,15.086,0.398l256.733-254.047c4.067-3.974,4.239-10.461,0.387-14.645l-9.602-10.429L395.349,646.937
						z"/>
					
						<linearGradient id="SVGID_00000031892497685591655430000003271759016660063620_" gradientUnits="userSpaceOnUse" x1="-1103.1144" y1="-199.1274" x2="-657.3244" y2="-199.1274" gradientTransform="matrix(0.7357 -0.6774 0.6774 0.7357 1319.101 21.5347)">
						<stop  offset="0" style="stop-color:#09005D"/>
						<stop  offset="1" style="stop-color:#1A0F91"/>
					</linearGradient>
					<path style="fill:url(#SVGID_00000031892497685591655430000003271759016660063620_);" d="M690.825,309.672l19.4,21.07
						c7.825,8.499,7.416,21.694-0.92,29.692L403.607,655.907l-54.102-58.759c-4.388-4.765-3.99-12.209,0.88-16.479l310.772-272.526
						C669.815,300.493,683,301.173,690.825,309.672z"/>
					
						<linearGradient id="SVGID_00000040543185813590182000000005861662273206467222_" gradientUnits="userSpaceOnUse" x1="-870.0608" y1="-290.1394" x2="-896.8227" y2="-133.3912" gradientTransform="matrix(0.7357 -0.6774 0.6774 0.7357 1319.101 21.5347)">
						<stop  offset="0" style="stop-color:#4042E2"/>
						<stop  offset="1" style="stop-color:#4F52FF"/>
					</linearGradient>
					<path style="fill:url(#SVGID_00000040543185813590182000000005861662273206467222_);" d="M602.29,381.081L434.305,535.751
						c-7.432,6.843-7.91,18.416-1.066,25.848c6.843,7.432,18.416,7.91,25.848,1.067l167.985-154.671
						c7.432-6.843,7.91-18.416,1.067-25.848C621.294,374.715,609.722,374.237,602.29,381.081z"/>
					
						<rect x="398.222" y="467.652" transform="matrix(0.7357 -0.6774 0.6774 0.7357 -179.3418 484.2029)" style="fill:#91B3FA;" width="264.932" height="8.443"/>
				</g>
				<g>
					
						<linearGradient id="SVGID_00000147194889333056942170000003453935896375085955_" gradientUnits="userSpaceOnUse" x1="-1174.267" y1="-186.3815" x2="-1024.5" y2="-186.3815" gradientTransform="matrix(0.7357 -0.6774 0.6774 0.7357 1319.101 21.5347)">
						<stop  offset="0" style="stop-color:#4042E2"/>
						<stop  offset="1" style="stop-color:#4F52FF"/>
					</linearGradient>
					<circle style="fill:url(#SVGID_00000147194889333056942170000003453935896375085955_);" cx="384.03" cy="629.136" r="74.888"/>
					<path style="fill:#91B3FA;" d="M345.282,587.053c-23.242,21.399-24.735,57.589-3.335,80.83
						c21.4,23.242,57.589,24.735,80.831,3.336c23.242-21.4,24.735-57.589,3.336-80.831
						C404.713,567.147,368.524,565.653,345.282,587.053z"/>
				</g>
			</g>
			<g>
				<g>
					
						<linearGradient id="SVGID_00000163763669848478021220000004095574109343643800_" gradientUnits="userSpaceOnUse" x1="3019.2717" y1="-609.444" x2="3283.3674" y2="-609.444" gradientTransform="matrix(0.8544 0.5197 -0.5197 0.8544 -2207.3552 -740.8251)">
						<stop  offset="0" style="stop-color:#09005D"/>
						<stop  offset="1" style="stop-color:#1A0F91"/>
					</linearGradient>
					<path style="fill:url(#SVGID_00000163763669848478021220000004095574109343643800_);" d="M920.578,435.138l-11.684,19.208
						c-4.713,7.747-13.236,11.228-19.179,7.831l-219.32-123.945l32.583-53.566c2.643-4.344,7.466-6.193,10.68-4.094l205.054,133.936
						C924.462,418.222,925.291,427.391,920.578,435.138z"/>
				</g>
				<g>
					
						<linearGradient id="SVGID_00000132045634637811282870000010547639732785294752_" gradientUnits="userSpaceOnUse" x1="3119.5027" y1="-692.5527" x2="2927.5632" y2="-510.3178" gradientTransform="matrix(0.8544 0.5197 -0.5197 0.8544 -2207.3552 -740.8251)">
						<stop  offset="0" style="stop-color:#4042E2"/>
						<stop  offset="1" style="stop-color:#4F52FF"/>
					</linearGradient>
					<circle style="fill:url(#SVGID_00000132045634637811282870000010547639732785294752_);" cx="699.886" cy="314.18" r="58.784"/>
					
						<ellipse transform="matrix(0.5638 -0.8259 0.8259 0.5638 45.8054 715.089)" style="fill:#91B3FA;" cx="699.886" cy="314.18" rx="44.903" ry="44.903"/>
				</g>
				<g>
					<path style="fill:#7D97F4;" d="M946.707,420.039l-19.35-11.669c-1.033-0.623-2.376-0.291-2.999,0.743l-37.587,62.33
						c-0.623,1.033-0.291,2.376,0.743,2.999l19.349,11.668c1.033,0.623,2.376,0.291,2.999-0.743l37.587-62.329
						C948.073,422.005,947.74,420.662,946.707,420.039z"/>
					
						<linearGradient id="SVGID_00000165936558564729176350000012918364538186789010_" gradientUnits="userSpaceOnUse" x1="3544.0938" y1="-658.1106" x2="3385.4697" y2="-660.0218" gradientTransform="matrix(0.8544 0.5197 -0.5197 0.8544 -2207.3552 -740.8251)">
						<stop  offset="0" style="stop-color:#4042E2"/>
						<stop  offset="1" style="stop-color:#4F52FF"/>
					</linearGradient>
					<polygon style="fill:url(#SVGID_00000165936558564729176350000012918364538186789010_);" points="976.132,446.845 
						1025.246,411.388 1093.299,494.156 1082.981,506.339 1021.453,440.335 983.444,468.156 					"/>
					
						<linearGradient id="SVGID_00000142874492877996303400000002082347560750043010_" gradientUnits="userSpaceOnUse" x1="3542.8633" y1="-556.2103" x2="3384.241" y2="-558.1215" gradientTransform="matrix(0.8544 0.5197 -0.5197 0.8544 -2207.3552 -740.8251)">
						<stop  offset="0" style="stop-color:#4042E2"/>
						<stop  offset="1" style="stop-color:#4F52FF"/>
					</linearGradient>
					<polygon style="fill:url(#SVGID_00000142874492877996303400000002082347560750043010_);" points="944.857,499.197 
						937.29,559.298 1042.554,579.333 1048.298,564.438 960.875,542.09 967.065,495.396 					"/>
					
						<linearGradient id="SVGID_00000141449298427191518520000002664339588383386752_" gradientUnits="userSpaceOnUse" x1="3323.0371" y1="-609.4371" x2="3366.4099" y2="-609.4371" gradientTransform="matrix(0.8544 0.5197 -0.5197 0.8544 -2207.3552 -740.8251)">
						<stop  offset="0" style="stop-color:#09005D"/>
						<stop  offset="1" style="stop-color:#1A0F91"/>
					</linearGradient>
					<path style="fill:url(#SVGID_00000141449298427191518520000002664339588383386752_);" d="M929,497.632
						c10.103,8.277,24.205,11.127,37.339,6.265c19.699-7.292,29.756-29.173,22.464-48.872c-3.69-9.969-11.117-17.469-20.107-21.5
						L929,497.632z"/>
					<path style="fill:#91B3FA;" d="M907.389,484.29l-6.213,10.303c-1.12,1.859-0.417,4.337,1.572,5.537l19.103,11.52
						c1.989,1.199,4.51,0.665,5.63-1.193l49.538-82.148c1.121-1.858,0.417-4.337-1.572-5.536l-19.103-11.52
						c-1.989-1.199-4.51-0.665-5.63,1.193l-5.693,9.44L907.389,484.29z"/>
				</g>
			</g>
		</g>
		<g>
			<path style="fill:#7D97F4;" d="M248.201,1390.698c0-1.497,0.061-2.978,0.113-4.461l-7.356-0.257
				c0.226-6.457,0.925-12.93,2.077-19.247l7.244,1.323c0.773-4.233,1.755-8.392,2.941-12.464l-7.068-2.06
				c1.804-6.19,4.083-12.3,6.775-18.158l6.688,3.073c1.79-3.896,3.767-7.685,5.933-11.356l-6.334-3.738
				c3.27-5.541,6.983-10.894,11.034-15.915l5.721,4.618c2.686-3.327,5.527-6.523,8.534-9.557l-5.213-5.163
				c4.532-4.577,9.439-8.859,14.585-12.727l4.407,5.861c3.409-2.563,6.953-4.954,10.618-7.165l-3.789-6.281
				c5.516-3.328,11.323-6.274,17.26-8.759l2.832,6.769c3.921-1.64,7.948-3.077,12.059-4.318l-2.125-7.035
				c6.163-1.862,12.525-3.282,18.905-4.219l1.068,7.262c4.186-0.615,8.44-1.023,12.75-1.216l-0.328-7.335
				c1.994-0.089,4.013-0.133,6.001-0.133h6.283h12.032h1219.118v7.326h10.95c0.627,0,1.245,0.039,1.87,0.047l0.109-7.359
				c6.46,0.096,12.947,0.661,19.28,1.683l-1.169,7.253c4.251,0.685,8.427,1.587,12.523,2.689l1.909-7.1
				c6.227,1.674,12.383,3.826,18.297,6.394l-2.928,6.742c3.933,1.709,7.757,3.619,11.469,5.708l3.608-6.414
				c5.608,3.155,11.039,6.757,16.142,10.706l-4.504,5.818c3.383,2.618,6.623,5.404,9.718,8.347l5.072-5.337
				c4.664,4.434,9.046,9.253,13.023,14.32l-5.791,4.546c2.633,3.355,5.1,6.847,7.386,10.465l6.221-3.929
				c3.439,5.444,6.506,11.189,9.113,17.072l-6.728,2.982c1.722,3.889,3.256,7.876,4.582,11.959l6.995-2.273
				c1.989,6.124,3.541,12.454,4.613,18.814l-7.257,1.222c0.704,4.174,1.201,8.417,1.481,12.72l7.344-0.479
				c0.189,2.894,0.284,5.834,0.282,8.737c0,3.536-0.14,7.107-0.418,10.612l-7.343-0.581c-0.341,4.298-0.896,8.532-1.659,12.698
				l7.244,1.326c-1.162,6.339-2.804,12.646-4.88,18.743l-6.971-2.374c-1.385,4.065-2.968,8.034-4.747,11.899l6.687,3.077
				c-2.692,5.851-5.843,11.556-9.367,16.959l-6.163-4.018c-2.338,3.586-4.846,7.048-7.528,10.365l5.717,4.622
				c-4.044,5.004-8.495,9.758-13.228,14.131l-4.986-5.396c-3.136,2.897-6.41,5.648-9.831,8.216l4.404,5.863
				c-5.148,3.867-10.626,7.387-16.28,10.465l-3.504-6.439c-3.739,2.035-7.598,3.875-11.555,5.527l2.828,6.773
				c-5.946,2.482-12.128,4.545-18.374,6.128l-1.804-7.112c-4.11,1.044-8.302,1.875-12.563,2.5l1.065,7.268
				c-5.763,0.843-1052.824,1.312-1251.246,1.394v0.013h-16.537c-0.298,0-0.595-0.004-0.892-0.005
				c-9.273,0.004-14.407,0.005-14.802,0.005l0-0.923c-6.31-0.745-12.61-1.948-18.73-3.589l1.903-7.1
				c-4.152-1.114-8.215-2.439-12.185-3.954l-2.626,6.87c-6.012-2.296-11.914-5.063-17.543-8.224l3.601-6.414
				c-3.734-2.098-7.345-4.385-10.83-6.841l-4.243,6.02c-5.261-3.71-10.298-7.84-14.972-12.276l5.069-5.341
				c-3.098-2.941-6.045-6.036-8.83-9.279l-5.583,4.797c-4.2-4.886-8.073-10.121-11.514-15.559l6.221-3.935
				c-2.278-3.601-4.381-7.321-6.29-11.155l-6.585,3.276c-2.874-5.773-5.341-11.804-7.335-17.927l6.995-2.278
				c-1.315-4.037-2.433-8.161-3.338-12.366l-7.187,1.545c-1.35-6.281-2.249-12.733-2.673-19.175l7.343-0.483
				C248.327,1396.284,248.201,1393.506,248.201,1390.698z"/>
			
				<linearGradient id="SVGID_00000129196091565012282330000015004890939788471199_" gradientUnits="userSpaceOnUse" x1="-139.0583" y1="1209.9938" x2="-344.7094" y2="2069.6853" gradientTransform="matrix(-1 0 0 1 815.4399 0)">
				<stop  offset="0" style="stop-color:#09005D"/>
				<stop  offset="1" style="stop-color:#1A0F91"/>
			</linearGradient>
			<path style="fill:url(#SVGID_00000129196091565012282330000015004890939788471199_);" d="M1621.917,1488.557
				c53.96,0,97.86-43.9,97.86-97.859s-43.9-97.859-97.86-97.859H373.534c-53.96,0-97.86,43.9-97.86,97.859s43.9,97.859,97.86,97.859
				H1621.917z"/>
			<g>
				
					<linearGradient id="SVGID_00000018935325753110832570000003613755035615768210_" gradientUnits="userSpaceOnUse" x1="-736.43" y1="1276.911" x2="-895.3565" y2="1540.3945" gradientTransform="matrix(-1 0 0 1 815.4399 0)">
					<stop  offset="0" style="stop-color:#4042E2"/>
					<stop  offset="1" style="stop-color:#4F52FF"/>
				</linearGradient>
				
					<circle style="fill:url(#SVGID_00000018935325753110832570000003613755035615768210_);" cx="1616.577" cy="1384.189" r="66.256"/>
				
					<ellipse transform="matrix(0.7071 -0.7071 0.7071 0.7071 -505.2846 1548.512)" style="fill:#7D97F4;" cx="1616.577" cy="1384.188" rx="50.168" ry="50.168"/>
			</g>
			<g>
				
					<linearGradient id="SVGID_00000038381178320647669720000005042827220608574596_" gradientUnits="userSpaceOnUse" x1="497.4717" y1="1276.9109" x2="338.5452" y2="1540.3945" gradientTransform="matrix(-1 0 0 1 815.4399 0)">
					<stop  offset="0" style="stop-color:#4042E2"/>
					<stop  offset="1" style="stop-color:#4F52FF"/>
				</linearGradient>
				
					<circle style="fill:url(#SVGID_00000038381178320647669720000005042827220608574596_);" cx="382.675" cy="1384.189" r="66.256"/>
				
					<ellipse transform="matrix(0.9925 -0.1222 0.1222 0.9925 -166.2575 57.1275)" style="fill:#7D97F4;" cx="382.675" cy="1384.188" rx="50.168" ry="50.168"/>
			</g>
		</g>
		<g>
			
				<linearGradient id="SVGID_00000011012467220996255840000013014573090147146130_" gradientUnits="userSpaceOnUse" x1="849.086" y1="1251.9331" x2="1201.087" y2="925.932">
				<stop  offset="0" style="stop-color:#FE7062"/>
				<stop  offset="1" style="stop-color:#FF928E"/>
			</linearGradient>
			<path style="fill:url(#SVGID_00000011012467220996255840000013014573090147146130_);" d="M1195.19,1235.812V958.399
				c0-20.776-16.697-37.681-37.472-37.907c-62.351-0.679-190.947-0.713-296.166,8.154c-14.358,1.21-25.526,12.978-26.047,27.378
				l-9.834,272.163c-0.73,20.222,15.257,37.116,35.489,37.5l297.815,5.659C1178.864,1271.724,1195.19,1255.705,1195.19,1235.812z"/>
			<path style="opacity:0.73;fill:#FFFFFF;" d="M1159.077,975.509c0.265,13.456-0.134,34.805-0.462,48.598
				c-0.17,7.176-6.47,12.645-13.599,11.809l-51.313-6.015c-6.836-0.801-11.652-7.101-10.631-13.908l6.298-42.017
				c0.894-5.965,6.018-10.378,12.05-10.378h45.475C1153.521,963.598,1158.947,968.884,1159.077,975.509z"/>
			<path style="opacity:0.37;fill:#FFFFFF;" d="M1024.98,1055.137l-42.804,4.617c-5.99,0.647-11.1-4.293-10.659-10.301
				l9.357-127.329c17.943-0.569,35.642-0.984,52.72-1.275v124.694C1033.594,1050.472,1029.88,1054.608,1024.98,1055.137z"/>
			<path style="fill:#FFFFFF;" d="M1007.436,1033.068c-0.132,2.29-2.029,4.056-4.294,4.056c-0.084,0-0.168-0.003-0.252-0.008
				c-2.374-0.137-4.188-2.172-4.048-4.547l6.454-111.129c2.894-0.072,5.765-0.136,8.635-0.2L1007.436,1033.068z"/>
			<g>
				
					<linearGradient id="SVGID_00000093896912830893016380000000135339632724439709_" gradientUnits="userSpaceOnUse" x1="-323.5623" y1="996.6818" x2="-318.4715" y2="996.6818" gradientTransform="matrix(-1 0 0 1 815.4399 0)">
					<stop  offset="0" style="stop-color:#09005D"/>
					<stop  offset="1" style="stop-color:#1A0F91"/>
				</linearGradient>
				<path style="fill:url(#SVGID_00000093896912830893016380000000135339632724439709_);" d="M1135.347,1015.619
					c0.751,0,1.385-0.583,1.432-1.345l2.22-35.002c0.05-0.79-0.549-1.471-1.343-1.522c-0.833-0.065-1.472,0.552-1.522,1.343
					l-2.22,35.002c-0.051,0.791,0.549,1.472,1.343,1.522C1135.257,1015.616,1135.319,1015.619,1135.347,1015.619z"/>
				
					<linearGradient id="SVGID_00000178895043283707659810000013264687005201268386_" gradientUnits="userSpaceOnUse" x1="-317.937" y1="996.3466" x2="-313.9019" y2="996.3466" gradientTransform="matrix(-1 0 0 1 815.4399 0)">
					<stop  offset="0" style="stop-color:#09005D"/>
					<stop  offset="1" style="stop-color:#1A0F91"/>
				</linearGradient>
				<path style="fill:url(#SVGID_00000178895043283707659810000013264687005201268386_);" d="M1130.778,1015.619
					c0.771,0,1.41-0.611,1.435-1.387l1.163-35.672c0.025-0.793-0.597-1.458-1.387-1.483c-0.914-0.045-1.455,0.597-1.483,1.388
					l-1.163,35.672c-0.025,0.793,0.597,1.457,1.388,1.483H1130.778z"/>
				
					<linearGradient id="SVGID_00000017508052282478362030000007479189716733762184_" gradientUnits="userSpaceOnUse" x1="-312.3188" y1="996.3477" x2="-307.776" y2="996.3477" gradientTransform="matrix(-1 0 0 1 815.4399 0)">
					<stop  offset="0" style="stop-color:#09005D"/>
					<stop  offset="1" style="stop-color:#1A0F91"/>
				</linearGradient>
				<path style="fill:url(#SVGID_00000017508052282478362030000007479189716733762184_);" d="M1124.583,1015.616
					c-0.793-0.036-1.404-0.709-1.365-1.5c0.569-11.983,1.654-34.84,1.671-35.619c0.006-0.785,0.647-1.421,1.435-1.421
					c0.793,0,1.435,0.642,1.435,1.435c0,0.591-1.396,29.876-1.676,35.74c-0.036,0.771-0.67,1.368-1.432,1.368
					C1124.628,1015.619,1124.605,1015.619,1124.583,1015.616z M1124.86,978.512h0.028H1124.86z"/>
				
					<linearGradient id="SVGID_00000010291442576611002090000017737440986462938554_" gradientUnits="userSpaceOnUse" x1="-303.4783" y1="996.6821" x2="-296.771" y2="996.6821" gradientTransform="matrix(-1 0 0 1 815.4399 0)">
					<stop  offset="0" style="stop-color:#09005D"/>
					<stop  offset="1" style="stop-color:#1A0F91"/>
				</linearGradient>
				<path style="fill:url(#SVGID_00000010291442576611002090000017737440986462938554_);" d="M1115.083,1017.054
					c1.539,0,2.812-1.219,2.865-2.77c1.214-34.562,1.001-35.342,0.861-35.857c-0.415-1.533-2.007-2.433-3.524-2.015
					c-1.404,0.384-2.282,1.746-2.091,3.151c0.092,2.077-0.549,22.187-0.981,34.52c-0.056,1.584,1.183,2.915,2.767,2.968
					C1115.013,1017.054,1115.05,1017.054,1115.083,1017.054z"/>
				
					<linearGradient id="SVGID_00000150795831227911689960000006661803409351268779_" gradientUnits="userSpaceOnUse" x1="-294.8582" y1="996.6827" x2="-291.9879" y2="996.6827" gradientTransform="matrix(-1 0 0 1 815.4399 0)">
					<stop  offset="0" style="stop-color:#09005D"/>
					<stop  offset="1" style="stop-color:#1A0F91"/>
				</linearGradient>
				<path style="fill:url(#SVGID_00000150795831227911689960000006661803409351268779_);" d="M1108.863,1015.619
					c0.793,0,1.435-0.642,1.435-1.435v-35.002c0-0.793-0.642-1.435-1.435-1.435c-0.793,0-1.435,0.642-1.435,1.435v35.002
					C1107.428,1014.977,1108.07,1015.619,1108.863,1015.619z"/>
				
					<linearGradient id="SVGID_00000123423180632336506030000011330059658788727468_" gradientUnits="userSpaceOnUse" x1="-291.5084" y1="996.6415" x2="-286.9644" y2="996.6415" gradientTransform="matrix(-1 0 0 1 815.4399 0)">
					<stop  offset="0" style="stop-color:#09005D"/>
					<stop  offset="1" style="stop-color:#1A0F91"/>
				</linearGradient>
				<path style="fill:url(#SVGID_00000123423180632336506030000011330059658788727468_);" d="M1103.84,1015.619
					c0.779,0,1.418-0.622,1.435-1.401c0.275-12.163,0.917-32.029,1.491-34.417c0.252-0.451,0.25-1.023-0.053-1.489
					c-0.435-0.667-1.323-0.846-1.987-0.412c-0.782,0.513-1.525,0.998-2.321,36.25c-0.017,0.793,0.611,1.449,1.402,1.469H1103.84z"/>
				
					<linearGradient id="SVGID_00000118357741689257963220000011203710800434394804_" gradientUnits="userSpaceOnUse" x1="-332.4127" y1="997.5569" x2="-324.7552" y2="997.5569" gradientTransform="matrix(-1 0 0 1 815.4399 0)">
					<stop  offset="0" style="stop-color:#09005D"/>
					<stop  offset="1" style="stop-color:#1A0F91"/>
				</linearGradient>
				<path style="fill:url(#SVGID_00000118357741689257963220000011203710800434394804_);" d="M1143.069,1018.806
					c1.516,0,2.783-1.188,2.865-2.722l1.915-36.754c0.081-1.584-1.135-2.932-2.719-3.016c-1.503-0.107-2.932,1.135-3.016,2.719
					l-1.915,36.754c-0.081,1.584,1.135,2.932,2.719,3.016C1142.969,1018.806,1143.019,1018.806,1143.069,1018.806z"/>
			</g>
		</g>
		<g>
			
				<linearGradient id="SVGID_00000085229563105176361890000013773500716648212634_" gradientUnits="userSpaceOnUse" x1="429.1517" y1="1239.3821" x2="761.1519" y2="945.3823">
				<stop  offset="0" style="stop-color:#FE7062"/>
				<stop  offset="1" style="stop-color:#FF928E"/>
			</linearGradient>
			<path style="fill:url(#SVGID_00000085229563105176361890000013773500716648212634_);" d="M768.651,1235.812V958.399
				c0-20.776-16.697-37.681-37.472-37.907c-62.351-0.679-190.947-0.713-296.166,8.154c-14.358,1.21-25.526,12.978-26.047,27.378
				l-9.834,272.163c-0.731,20.222,15.257,37.116,35.488,37.5l297.815,5.659C752.325,1271.724,768.651,1255.705,768.651,1235.812z"/>
			<path style="opacity:0.73;fill:#FFFFFF;" d="M732.538,975.509c0.265,13.456-0.134,34.805-0.461,48.598
				c-0.17,7.176-6.47,12.645-13.6,11.809l-51.313-6.015c-6.836-0.801-11.652-7.101-10.631-13.908l6.298-42.017
				c0.894-5.965,6.018-10.378,12.05-10.378h45.475C726.982,963.598,732.408,968.884,732.538,975.509z"/>
			<path style="opacity:0.37;fill:#FFFFFF;" d="M598.441,1055.137l-42.804,4.617c-5.99,0.647-11.1-4.293-10.659-10.301
				l9.357-127.329c17.943-0.569,35.642-0.984,52.72-1.275v124.694C607.056,1050.472,603.342,1054.608,598.441,1055.137z"/>
			<path style="fill:#FFFFFF;" d="M580.897,1033.068c-0.132,2.29-2.029,4.056-4.294,4.056c-0.084,0-0.168-0.003-0.252-0.008
				c-2.374-0.137-4.188-2.172-4.048-4.547l6.454-111.129c2.894-0.072,5.765-0.136,8.635-0.2L580.897,1033.068z"/>
			<g>
				
					<linearGradient id="SVGID_00000086690255356616244140000008317861401996765621_" gradientUnits="userSpaceOnUse" x1="102.9766" y1="996.6818" x2="108.0674" y2="996.6818" gradientTransform="matrix(-1 0 0 1 815.4399 0)">
					<stop  offset="0" style="stop-color:#09005D"/>
					<stop  offset="1" style="stop-color:#1A0F91"/>
				</linearGradient>
				<path style="fill:url(#SVGID_00000086690255356616244140000008317861401996765621_);" d="M708.808,1015.619
					c0.751,0,1.385-0.583,1.432-1.345l2.22-35.002c0.05-0.79-0.549-1.471-1.343-1.522c-0.833-0.065-1.472,0.552-1.522,1.343
					l-2.22,35.002c-0.05,0.791,0.549,1.472,1.343,1.522C708.718,1015.616,708.78,1015.619,708.808,1015.619z"/>
				
					<linearGradient id="SVGID_00000169518763075096321710000014348911410049367720_" gradientUnits="userSpaceOnUse" x1="108.6019" y1="996.3466" x2="112.637" y2="996.3466" gradientTransform="matrix(-1 0 0 1 815.4399 0)">
					<stop  offset="0" style="stop-color:#09005D"/>
					<stop  offset="1" style="stop-color:#1A0F91"/>
				</linearGradient>
				<path style="fill:url(#SVGID_00000169518763075096321710000014348911410049367720_);" d="M704.239,1015.619
					c0.771,0,1.41-0.611,1.435-1.387l1.163-35.672c0.025-0.793-0.597-1.458-1.388-1.483c-0.914-0.045-1.455,0.597-1.483,1.388
					l-1.163,35.672c-0.025,0.793,0.597,1.457,1.388,1.483H704.239z"/>
				
					<linearGradient id="SVGID_00000087387397347472923920000012343994359320204961_" gradientUnits="userSpaceOnUse" x1="114.2201" y1="996.3477" x2="118.7629" y2="996.3477" gradientTransform="matrix(-1 0 0 1 815.4399 0)">
					<stop  offset="0" style="stop-color:#09005D"/>
					<stop  offset="1" style="stop-color:#1A0F91"/>
				</linearGradient>
				<path style="fill:url(#SVGID_00000087387397347472923920000012343994359320204961_);" d="M698.044,1015.616
					c-0.793-0.036-1.404-0.709-1.365-1.5c0.569-11.983,1.654-34.84,1.671-35.619c0.006-0.785,0.647-1.421,1.435-1.421
					c0.793,0,1.435,0.642,1.435,1.435c0,0.591-1.396,29.876-1.676,35.74c-0.036,0.771-0.67,1.368-1.432,1.368
					C698.089,1015.619,698.066,1015.619,698.044,1015.616z M698.321,978.512h0.028H698.321z"/>
				
					<linearGradient id="SVGID_00000077298779739554291080000011348042842615427472_" gradientUnits="userSpaceOnUse" x1="123.0607" y1="996.6821" x2="129.7679" y2="996.6821" gradientTransform="matrix(-1 0 0 1 815.4399 0)">
					<stop  offset="0" style="stop-color:#09005D"/>
					<stop  offset="1" style="stop-color:#1A0F91"/>
				</linearGradient>
				<path style="fill:url(#SVGID_00000077298779739554291080000011348042842615427472_);" d="M688.544,1017.054
					c1.539,0,2.812-1.219,2.865-2.77c1.214-34.562,1.001-35.342,0.86-35.857c-0.415-1.533-2.007-2.433-3.523-2.015
					c-1.404,0.384-2.282,1.746-2.091,3.151c0.092,2.077-0.549,22.187-0.981,34.52c-0.056,1.584,1.183,2.915,2.767,2.968
					C688.474,1017.054,688.51,1017.054,688.544,1017.054z"/>
				
					<linearGradient id="SVGID_00000134231066458448389550000002981340923887895436_" gradientUnits="userSpaceOnUse" x1="131.6807" y1="996.6827" x2="134.551" y2="996.6827" gradientTransform="matrix(-1 0 0 1 815.4399 0)">
					<stop  offset="0" style="stop-color:#09005D"/>
					<stop  offset="1" style="stop-color:#1A0F91"/>
				</linearGradient>
				<path style="fill:url(#SVGID_00000134231066458448389550000002981340923887895436_);" d="M682.324,1015.619
					c0.793,0,1.435-0.642,1.435-1.435v-35.002c0-0.793-0.642-1.435-1.435-1.435c-0.793,0-1.435,0.642-1.435,1.435v35.002
					C680.889,1014.977,681.531,1015.619,682.324,1015.619z"/>
				
					<linearGradient id="SVGID_00000128468265047945393610000015797393105749380247_" gradientUnits="userSpaceOnUse" x1="135.0306" y1="996.6415" x2="139.5745" y2="996.6415" gradientTransform="matrix(-1 0 0 1 815.4399 0)">
					<stop  offset="0" style="stop-color:#09005D"/>
					<stop  offset="1" style="stop-color:#1A0F91"/>
				</linearGradient>
				<path style="fill:url(#SVGID_00000128468265047945393610000015797393105749380247_);" d="M677.301,1015.619
					c0.779,0,1.418-0.622,1.435-1.401c0.275-12.163,0.917-32.029,1.491-34.417c0.252-0.451,0.25-1.023-0.053-1.489
					c-0.434-0.667-1.323-0.846-1.987-0.412c-0.782,0.513-1.525,0.998-2.321,36.25c-0.017,0.793,0.611,1.449,1.401,1.469H677.301z"/>
				
					<linearGradient id="SVGID_00000158023652992158849030000006620402882192580282_" gradientUnits="userSpaceOnUse" x1="94.1264" y1="997.5569" x2="101.7836" y2="997.5569" gradientTransform="matrix(-1 0 0 1 815.4399 0)">
					<stop  offset="0" style="stop-color:#09005D"/>
					<stop  offset="1" style="stop-color:#1A0F91"/>
				</linearGradient>
				<path style="fill:url(#SVGID_00000158023652992158849030000006620402882192580282_);" d="M716.53,1018.806
					c1.516,0,2.783-1.188,2.865-2.722l1.915-36.754c0.081-1.584-1.135-2.932-2.719-3.016c-1.502-0.107-2.932,1.135-3.016,2.719
					l-1.914,36.754c-0.081,1.584,1.135,2.932,2.719,3.016C716.43,1018.806,716.48,1018.806,716.53,1018.806z"/>
			</g>
		</g>
		<g>
			<g>
				<g>
					<g>
						
							<linearGradient id="SVGID_00000023275975995119890980000015089786849262963880_" gradientUnits="userSpaceOnUse" x1="-215.8738" y1="-1212.6624" x2="-203.4075" y2="-1299.926" gradientTransform="matrix(-0.1783 0.984 0.984 0.1783 2728.9065 1469.8462)">
							<stop  offset="0" style="stop-color:#09005D"/>
							<stop  offset="1" style="stop-color:#1A0F91"/>
						</linearGradient>
						<path style="fill:url(#SVGID_00000023275975995119890980000015089786849262963880_);" d="M1506.986,860.506l31.863,5.773
							c6.954,1.26,11.492,8.018,10.026,14.932l-67.779,324.311c-1.406,6.63-7.827,10.941-14.495,9.733l-16.625-3.012
							L1506.986,860.506z"/>
						
							<linearGradient id="SVGID_00000079449696930500726330000008514250300458944650_" gradientUnits="userSpaceOnUse" x1="-381.7047" y1="-1350.8896" x2="50.636" y2="-1350.8896" gradientTransform="matrix(-0.1783 0.984 0.984 0.1783 2728.9065 1469.8462)">
							<stop  offset="0" style="stop-color:#09005D"/>
							<stop  offset="1" style="stop-color:#1A0F91"/>
						</linearGradient>
						<path style="fill:url(#SVGID_00000079449696930500726330000008514250300458944650_);" d="M1380.154,1276.915l33.588,6.086
							c13.548,2.454,26.571-6.377,29.303-19.871l78.24-400.033l-93.67-16.971c-7.596-1.376-14.836,3.773-16.028,11.401
							l-51.902,390.5C1357.509,1261.621,1366.606,1274.46,1380.154,1276.915z"/>
						
							<linearGradient id="SVGID_00000039119005808923448400000017867512513740290743_" gradientUnits="userSpaceOnUse" x1="-158.0369" y1="-1429.0542" x2="-181.6659" y2="-1290.6564" gradientTransform="matrix(-0.1783 0.984 0.984 0.1783 2728.9065 1469.8462)">
							<stop  offset="0" style="stop-color:#4042E2"/>
							<stop  offset="1" style="stop-color:#4F52FF"/>
						</linearGradient>
						<path style="fill:url(#SVGID_00000039119005808923448400000017867512513740290743_);" d="M1395.548,1142.228l24.367-171.566
							c2.147-11.848,13.492-19.713,25.34-17.566c11.848,2.146,19.713,13.492,17.566,25.34l-24.367,171.566
							c-2.146,11.848-13.492,19.713-25.339,17.566C1401.266,1165.422,1393.402,1154.076,1395.548,1142.228z"/>
						<polygon style="opacity:0.39;fill:#FFFFFF;" points="1440.304,952.2 1450.206,953.994 1418.065,1168.465 1408.164,1166.671 
													"/>
					</g>
					<g>
						
							<linearGradient id="SVGID_00000005965124624088378980000010841203593451065272_" gradientUnits="userSpaceOnUse" x1="-466.5097" y1="-1335.6981" x2="-288.006" y2="-1335.6981" gradientTransform="matrix(-0.1783 0.984 0.984 0.1783 2728.9065 1469.8462)">
							<stop  offset="0" style="stop-color:#4042E2"/>
							<stop  offset="1" style="stop-color:#4F52FF"/>
						</linearGradient>
						
							<circle style="fill:url(#SVGID_00000005965124624088378980000010841203593451065272_);" cx="1481.844" cy="860.469" r="89.254"/>
						
							<ellipse transform="matrix(0.3227 -0.9465 0.9465 0.3227 189.2501 1985.4008)" style="fill:#91B3FA;" cx="1481.844" cy="860.469" rx="68.178" ry="68.178"/>
					</g>
				</g>
				<g>
					<g>
						
							<linearGradient id="SVGID_00000115497651698526190050000007086744702044974527_" gradientUnits="userSpaceOnUse" x1="1842.5481" y1="-1426.751" x2="1613.7721" y2="-1209.5421" gradientTransform="matrix(0.9443 -0.329 -0.329 -0.9443 -671.6374 571.7952)">
							<stop  offset="0" style="stop-color:#4042E2"/>
							<stop  offset="1" style="stop-color:#4F52FF"/>
						</linearGradient>
						<path style="fill:url(#SVGID_00000115497651698526190050000007086744702044974527_);" d="M1429.618,1319.824
							c-36.54,12.73-76.481-6.573-89.21-43.112c-12.73-36.54,6.572-76.48,43.112-89.21c36.54-12.729,76.48,6.573,89.21,43.112
							C1485.459,1267.153,1466.157,1307.094,1429.618,1319.824z"/>
						
							<ellipse transform="matrix(0.9611 -0.2761 0.2761 0.9611 -291.429 437.0176)" style="opacity:0.39;fill:#FFFFFF;" cx="1406.569" cy="1253.662" rx="53.517" ry="53.517"/>
					</g>
				</g>
			</g>
			<g>
				
					<linearGradient id="SVGID_00000166672717855214001340000001241134962362951102_" gradientUnits="userSpaceOnUse" x1="-1346.0299" y1="58.9958" x2="-903.668" y2="902.415" gradientTransform="matrix(-1 0.0065 0.0065 1 907.8873 -114.3354)">
					<stop  offset="0" style="stop-color:#09005D"/>
					<stop  offset="1" style="stop-color:#1A0F91"/>
				</linearGradient>
				<path style="fill:url(#SVGID_00000166672717855214001340000001241134962362951102_);" d="M1576.573,782.793l527.486-3.42
					c23.48-0.152,42.568-19.488,42.415-42.969l0,0c-0.152-23.481-19.488-42.568-42.969-42.415l-527.485,3.42
					c-23.481,0.152-42.568,19.488-42.415,42.969l0,0C1533.757,763.859,1553.093,782.945,1576.573,782.793z"/>
				
					<linearGradient id="SVGID_00000072991789246605033290000008382635149577125767_" gradientUnits="userSpaceOnUse" x1="1614.5209" y1="765.9893" x2="1995.5592" y2="393.9521">
					<stop  offset="0" style="stop-color:#4042E2"/>
					<stop  offset="1" style="stop-color:#4F52FF"/>
				</linearGradient>
				<path style="fill:url(#SVGID_00000072991789246605033290000008382635149577125767_);" d="M1625.874,311.891l417.089-2.705
					c99.235-0.643,180.955,80.023,181.598,179.258l1.072,165.205c0.242,37.404-30.162,68.205-67.566,68.448l-641.932,4.162
					c-37.404,0.242-68.205-30.162-68.448-67.566l-1.071-165.205C1445.973,394.254,1526.639,312.534,1625.874,311.891z"/>
				
					<linearGradient id="SVGID_00000117653288751367717340000017243403987089327802_" gradientUnits="userSpaceOnUse" x1="1569.0967" y1="1297.2179" x2="2047.0966" y2="763.2177">
					<stop  offset="0" style="stop-color:#4042E2"/>
					<stop  offset="1" style="stop-color:#4F52FF"/>
				</linearGradient>
				<path style="fill:url(#SVGID_00000117653288751367717340000017243403987089327802_);" d="M1543.99,748.849l586.518-3.803
					c52.643-0.341,95.993,42.451,96.334,95.094l0.499,76.952c1.387,213.935-171.26,583.645-385.195,585.032h-0.001
					c-213.935,1.388-391.363-366.053-392.749-579.988l-0.499-76.953C1448.555,792.541,1491.347,749.19,1543.99,748.849z"/>
				<g>
					
						<linearGradient id="SVGID_00000168110450123089886920000014653531337005485463_" gradientUnits="userSpaceOnUse" x1="-1227.144" y1="651.226" x2="-642.5029" y2="651.226" gradientTransform="matrix(-1 0.0065 0.0065 1 907.8873 -114.3354)">
						<stop  offset="0" style="stop-color:#09005D"/>
						<stop  offset="1" style="stop-color:#1A0F91"/>
					</linearGradient>
					<path style="fill:url(#SVGID_00000168110450123089886920000014653531337005485463_);" d="M1554.729,549.004
						c0.187,28.868,22.262,52.955,51.02,55.474c155.66,13.637,317.039,13.031,483.078-3.282
						c28.811-2.831,50.729-27.211,50.542-56.161l-0.197-30.349c-0.187-28.778-22.149-52.792-50.804-55.452
						c-161.546-14.994-323.077-16.757-484.585,2.364c-28.264,3.346-49.442,27.555-49.258,56.016L1554.729,549.004z"/>
					<g>
						
							<linearGradient id="SVGID_00000079465104776137714500000003867259615811427727_" gradientUnits="userSpaceOnUse" x1="-1141.1447" y1="380.3677" x2="-991.879" y2="1216.5059" gradientTransform="matrix(-1 0.0065 0.0065 1 907.8873 -114.3354)">
							<stop  offset="0" style="stop-color:#4042E2"/>
							<stop  offset="1" style="stop-color:#4F52FF"/>
						</linearGradient>
						<path style="fill:url(#SVGID_00000079465104776137714500000003867259615811427727_);" d="M1969.207,531.135
							c0.127,19.613,16.13,35.41,35.743,35.283c19.613-0.127,35.41-16.13,35.282-35.743c-0.127-19.613-16.13-35.41-35.743-35.283
							C1984.877,495.519,1969.08,511.522,1969.207,531.135z"/>
						
							<linearGradient id="SVGID_00000036960011132552025360000001684335426870906261_" gradientUnits="userSpaceOnUse" x1="-835.3516" y1="325.773" x2="-686.0857" y2="1161.9127" gradientTransform="matrix(-1 0.0065 0.0065 1 907.8873 -114.3354)">
							<stop  offset="0" style="stop-color:#4042E2"/>
							<stop  offset="1" style="stop-color:#4F52FF"/>
						</linearGradient>
						<path style="fill:url(#SVGID_00000036960011132552025360000001684335426870906261_);" d="M1653.669,533.181
							c0.127,19.613,16.13,35.41,35.743,35.283c19.613-0.127,35.41-16.13,35.282-35.743c-0.127-19.613-16.13-35.41-35.743-35.283
							C1669.338,497.565,1653.541,513.568,1653.669,533.181z"/>
					</g>
					
						<linearGradient id="SVGID_00000166672822367598482070000002283335345794688908_" gradientUnits="userSpaceOnUse" x1="-1321.6825" y1="331.5764" x2="-1209.8566" y2="481.9413" gradientTransform="matrix(-0.9981 -0.0609 -0.0609 0.9981 786.9056 23.1163)">
						<stop  offset="0" style="stop-color:#4042E2"/>
						<stop  offset="1" style="stop-color:#4F52FF"/>
					</linearGradient>
					<path style="fill:url(#SVGID_00000166672822367598482070000002283335345794688908_);" d="M2001.895,582.249L2001.895,582.249
						c-0.037,0-0.076,0-0.113,0.001l0,0c-1.177-0.069-2.056-1.05-1.988-2.189l0,0c0.068-1.177,1.049-2.056,2.226-1.988l0,0
						c1.14,0.068,2.019,1.049,1.951,2.226C2003.939,581.4,2002.996,582.242,2001.895,582.249z M2014.224,581.446L2014.224,581.446
						c-0.986,0.006-1.863-0.709-2.061-1.693l0,0c-0.196-1.175,0.517-2.242,1.656-2.477l0,0c1.136-0.235,2.242,0.515,2.477,1.654l0,0
						c0.196,1.136-0.517,2.242-1.654,2.477C2014.49,581.408,2014.375,581.445,2014.224,581.446z M1989.738,580.011L1989.738,580.011
						c-0.191,0.001-0.417,0.003-0.646-0.072l0,0l0,0l0,0c-1.103-0.371-1.718-1.544-1.346-2.647l0,0
						c0.334-1.103,1.506-1.718,2.61-1.346l0,0c1.14,0.334,1.718,1.507,1.382,2.61
						C1991.441,579.471,1990.647,580.005,1989.738,580.011z M2026.002,577.538L2026.002,577.538
						c-0.797,0.005-1.559-0.407-1.905-1.201l0,0c-0.501-1.021-0.091-2.277,0.968-2.777l0,0c1.061-0.502,2.314-0.054,2.777,1.007l0,0
						c0.5,1.022,0.091,2.275-0.968,2.777C2026.571,577.497,2026.267,577.536,2026.002,577.538z M1978.547,574.81L1978.547,574.81
						c-0.38,0.003-0.797-0.071-1.141-0.296l0,0l0,0l0,0c-0.99-0.639-1.265-1.928-0.664-2.918l0,0
						c0.639-0.953,1.928-1.265,2.881-0.664l0,0c0.99,0.638,1.302,1.926,0.664,2.918
						C1979.91,574.459,1979.229,574.806,1978.547,574.81z M2036.395,570.866L2036.395,570.866c-0.608,0.004-1.217-0.257-1.637-0.747
						l0,0c-0.727-0.907-0.623-2.234,0.246-2.963l0,0c0.907-0.727,2.236-0.62,2.963,0.248l0,0c0.764,0.905,0.622,2.234-0.248,2.961
						C2037.343,570.71,2036.849,570.863,2036.395,570.866z M1968.969,566.979L1968.969,566.979
						c-0.569,0.004-1.102-0.184-1.521-0.635l0,0l0,0l0,0c-0.802-0.831-0.774-2.159,0.057-2.961l0,0
						c0.831-0.802,2.157-0.772,2.96,0.057l0,0c0.803,0.868,0.774,2.196-0.057,2.999
						C1969.993,566.781,1969.501,566.975,1968.969,566.979z M2044.799,561.819L2044.799,561.819
						c-0.419,0.003-0.874-0.146-1.218-0.411l0,0c-0.953-0.675-1.189-1.966-0.512-2.919l0,0c0.677-0.953,2.005-1.151,2.958-0.473l0,0
						c0.914,0.676,1.15,1.966,0.473,2.919C2046.087,561.507,2045.444,561.815,2044.799,561.819z M1961.658,557.045L1961.658,557.045
						c-0.76,0.005-1.483-0.37-1.867-1.088l0,0l0,0l0,0c-0.575-0.984-0.203-2.276,0.817-2.852l0,0
						c0.982-0.538,2.274-0.206,2.852,0.815l0,0c0.537,1.021,0.204,2.276-0.817,2.851
						C1962.339,556.965,1961.96,557.044,1961.658,557.045z M2050.726,550.964L2050.726,550.964c-0.267,0.002-0.532-0.072-0.8-0.146
						l0,0c-1.064-0.41-1.604-1.659-1.193-2.726l0,0c0.447-1.065,1.659-1.605,2.724-1.193l0,0c1.066,0.41,1.604,1.659,1.194,2.724
						l0,0l0,0C2052.316,550.461,2051.522,550.959,2050.726,550.964z M1957.028,545.575L1957.028,545.575
						c-0.948,0.006-1.825-0.633-2.059-1.543l0,0c0-0.037,0-0.037,0-0.037l0,0c-0.311-1.099,0.365-2.241,1.501-2.552l0,0
						c1.099-0.274,2.243,0.402,2.552,1.501l0,0c0.311,1.136-0.363,2.279-1.501,2.552
						C1957.369,545.536,1957.181,545.574,1957.028,545.575z M2053.72,538.952L2053.72,538.952c-0.076,0.001-0.189,0.001-0.265,0.002
						l0,0c-1.139-0.144-1.981-1.201-1.837-2.341l0,0c0.145-1.139,1.201-1.979,2.342-1.837l0,0c1.139,0.144,1.981,1.202,1.836,2.341
						C2055.651,538.182,2054.744,538.945,2053.72,538.952z M1955.393,533.328L1955.393,533.328c-1.177,0.008-2.093-0.935-2.1-2.073
						l0,0c0-0.039,0-0.076-0.001-0.115l0,0c0-0.037-0.001-0.076-0.001-0.113l0,0c-0.008-1.14,0.935-2.095,2.073-2.102l0,0
						c1.177-0.008,2.094,0.935,2.102,2.075l0,0c0,0.076,0.001,0.113,0.001,0.152l0,0c0,0.037,0,0.037,0,0.076
						C1957.475,532.366,1956.532,533.321,1955.393,533.328z M1957.466,531.037L1957.466,531.037v-0.037l0,0l0,0
						C1957.466,531.037,1957.466,531.001,1957.466,531.037z M2053.679,526.619L2053.679,526.619
						c-1.063,0.007-1.979-0.784-2.098-1.845l0,0c-0.159-1.138,0.667-2.206,1.806-2.328l0,0c1.137-0.157,2.204,0.632,2.364,1.806l0,0
						c0.122,1.139-0.668,2.169-1.844,2.328C2053.831,526.581,2053.755,526.618,2053.679,526.619z M1956.905,520.833
						L1956.905,520.833c-0.189,0.001-0.341,0.002-0.53-0.034l0,0c-1.141-0.297-1.793-1.432-1.536-2.571l0,0
						c0.297-1.103,1.432-1.794,2.572-1.497l0,0c1.102,0.259,1.794,1.432,1.497,2.532
						C1958.686,520.214,1957.817,520.827,1956.905,520.833z M2050.566,514.648L2050.566,514.648
						c-0.836,0.006-1.636-0.521-1.982-1.316l0,0c-0.426-1.098,0.098-2.316,1.157-2.74l0,0c1.098-0.424,2.317,0.1,2.741,1.159l0,0
						c0.424,1.098-0.098,2.315-1.159,2.741C2051.058,514.569,2050.792,514.646,2050.566,514.648z M1961.423,509.343
						L1961.423,509.343c-0.341,0.002-0.682-0.072-1.025-0.258l0,0c-1.028-0.562-1.379-1.813-0.817-2.841l0,0l0,0l0,0
						c0.564-1.029,1.812-1.378,2.841-0.816l0,0c0.991,0.524,1.379,1.813,0.817,2.841l0,0
						C1962.864,508.953,1962.145,509.338,1961.423,509.343z M2044.536,503.832L2044.536,503.832
						c-0.645,0.004-1.291-0.296-1.713-0.862l0,0c-0.69-0.944-0.47-2.235,0.474-2.925l0,0c0.905-0.688,2.235-0.469,2.925,0.436l0,0
						c0.688,0.944,0.47,2.236-0.473,2.963C2045.409,503.713,2044.953,503.829,2044.536,503.832z M1968.646,499.315L1968.646,499.315
						c-0.495,0.003-1.026-0.182-1.447-0.559l0,0c-0.839-0.791-0.887-2.12-0.095-2.961l0,0c0.793-0.839,2.12-0.887,2.998-0.096l0,0
						c0.841,0.792,0.886,2.12,0.095,2.961l0,0C1969.782,499.119,1969.214,499.311,1968.646,499.315z M2036.054,494.855
						L2036.054,494.855c-0.495,0.003-0.95-0.146-1.371-0.484l0,0c-0.877-0.715-0.999-2.043-0.284-2.959l0,0
						c0.754-0.877,2.043-0.999,2.957-0.284l0,0c0.878,0.754,1.001,2.08,0.286,2.957
						C2037.228,494.582,2036.623,494.851,2036.054,494.855z M1978.158,491.398L1978.158,491.398
						c-0.683,0.004-1.37-0.334-1.791-0.937l0,0c-0.614-0.984-0.319-2.275,0.665-2.927l0,0l0,0l0,0
						c0.945-0.614,2.274-0.318,2.888,0.663l0,0c0.614,0.945,0.356,2.275-0.626,2.889l0,0
						C1978.915,491.318,1978.536,491.396,1978.158,491.398z M2025.575,488.282L2025.575,488.282
						c-0.304,0.001-0.608-0.072-0.874-0.223l0,0c-1.067-0.486-1.531-1.735-1.043-2.763l0,0c0.486-1.065,1.735-1.529,2.8-1.043l0,0
						c1.028,0.486,1.492,1.736,1.006,2.803C2027.127,487.816,2026.372,488.277,2025.575,488.282z M1989.318,486.127
						L1989.318,486.127c-0.872,0.006-1.71-0.558-1.983-1.468l0,0c-0.387-1.099,0.213-2.279,1.351-2.627l0,0
						c-0.039,0-0.039,0-0.039,0l0,0c1.135-0.387,2.316,0.213,2.666,1.311l0,0c0.348,1.099-0.252,2.279-1.35,2.664l0,0
						C1989.773,486.085,1989.546,486.125,1989.318,486.127z M2013.823,484.487L2013.823,484.487
						c-0.152,0.001-0.265,0.002-0.417-0.034l0,0c-1.139-0.22-1.869-1.317-1.686-2.457l0,0c0.22-1.139,1.317-1.867,2.456-1.647l0,0
						c1.139,0.182,1.906,1.277,1.685,2.417C2015.679,483.791,2014.772,484.481,2013.823,484.487z M2001.447,483.771
						L2001.447,483.771c-1.063,0.007-2.018-0.86-2.101-1.96l0,0c-0.045-1.177,0.822-2.168,1.959-2.251l0,0l0,0l0,0
						c1.176-0.047,2.169,0.82,2.253,1.959l0,0c0.083,1.176-0.822,2.168-1.959,2.251l0,0
						C2001.56,483.77,2001.523,483.77,2001.447,483.771z"/>
					
						<linearGradient id="SVGID_00000103959398890540894510000013960465850270532232_" gradientUnits="userSpaceOnUse" x1="-1007.0134" y1="352.8246" x2="-895.187" y2="503.1899" gradientTransform="matrix(-0.9981 -0.0609 -0.0609 0.9981 786.9056 23.1163)">
						<stop  offset="0" style="stop-color:#4042E2"/>
						<stop  offset="1" style="stop-color:#4F52FF"/>
					</linearGradient>
					<path style="fill:url(#SVGID_00000103959398890540894510000013960465850270532232_);" d="M1686.529,584.294L1686.529,584.294
						c-0.037,0-0.076,0.001-0.113,0.001l0,0c-1.177-0.069-2.056-1.05-1.988-2.189l0,0c0.068-1.177,1.049-2.056,2.226-1.988l0,0
						c1.14,0.069,2.019,1.049,1.951,2.226C1688.573,583.445,1687.63,584.287,1686.529,584.294z M1698.858,583.491L1698.858,583.491
						c-0.986,0.006-1.863-0.709-2.06-1.693l0,0c-0.197-1.175,0.517-2.242,1.656-2.477l0,0c1.136-0.236,2.242,0.515,2.477,1.653l0,0
						c0.197,1.137-0.517,2.242-1.653,2.477C1699.125,583.453,1699.01,583.49,1698.858,583.491z M1674.372,582.056L1674.372,582.056
						c-0.191,0.001-0.417,0.003-0.645-0.072l0,0l0,0l0,0c-1.103-0.371-1.719-1.543-1.346-2.647l0,0
						c0.334-1.103,1.506-1.718,2.609-1.345l0,0c1.14,0.333,1.719,1.506,1.383,2.609
						C1676.075,581.515,1675.282,582.05,1674.372,582.056z M1710.637,579.583L1710.637,579.583
						c-0.797,0.005-1.559-0.407-1.905-1.202l0,0c-0.502-1.021-0.091-2.276,0.968-2.776l0,0c1.06-0.501,2.314-0.054,2.777,1.007l0,0
						c0.5,1.022,0.091,2.275-0.968,2.777C1711.205,579.542,1710.901,579.581,1710.637,579.583z M1663.181,576.855L1663.181,576.855
						c-0.38,0.002-0.797-0.071-1.141-0.297l0,0l0,0l0,0c-0.99-0.638-1.265-1.928-0.664-2.918l0,0
						c0.639-0.953,1.928-1.265,2.881-0.664l0,0c0.99,0.639,1.302,1.926,0.664,2.918
						C1664.545,576.504,1663.863,576.851,1663.181,576.855z M1721.03,572.911L1721.03,572.911c-0.608,0.004-1.217-0.257-1.638-0.747
						l0,0c-0.726-0.907-0.622-2.234,0.246-2.963l0,0c0.907-0.727,2.236-0.62,2.963,0.248l0,0c0.764,0.905,0.622,2.234-0.248,2.961
						C1721.977,572.755,1721.484,572.908,1721.03,572.911z M1653.604,569.023L1653.604,569.023
						c-0.569,0.004-1.102-0.184-1.522-0.635l0,0l0,0l0,0c-0.802-0.83-0.774-2.159,0.057-2.961l0,0
						c0.831-0.802,2.158-0.772,2.96,0.057l0,0c0.802,0.867,0.774,2.197-0.057,2.999
						C1654.627,568.826,1654.135,569.02,1653.604,569.023z M1729.434,563.864L1729.434,563.864
						c-0.419,0.003-0.874-0.146-1.218-0.411l0,0c-0.953-0.676-1.19-1.965-0.512-2.919l0,0c0.678-0.953,2.005-1.151,2.958-0.473l0,0
						c0.914,0.676,1.151,1.966,0.473,2.919C1730.722,563.551,1730.078,563.86,1729.434,563.864z M1646.292,559.091L1646.292,559.091
						c-0.76,0.005-1.483-0.37-1.867-1.089l0,0l0,0l0,0c-0.575-0.984-0.204-2.276,0.817-2.851l0,0
						c0.983-0.538,2.274-0.206,2.852,0.815l0,0c0.537,1.021,0.204,2.276-0.817,2.852
						C1646.973,559.01,1646.594,559.088,1646.292,559.091z M1735.36,553.01L1735.36,553.01c-0.267,0.002-0.532-0.073-0.8-0.147l0,0
						c-1.065-0.41-1.604-1.659-1.193-2.725l0,0c0.447-1.065,1.659-1.604,2.723-1.193l0,0c1.067,0.41,1.605,1.659,1.195,2.723l0,0
						l0,0C1736.95,552.506,1736.156,553.004,1735.36,553.01z M1641.663,547.62L1641.663,547.62
						c-0.948,0.006-1.825-0.633-2.059-1.543l0,0c0-0.037,0-0.037,0-0.037l0,0c-0.311-1.098,0.365-2.241,1.501-2.552l0,0
						c1.099-0.274,2.243,0.402,2.552,1.501l0,0c0.311,1.135-0.363,2.28-1.501,2.552
						C1642.004,547.581,1641.815,547.619,1641.663,547.62z M1738.354,540.997L1738.354,540.997
						c-0.076,0.001-0.189,0.001-0.265,0.002l0,0c-1.139-0.145-1.981-1.201-1.837-2.341l0,0c0.145-1.139,1.201-1.979,2.341-1.837l0,0
						c1.139,0.145,1.982,1.203,1.837,2.341C1740.286,540.227,1739.379,540.99,1738.354,540.997z M1640.027,535.373L1640.027,535.373
						c-1.177,0.008-2.093-0.935-2.1-2.073l0,0c0-0.039-0.001-0.076-0.001-0.115l0,0c0-0.037,0-0.076-0.001-0.113l0,0
						c-0.007-1.139,0.935-2.094,2.073-2.102l0,0c1.177-0.008,2.094,0.935,2.102,2.075l0,0c0.001,0.076,0.001,0.113,0.001,0.152l0,0
						c0,0.037,0,0.037,0.001,0.076C1642.109,534.411,1641.167,535.366,1640.027,535.373z M1642.1,533.082L1642.1,533.082l0-0.037
						l0,0l0,0C1642.1,533.082,1642.1,533.045,1642.1,533.082z M1738.313,528.663L1738.313,528.663
						c-1.064,0.007-1.979-0.784-2.099-1.845l0,0c-0.159-1.138,0.667-2.205,1.807-2.328l0,0c1.137-0.157,2.204,0.633,2.363,1.807l0,0
						c0.122,1.139-0.668,2.169-1.844,2.328C1738.465,528.625,1738.389,528.663,1738.313,528.663z M1641.54,522.878L1641.54,522.878
						c-0.189,0.001-0.341,0.002-0.53-0.034l0,0c-1.141-0.296-1.794-1.432-1.536-2.571l0,0c0.297-1.103,1.432-1.794,2.572-1.497l0,0
						c1.102,0.26,1.793,1.432,1.497,2.533C1643.32,522.258,1642.451,522.872,1641.54,522.878z M1735.2,516.693L1735.2,516.693
						c-0.836,0.006-1.636-0.521-1.982-1.316l0,0c-0.426-1.098,0.098-2.317,1.157-2.741l0,0c1.098-0.424,2.317,0.1,2.74,1.159l0,0
						c0.424,1.098-0.098,2.315-1.159,2.74C1735.693,516.614,1735.426,516.691,1735.2,516.693z M1646.057,511.387L1646.057,511.387
						c-0.341,0.002-0.683-0.072-1.025-0.258l0,0c-1.028-0.562-1.379-1.813-0.817-2.841l0,0l0,0l0,0
						c0.564-1.028,1.813-1.377,2.841-0.815l0,0c0.991,0.524,1.38,1.813,0.817,2.841l0,0
						C1647.498,510.998,1646.78,511.383,1646.057,511.387z M1729.171,505.877L1729.171,505.877
						c-0.645,0.004-1.292-0.296-1.712-0.862l0,0c-0.69-0.944-0.47-2.236,0.474-2.925l0,0c0.905-0.688,2.236-0.468,2.925,0.437l0,0
						c0.688,0.944,0.47,2.235-0.474,2.962C1730.042,505.758,1729.588,505.874,1729.171,505.877z M1653.28,501.36L1653.28,501.36
						c-0.494,0.003-1.026-0.182-1.447-0.559l0,0c-0.839-0.792-0.887-2.12-0.095-2.961l0,0c0.793-0.839,2.12-0.887,2.998-0.095l0,0
						c0.841,0.792,0.887,2.12,0.095,2.961l0,0C1654.416,501.164,1653.849,501.356,1653.28,501.36z M1720.689,496.9L1720.689,496.9
						c-0.495,0.003-0.95-0.146-1.371-0.484l0,0c-0.878-0.715-0.999-2.043-0.284-2.959l0,0c0.754-0.878,2.043-0.999,2.957-0.284l0,0
						c0.877,0.754,1.001,2.08,0.286,2.958C1721.861,496.627,1721.257,496.896,1720.689,496.9z M1662.792,493.443L1662.792,493.443
						c-0.684,0.005-1.37-0.334-1.791-0.937l0,0c-0.614-0.984-0.319-2.276,0.665-2.926l0,0l0,0l0,0
						c0.945-0.614,2.274-0.319,2.888,0.663l0,0c0.614,0.945,0.356,2.275-0.626,2.889l0,0
						C1663.55,493.362,1663.17,493.441,1662.792,493.443z M1710.209,490.327L1710.209,490.327c-0.304,0.002-0.608-0.072-0.874-0.223
						l0,0c-1.067-0.486-1.531-1.735-1.043-2.764l0,0c0.486-1.065,1.736-1.529,2.801-1.043l0,0c1.028,0.486,1.492,1.736,1.006,2.803
						C1711.761,489.861,1711.006,490.321,1710.209,490.327z M1673.952,488.171L1673.952,488.171
						c-0.873,0.006-1.71-0.558-1.983-1.467l0,0c-0.387-1.099,0.213-2.279,1.35-2.627l0,0c-0.039,0-0.039,0-0.039,0l0,0
						c1.135-0.387,2.316,0.213,2.666,1.311l0,0c0.348,1.098-0.252,2.279-1.35,2.664l0,0
						C1674.408,488.129,1674.18,488.17,1673.952,488.171z M1698.457,486.532L1698.457,486.532c-0.152,0.001-0.265,0.002-0.417-0.035
						l0,0c-1.139-0.22-1.869-1.316-1.685-2.457l0,0c0.221-1.139,1.317-1.867,2.456-1.647l0,0c1.139,0.182,1.906,1.277,1.685,2.417
						C1700.313,485.836,1699.406,486.526,1698.457,486.532z M1686.082,485.815L1686.082,485.815c-1.063,0.007-2.018-0.86-2.101-1.96
						l0,0c-0.045-1.176,0.822-2.168,1.959-2.251l0,0l0,0l0,0c1.176-0.047,2.17,0.82,2.253,1.959l0,0
						c0.084,1.176-0.821,2.168-1.959,2.251l0,0C1686.195,485.815,1686.158,485.815,1686.082,485.815z"/>
				</g>
				
					<linearGradient id="SVGID_00000183208220557237703570000015690946479126796695_" gradientUnits="userSpaceOnUse" x1="-1269.489" y1="267.0627" x2="-1294.4774" y2="491.9586" gradientTransform="matrix(-1 0.0065 0.0065 1 907.8873 -114.3354)">
					<stop  offset="0" style="stop-color:#4042E2"/>
					<stop  offset="1" style="stop-color:#4F52FF"/>
				</linearGradient>
				<path style="fill:url(#SVGID_00000183208220557237703570000015690946479126796695_);" d="M2168.939,225.612
					c0.071,10.884,8.951,19.65,19.835,19.579c10.884-0.071,19.65-8.951,19.58-19.835c-0.071-10.884-8.951-19.649-19.835-19.579
					C2177.635,205.848,2168.869,214.728,2168.939,225.612z"/>
				
					<linearGradient id="SVGID_00000015345069920970095870000018205989943633975728_" gradientUnits="userSpaceOnUse" x1="-1278.4948" y1="465.5127" x2="-1205.6956" y2="465.5127" gradientTransform="matrix(-1 0.0065 0.0065 1 907.8873 -114.3354)">
					<stop  offset="0" style="stop-color:#09005D"/>
					<stop  offset="1" style="stop-color:#1A0F91"/>
				</linearGradient>
				<path style="fill:url(#SVGID_00000015345069920970095870000018205989943633975728_);" d="M2189.702,388.325
					c0,0-47.024,6.328-73.158-54.945l12.343-25.867c4.201-8.805,14.786-12.479,23.539-8.174l27.104,13.333
					c5.953,2.928,9.74,8.968,9.783,15.602L2189.702,388.325z"/>
				
					<linearGradient id="SVGID_00000088128341207194132160000004154230100415993274_" gradientUnits="userSpaceOnUse" x1="-1245.4733" y1="273.9478" x2="-1269.2933" y2="488.3282" gradientTransform="matrix(-1 0.0065 0.0065 1 907.8873 -114.3354)">
					<stop  offset="0" style="stop-color:#4042E2"/>
					<stop  offset="1" style="stop-color:#4F52FF"/>
				</linearGradient>
				<path style="fill:url(#SVGID_00000088128341207194132160000004154230100415993274_);" d="M2184.801,234.62
					c0.506-1.203,2.314-0.666,2.082,0.618l-15.657,86.6c-0.356,1.97-1.677,3.63-3.517,4.419c-1.84,0.789-3.953,0.602-5.626-0.497
					l-5.033-3.308c-4.185-2.751-5.811-8.095-3.868-12.711L2184.801,234.62z"/>
				
					<linearGradient id="SVGID_00000027570330443579083760000008490996074708464309_" gradientUnits="userSpaceOnUse" x1="-568.6894" y1="344.918" x2="-593.678" y2="569.8152" gradientTransform="matrix(-1 0.0065 0.0065 1 907.8873 -114.3354)">
					<stop  offset="0" style="stop-color:#4042E2"/>
					<stop  offset="1" style="stop-color:#4F52FF"/>
				</linearGradient>
				<path style="fill:url(#SVGID_00000027570330443579083760000008490996074708464309_);" d="M1498.902,229.956
					c0.07,10.884-8.695,19.764-19.58,19.835c-10.884,0.07-19.764-8.695-19.835-19.579c-0.071-10.884,8.695-19.764,19.579-19.835
					C1489.951,210.307,1498.832,219.073,1498.902,229.956z"/>
				
					<linearGradient id="SVGID_00000052098680999260584560000004881838993423507083_" gradientUnits="userSpaceOnUse" x1="-641.8422" y1="465.5021" x2="-569.0425" y2="465.5021" gradientTransform="matrix(-1 0.0065 0.0065 1 907.8873 -114.3354)">
					<stop  offset="0" style="stop-color:#09005D"/>
					<stop  offset="1" style="stop-color:#1A0F91"/>
				</linearGradient>
				<path style="fill:url(#SVGID_00000052098680999260584560000004881838993423507083_);" d="M1480.251,392.925
					c0,0,47.102,5.717,72.44-55.889l-12.677-25.705c-4.315-8.749-14.946-12.287-23.643-7.868l-26.928,13.683
					c-5.914,3.006-9.623,9.094-9.58,15.728L1480.251,392.925z"/>
				
					<linearGradient id="SVGID_00000123419871037744903840000011828074946554097831_" gradientUnits="userSpaceOnUse" x1="-582.4999" y1="343.828" x2="-606.5632" y2="560.3976" gradientTransform="matrix(-1 0.0065 0.0065 1 907.8873 -114.3354)">
					<stop  offset="0" style="stop-color:#4042E2"/>
					<stop  offset="1" style="stop-color:#4F52FF"/>
				</linearGradient>
				<path style="fill:url(#SVGID_00000123419871037744903840000011828074946554097831_);" d="M1481.085,239.815l16.706,86.014
					c0.398,2.049,1.797,3.761,3.726,4.559c1.928,0.798,4.129,0.574,5.858-0.594l4.673-3.159c4.148-2.805,5.706-8.17,3.703-12.76
					l-32.591-74.705C1482.637,237.974,1480.836,238.534,1481.085,239.815z"/>
				<path style="fill:#91B3FA;" d="M2055.359,409.747c10.693-0.069,19.75-8.302,20.643-19.163
					c0.945-11.489-7.604-21.568-19.091-22.513c-151.795-12.482-290.449-12.02-423.877,1.413
					c-11.47,1.153-19.831,11.388-18.677,22.856c1.155,11.47,11.35,19.839,22.856,18.677
					c130.872-13.171,267.036-13.611,416.276-1.341C2054.117,409.728,2054.74,409.751,2055.359,409.747z"/>
				<g>
					<path style="fill:#91B3FA;" d="M1595.758,614.741c-31.087-2.928-54.693-30.35-54.909-63.783l-0.227-34.978
						c-0.213-32.851,22.556-60.518,52.959-64.358c157.122-19.844,322.241-20.631,504.8-2.41c30.953,3.09,54.457,30.5,54.672,63.757
						l0.219,33.82c0.218,33.516-23.142,61.256-54.335,64.523c-85.08,8.912-170.068,13.642-254.411,14.189
						C1760.759,626.044,1677.631,622.458,1595.758,614.741z M1594.073,455.517c-28.434,3.59-49.723,29.573-49.523,60.437
						l0.227,34.979c0.204,31.409,22.279,57.16,51.349,59.9c164.05,15.46,333.082,14.308,502.401-3.425
						c29.177-3.057,51.022-29.106,50.818-60.594l-0.219-33.82c-0.202-31.245-22.185-56.985-51.133-59.873
						c-92.508-9.236-180.526-13.582-265.287-13.032C1750.47,440.622,1671.3,445.762,1594.073,455.517z"/>
				</g>
				<g>
					<path style="fill:#91B3FA;" d="M1656.314,935.974l-0.504-77.795c-0.17-26.156,20.972-47.574,47.128-47.743l273.23-1.771
						c26.156-0.17,47.574,20.972,47.743,47.128l0.505,77.795c0.169,26.156-20.972,47.573-47.128,47.743l-273.23,1.772
						C1677.901,983.272,1656.483,962.13,1656.314,935.974z M1702.962,814.231c-24.064,0.156-43.514,19.86-43.358,43.924
						l0.504,77.795c0.156,24.064,19.86,43.514,43.924,43.358l273.23-1.771c24.064-0.156,43.514-19.86,43.358-43.924l-0.504-77.794
						c-0.156-24.064-19.859-43.514-43.924-43.358L1702.962,814.231z"/>
				</g>
				<g>
					
						<linearGradient id="SVGID_00000036221222004430617330000010839237817260853636_" gradientUnits="userSpaceOnUse" x1="-1323.3694" y1="687.907" x2="-647.8835" y2="1351.059" gradientTransform="matrix(-1 0.0065 0.0065 1 907.8873 -114.3354)">
						<stop  offset="0" style="stop-color:#4042E2"/>
						<stop  offset="1" style="stop-color:#4F52FF"/>
					</linearGradient>
					<path style="fill:url(#SVGID_00000036221222004430617330000010839237817260853636_);" d="M1950.557,856.268
						c0.493-0.003,0.985-0.045,1.478-0.162c0.492-0.079,0.947-0.234,1.402-0.426c0.454-0.194,0.907-0.425,1.323-0.731
						c0.416-0.267,0.793-0.574,1.132-0.956c1.396-1.412,2.217-3.391,2.204-5.364c-0.013-2.012-0.859-3.941-2.273-5.374
						c-2.825-2.791-7.912-2.758-10.74,0.07c-0.339,0.38-0.64,0.762-0.941,1.181c-0.262,0.42-0.488,0.839-0.674,1.296
						c-0.188,0.494-0.337,0.951-0.409,1.444c-0.11,0.494-0.144,0.989-0.141,1.481c0.003,0.493,0.044,0.985,0.16,1.478
						c0.079,0.495,0.234,0.947,0.428,1.402c0.192,0.492,0.423,0.909,0.691,1.324c0.306,0.415,0.613,0.793,0.956,1.131
						c0.345,0.378,0.764,0.679,1.183,0.941c0.421,0.301,0.839,0.526,1.296,0.714c0.455,0.186,0.95,0.335,1.444,0.407
						C1949.532,856.236,1950.063,856.271,1950.557,856.268z"/>
					
						<linearGradient id="SVGID_00000073720887373047455960000018073274019929990321_" gradientUnits="userSpaceOnUse" x1="-1465.3414" y1="406.1653" x2="-752.2318" y2="1106.2539" gradientTransform="matrix(-0.9981 -0.0609 -0.0609 0.9981 786.9056 23.1163)">
						<stop  offset="0" style="stop-color:#4042E2"/>
						<stop  offset="1" style="stop-color:#4F52FF"/>
					</linearGradient>
					<path style="fill:url(#SVGID_00000073720887373047455960000018073274019929990321_);" d="M1771.364,857.43L1771.364,857.43
						c-4.212,0.027-7.651-3.366-7.678-7.541l0,0c-0.027-4.174,3.368-7.612,7.579-7.639l0,0c4.175-0.027,7.573,3.366,7.6,7.541
						C1778.892,853.966,1775.538,857.403,1771.364,857.43z M1807.187,857.198L1807.187,857.198c-4.212,0.028-7.612-3.366-7.639-7.54
						l0,0c-0.027-4.175,3.329-7.611,7.54-7.639l0,0c4.175-0.027,7.612,3.366,7.639,7.541
						C1814.754,853.734,1811.361,857.171,1807.187,857.198z M1843.01,856.966L1843.01,856.966c-4.175,0.027-7.612-3.366-7.639-7.541
						l0,0c-0.027-4.175,3.366-7.612,7.541-7.639l0,0c4.212-0.028,7.612,3.365,7.639,7.54
						C1850.577,853.502,1847.221,856.938,1843.01,856.966z M1878.872,856.733L1878.872,856.733c-4.212,0.027-7.612-3.366-7.639-7.54
						l0,0c-0.027-4.175,3.329-7.612,7.541-7.639l0,0c4.175-0.027,7.612,3.366,7.639,7.54
						C1886.439,853.269,1883.047,856.706,1878.872,856.733z M1914.695,856.501L1914.695,856.501
						c-4.175,0.027-7.612-3.366-7.639-7.541l0,0c-0.027-4.175,3.366-7.612,7.54-7.639l0,0c4.212-0.027,7.612,3.366,7.639,7.54
						C1922.263,853.037,1918.907,856.473,1914.695,856.501z"/>
					
						<linearGradient id="SVGID_00000128475573272879520580000009450846805511803809_" gradientUnits="userSpaceOnUse" x1="-1217.8363" y1="580.397" x2="-542.3414" y2="1243.5577" gradientTransform="matrix(-1 0.0065 0.0065 1 907.8873 -114.3354)">
						<stop  offset="0" style="stop-color:#4042E2"/>
						<stop  offset="1" style="stop-color:#4F52FF"/>
					</linearGradient>
					<path style="fill:url(#SVGID_00000128475573272879520580000009450846805511803809_);" d="M1735.501,857.663
						c2.012-0.013,3.942-0.822,5.337-2.275c0.378-0.343,0.679-0.725,0.942-1.143c0.262-0.419,0.526-0.839,0.712-1.294
						c0.188-0.496,0.335-0.951,0.407-1.446c0.111-0.493,0.145-0.987,0.142-1.48c-0.013-2.012-0.823-3.942-2.273-5.337
						c-0.344-0.378-0.726-0.679-1.144-0.941c-0.421-0.301-0.839-0.526-1.333-0.712c-0.457-0.186-0.913-0.335-1.407-0.408
						c-2.47-0.479-5.083,0.337-6.855,2.131c-1.395,1.414-2.179,3.353-2.166,5.365c0.003,0.493,0.045,0.985,0.162,1.478
						c0.079,0.494,0.234,0.947,0.428,1.441c0.192,0.453,0.423,0.87,0.729,1.285c0.268,0.415,0.574,0.793,0.917,1.132
						c0.382,0.377,0.764,0.679,1.183,0.941c0.419,0.301,0.839,0.526,1.294,0.714c0.496,0.186,0.951,0.335,1.446,0.408
						C1734.515,857.63,1735.008,857.666,1735.501,857.663z"/>
				</g>
			</g>
			<g>
				<g>
					<g>
						
							<linearGradient id="SVGID_00000011738044545499847190000014567654532495132571_" gradientUnits="userSpaceOnUse" x1="95.4831" y1="-2930.9749" x2="107.9493" y2="-3018.2385" gradientTransform="matrix(0.1783 0.984 -0.984 0.1783 -799.8189 1469.8462)">
							<stop  offset="0" style="stop-color:#09005D"/>
							<stop  offset="1" style="stop-color:#1A0F91"/>
						</linearGradient>
						<path style="fill:url(#SVGID_00000011738044545499847190000014567654532495132571_);" d="M2168.436,860.506l-31.863,5.773
							c-6.954,1.26-11.492,8.018-10.026,14.932l67.78,324.311c1.405,6.63,7.827,10.941,14.495,9.733l16.625-3.012L2168.436,860.506z
							"/>
						
							<linearGradient id="SVGID_00000065034020897477862120000016275331408079785894_" gradientUnits="userSpaceOnUse" x1="-70.3479" y1="-3069.2019" x2="361.9928" y2="-3069.2019" gradientTransform="matrix(0.1783 0.984 -0.984 0.1783 -799.8189 1469.8462)">
							<stop  offset="0" style="stop-color:#09005D"/>
							<stop  offset="1" style="stop-color:#1A0F91"/>
						</linearGradient>
						<path style="fill:url(#SVGID_00000065034020897477862120000016275331408079785894_);" d="M2295.268,1276.915l-33.588,6.086
							c-13.548,2.454-26.571-6.377-29.303-19.871l-78.24-400.033l93.67-16.971c7.597-1.376,14.836,3.773,16.028,11.401l51.902,390.5
							C2317.913,1261.621,2308.816,1274.46,2295.268,1276.915z"/>
						
							<linearGradient id="SVGID_00000075127545355967021810000013131431061590025384_" gradientUnits="userSpaceOnUse" x1="153.3198" y1="-3147.3662" x2="129.691" y2="-3008.969" gradientTransform="matrix(0.1783 0.984 -0.984 0.1783 -799.8189 1469.8462)">
							<stop  offset="0" style="stop-color:#4042E2"/>
							<stop  offset="1" style="stop-color:#4F52FF"/>
						</linearGradient>
						<path style="fill:url(#SVGID_00000075127545355967021810000013131431061590025384_);" d="M2279.873,1142.228l-24.367-171.566
							c-2.146-11.848-13.491-19.713-25.34-17.566c-11.848,2.146-19.712,13.492-17.566,25.34l24.367,171.566
							c2.147,11.848,13.492,19.713,25.34,17.566C2274.156,1165.422,2282.02,1154.076,2279.873,1142.228z"/>
						<polygon style="fill:#91B3FA;" points="2235.118,952.2 2225.216,953.994 2257.357,1168.465 2267.258,1166.671 						"/>
					</g>
					<g>
						
							<linearGradient id="SVGID_00000155127703886872077250000005235182271236204198_" gradientUnits="userSpaceOnUse" x1="-155.1529" y1="-3054.0107" x2="23.3508" y2="-3054.0107" gradientTransform="matrix(0.1783 0.984 -0.984 0.1783 -799.8189 1469.8462)">
							<stop  offset="0" style="stop-color:#4042E2"/>
							<stop  offset="1" style="stop-color:#4F52FF"/>
						</linearGradient>
						
							<circle style="fill:url(#SVGID_00000155127703886872077250000005235182271236204198_);" cx="2193.578" cy="860.469" r="89.254"/>
						<path style="fill:#91B3FA;" d="M2260.664,848.315c-6.713-37.051-42.19-61.644-79.241-54.931
							c-37.051,6.713-61.644,42.19-54.931,79.241c6.713,37.051,42.19,61.644,79.24,54.931
							C2242.783,920.842,2267.376,885.365,2260.664,848.315z"/>
					</g>
				</g>
				<g>
					<g>
						
							<linearGradient id="SVGID_00000126289867334447111030000007935034798006084992_" gradientUnits="userSpaceOnUse" x1="-297.306" y1="-1185.39" x2="-64.4019" y2="-1185.39" gradientTransform="matrix(-0.9999 -0.0155 0.0155 -0.9999 2005.1727 91.7626)">
							<stop  offset="0" style="stop-color:#09005D"/>
							<stop  offset="1" style="stop-color:#1A0F91"/>
						</linearGradient>
						<path style="fill:url(#SVGID_00000126289867334447111030000007935034798006084992_);" d="M2050.972,1292.408l0.417-26.792
							c0.168-10.806,6.828-19.527,14.985-19.622l218.365-7.103l-1.162,74.715c-0.094,6.059-3.936,10.871-8.505,10.653
							l-209.731-11.774C2057.189,1312.137,2050.804,1303.214,2050.972,1292.408z"/>
					</g>
					<g>
						
							<linearGradient id="SVGID_00000177474525904548346050000009375935544183131813_" gradientUnits="userSpaceOnUse" x1="-177.8433" y1="-1284.4436" x2="-406.608" y2="-1067.2455" gradientTransform="matrix(-0.9999 -0.0155 0.0155 -0.9999 2005.1727 91.7626)">
							<stop  offset="0" style="stop-color:#4042E2"/>
							<stop  offset="1" style="stop-color:#4F52FF"/>
						</linearGradient>
						<path style="fill:url(#SVGID_00000177474525904548346050000009375935544183131813_);" d="M2267.854,1351.46
							c38.689,0.602,70.54-30.274,71.142-68.963c0.602-38.689-30.274-70.54-68.963-71.142c-38.689-0.602-70.54,30.274-71.142,68.963
							C2198.289,1319.006,2229.164,1350.858,2267.854,1351.46z"/>
						<path style="fill:#91B3FA;" d="M2268.111,1334.918c29.553,0.46,53.883-23.125,54.343-52.678
							c0.459-29.553-23.125-53.884-52.678-54.343c-29.553-0.46-53.884,23.125-54.343,52.678
							C2214.973,1310.128,2238.558,1334.458,2268.111,1334.918z"/>
					</g>
					<g>
						
							<linearGradient id="SVGID_00000011005844632508935270000013427246542928757435_" gradientUnits="userSpaceOnUse" x1="2030.6511" y1="1277.877" x2="2063.8127" y2="1277.877">
							<stop  offset="0" style="stop-color:#09005D"/>
							<stop  offset="1" style="stop-color:#1A0F91"/>
						</linearGradient>
						<path style="fill:url(#SVGID_00000011005844632508935270000013427246542928757435_);" d="M2032.811,1323.689l27.767,0.325
							c1.207,0.014,2.196-0.953,2.21-2.159l1.025-87.58c0.014-1.206-0.952-2.196-2.159-2.21l-27.766-0.325
							c-1.207-0.014-2.196,0.953-2.21,2.159l-1.026,87.58C2030.637,1322.686,2031.604,1323.675,2032.811,1323.689z"/>
						
							<linearGradient id="SVGID_00000053512794950484523220000016527325129082661549_" gradientUnits="userSpaceOnUse" x1="-17.123" y1="-1186.2346" x2="34.5727" y2="-1186.2346" gradientTransform="matrix(-0.9999 -0.0155 0.0155 -0.9999 2005.1727 91.7626)">
							<stop  offset="0" style="stop-color:#09005D"/>
							<stop  offset="1" style="stop-color:#1A0F91"/>
						</linearGradient>
						<path style="fill:url(#SVGID_00000053512794950484523220000016527325129082661549_);" d="M2004.603,1233.262
							c-15.378-2.41-31.592,3.172-42.155,16.094c-15.845,19.382-12.977,47.94,6.405,63.784c9.809,8.019,21.968,11.245,33.64,9.963
							L2004.603,1233.262z"/>
						
							<linearGradient id="SVGID_00000008133019535121959330000016314117031055024289_" gradientUnits="userSpaceOnUse" x1="6.7305" y1="-1226.736" x2="-78.303" y2="-1126.7845" gradientTransform="matrix(-0.9999 -0.0155 0.0155 -0.9999 2005.1727 91.7626)">
							<stop  offset="0" style="stop-color:#CB236D"/>
							<stop  offset="1" style="stop-color:#4C246D"/>
						</linearGradient>
						<path style="fill:url(#SVGID_00000008133019535121959330000016314117031055024289_);" d="M2034.865,1233.933l0.168-14.338
							c0.03-2.586-2.189-4.709-4.957-4.742l-26.585-0.311c-2.768-0.032-5.036,2.038-5.067,4.624l-1.338,114.322
							c-0.031,2.586,2.188,4.709,4.957,4.742l26.585,0.311c2.768,0.032,5.036-2.038,5.067-4.624l0.154-13.138L2034.865,1233.933z"/>
					</g>
				</g>
			</g>
			<g>
				
					<linearGradient id="SVGID_00000147184182461881159390000002598782583323313324_" gradientUnits="userSpaceOnUse" x1="1308.2122" y1="1393.6249" x2="1914.2124" y2="941.625">
					<stop  offset="0" style="stop-color:#FE7062"/>
					<stop  offset="1" style="stop-color:#FF928E"/>
				</linearGradient>
				<path style="fill:url(#SVGID_00000147184182461881159390000002598782583323313324_);" d="M2026.184,1345.914V905.44
					c0-32.988-33.469-59.83-75.113-60.19c-124.983-1.078-382.754-1.132-593.668,12.947c-28.781,1.921-51.168,20.607-52.211,43.47
					l-19.713,432.138c-1.464,32.108,30.583,58.933,71.137,59.543l596.973,8.986
					C1993.458,1402.934,2026.184,1377.499,2026.184,1345.914z"/>
				<path style="opacity:0.73;fill:#FFFFFF;" d="M1953.795,932.606c0.532,21.365-0.27,55.263-0.925,77.164
					c-0.341,11.394-12.97,20.077-27.26,18.75l-102.857-9.55c-13.703-1.272-23.356-11.275-21.311-22.083l12.625-66.715
					c1.792-9.471,12.063-16.479,24.154-16.479h91.154C1942.658,913.694,1953.533,922.087,1953.795,932.606z"/>
				<path style="opacity:0.37;fill:#FFFFFF;" d="M1684.996,1059.04l-85.802,7.332c-12.006,1.027-22.251-6.816-21.366-16.357
					l18.757-202.173c35.968-0.904,71.445-1.562,105.678-2.025v197.988C1702.264,1051.631,1694.819,1058.2,1684.996,1059.04z"/>
				<path style="fill:#FFFFFF;" d="M1649.829,1023.999c-0.264,3.636-4.068,6.44-8.608,6.44c-0.168,0-0.337-0.004-0.506-0.013
					c-4.759-0.218-8.395-3.449-8.114-7.219l12.938-176.449c5.801-0.114,11.555-0.216,17.309-0.317L1649.829,1023.999z"/>
				<g>
					
						<linearGradient id="SVGID_00000167382669223624751710000010897473669925087661_" gradientUnits="userSpaceOnUse" x1="-1065.5223" y1="926.2791" x2="-1211.0408" y2="1137.7351" gradientTransform="matrix(-1 0 0 1 815.4399 0)">
						<stop  offset="0" style="stop-color:#09005D"/>
						<stop  offset="1" style="stop-color:#1A0F91"/>
					</linearGradient>
					<path style="fill:url(#SVGID_00000167382669223624751710000010897473669925087661_);" d="M1906.227,996.293
						c1.506,0,2.776-0.926,2.871-2.136l4.45-55.577c0.101-1.255-1.101-2.337-2.691-2.417c-1.669-0.102-2.95,0.877-3.051,2.132
						l-4.45,55.577c-0.101,1.255,1.101,2.337,2.691,2.417C1906.109,996.293,1906.171,996.293,1906.227,996.293z"/>
					
						<linearGradient id="SVGID_00000183933262738564344600000017543407869284472980_" gradientUnits="userSpaceOnUse" x1="-1058.0188" y1="929.6914" x2="-1204.2903" y2="1142.2418" gradientTransform="matrix(-1 0 0 1 815.4399 0)">
						<stop  offset="0" style="stop-color:#09005D"/>
						<stop  offset="1" style="stop-color:#1A0F91"/>
					</linearGradient>
					<path style="fill:url(#SVGID_00000183933262738564344600000017543407869284472980_);" d="M1897.069,996.293
						c1.545,0,2.826-0.97,2.877-2.203l2.332-56.641c0.051-1.259-1.197-2.314-2.781-2.354c-1.832-0.071-2.916,0.948-2.972,2.203
						l-2.332,56.641c-0.051,1.259,1.197,2.314,2.781,2.354C1896.973,996.293,1897.041,996.293,1897.069,996.293z"/>
					
						<linearGradient id="SVGID_00000153675734158850542410000010609572745657424020_" gradientUnits="userSpaceOnUse" x1="-1049.3096" y1="934.1407" x2="-1195.212" y2="1146.1549" gradientTransform="matrix(-1 0 0 1 815.4399 0)">
						<stop  offset="0" style="stop-color:#09005D"/>
						<stop  offset="1" style="stop-color:#1A0F91"/>
					</linearGradient>
					<path style="fill:url(#SVGID_00000153675734158850542410000010609572745657424020_);" d="M1884.651,996.289
						c-1.59-0.058-2.815-1.126-2.736-2.381c1.14-19.027,3.315-55.319,3.349-56.556c0.011-1.246,1.298-2.257,2.877-2.257
						c1.59,0,2.877,1.019,2.877,2.279c0,0.939-2.798,47.436-3.36,56.747c-0.073,1.224-1.343,2.172-2.871,2.172
						C1884.741,996.293,1884.696,996.293,1884.651,996.289z M1885.207,937.374h0.056H1885.207z"/>
					
						<linearGradient id="SVGID_00000025424937815828176780000011741269058237375882_" gradientUnits="userSpaceOnUse" x1="-1034.0483" y1="941.4108" x2="-1181.5231" y2="1155.7097" gradientTransform="matrix(-1 0 0 1 815.4399 0)">
						<stop  offset="0" style="stop-color:#09005D"/>
						<stop  offset="1" style="stop-color:#1A0F91"/>
					</linearGradient>
					<path style="fill:url(#SVGID_00000025424937815828176780000011741269058237375882_);" d="M1865.609,998.572
						c3.085,0,5.635-1.936,5.742-4.397c2.433-54.878,2.006-56.115,1.725-56.934c-0.832-2.435-4.023-3.863-7.063-3.2
						c-2.815,0.61-4.574,2.773-4.192,5.003c0.185,3.298-1.101,35.228-1.967,54.811c-0.112,2.515,2.371,4.629,5.546,4.713
						C1865.468,998.572,1865.541,998.572,1865.609,998.572z"/>
					
						<linearGradient id="SVGID_00000015350800730343446940000010721823329950251185_" gradientUnits="userSpaceOnUse" x1="-1024.1189" y1="946.49" x2="-1171.1661" y2="1160.1676" gradientTransform="matrix(-1 0 0 1 815.4399 0)">
						<stop  offset="0" style="stop-color:#09005D"/>
						<stop  offset="1" style="stop-color:#1A0F91"/>
					</linearGradient>
					<path style="fill:url(#SVGID_00000015350800730343446940000010721823329950251185_);" d="M1853.141,996.293
						c1.59,0,2.877-1.019,2.877-2.279v-55.577c0-1.259-1.287-2.279-2.877-2.279c-1.59,0-2.877,1.019-2.877,2.279v55.577
						C1850.264,995.274,1851.55,996.293,1853.141,996.293z"/>
					
						<linearGradient id="SVGID_00000159436656298333180290000018236201607348209329_" gradientUnits="userSpaceOnUse" x1="-1017.9968" y1="949.7234" x2="-1163.9203" y2="1161.7682" gradientTransform="matrix(-1 0 0 1 815.4399 0)">
						<stop  offset="0" style="stop-color:#09005D"/>
						<stop  offset="1" style="stop-color:#1A0F91"/>
					</linearGradient>
					<path style="fill:url(#SVGID_00000159436656298333180290000018236201607348209329_);" d="M1843.071,996.293
						c1.562,0,2.843-0.988,2.877-2.226c0.551-19.312,1.837-50.854,2.989-54.646c0.506-0.717,0.5-1.625-0.107-2.363
						c-0.871-1.059-2.652-1.344-3.984-0.654c-1.568,0.814-3.057,1.585-4.653,57.557c-0.034,1.26,1.225,2.301,2.809,2.332H1843.071z"
						/>
					
						<linearGradient id="SVGID_00000097462864228026061910000002134784254505590442_" gradientUnits="userSpaceOnUse" x1="-1075.9044" y1="920.7151" x2="-1222.729" y2="1134.0692" gradientTransform="matrix(-1 0 0 1 815.4399 0)">
						<stop  offset="0" style="stop-color:#09005D"/>
						<stop  offset="1" style="stop-color:#1A0F91"/>
					</linearGradient>
					<path style="fill:url(#SVGID_00000097462864228026061910000002134784254505590442_);" d="M1921.707,1001.353
						c3.04,0,5.58-1.887,5.743-4.322l3.838-58.358c0.163-2.515-2.276-4.656-5.45-4.789c-3.012-0.169-5.877,1.803-6.046,4.317
						l-3.838,58.358c-0.163,2.515,2.276,4.656,5.45,4.789C1921.505,1001.353,1921.606,1001.353,1921.707,1001.353z"/>
				</g>
			</g>
			
				<linearGradient id="SVGID_00000042732362237042841330000017184507203969501343_" gradientUnits="userSpaceOnUse" x1="-239.2106" y1="968.1378" x2="-377.6233" y2="1149.939" gradientTransform="matrix(-0.9824 -0.187 -0.187 0.9824 1213.2982 107.0465)">
				<stop  offset="0" style="stop-color:#4042E2"/>
				<stop  offset="1" style="stop-color:#4F52FF"/>
			</linearGradient>
			<path style="fill:url(#SVGID_00000042732362237042841330000017184507203969501343_);" d="M1351.631,1112.152l-81.695-5.317
				c-6.071-0.395-11.276,4.289-11.522,10.368l-5.106,126.654c-0.239,5.914,4.316,10.923,10.225,11.247l81.332,4.46
				c5.81,0.319,10.833-4.012,11.373-9.806l0.427-4.579c0.526-5.637-3.381-10.728-8.962-11.678l-49.805-8.484
				c-5.527-0.942-9.421-5.947-8.974-11.536l5.641-70.58c0.456-5.705,5.273-10.069,10.995-9.963l45.166,0.842
				c5.274,0.098,9.852-3.619,10.838-8.801l0,0C1362.78,1118.588,1358.124,1112.574,1351.631,1112.152z"/>
			<path style="fill:#91B3FA;" d="M1958.917,1183.517l81.766,4.098c6.077,0.305,10.709,5.555,10.255,11.622l-9.469,126.403
				c-0.442,5.902-5.542,10.355-11.449,9.998l-81.306-4.907c-5.808-0.351-10.301-5.229-10.172-11.047l0.102-4.598
				c0.125-5.661,4.59-10.269,10.244-10.572l50.449-2.709c5.599-0.301,10.042-4.826,10.24-10.429l2.499-70.761
				c0.202-5.719-4.082-10.608-9.778-11.159l-44.964-4.349c-5.25-0.508-9.371-4.726-9.756-9.987l0,0
				C1947.103,1188.631,1952.418,1183.191,1958.917,1183.517z"/>
		</g>
		<g>
			
				<linearGradient id="SVGID_00000183228794399949639870000008264166165117725356_" gradientUnits="userSpaceOnUse" x1="-36.7476" y1="1187.0793" x2="26.4261" y2="1187.0793" gradientTransform="matrix(1 0 0 1 395.7825 0)">
				<stop  offset="0" style="stop-color:#FF928E"/>
				<stop  offset="1" style="stop-color:#FEB3B1"/>
			</linearGradient>
			<path style="fill:url(#SVGID_00000183228794399949639870000008264166165117725356_);" d="M381.773,1154.521
				c-6.481,6.917-16.023,12.895-22.738,16.622c10.028,12.395,23.597,24.809,41.56,36.958l5.141,11.537l16.472-19.742
				C422.209,1199.896,392.651,1185.187,381.773,1154.521z"/>
			
				<linearGradient id="SVGID_00000102522158550659195490000007630075773244438155_" gradientUnits="userSpaceOnUse" x1="26.7729" y1="1512.0951" x2="74.1434" y2="1512.0951" gradientTransform="matrix(1 0 0 1 395.7825 0)">
				<stop  offset="0" style="stop-color:#09005D"/>
				<stop  offset="1" style="stop-color:#1A0F91"/>
			</linearGradient>
			<path style="fill:url(#SVGID_00000102522158550659195490000007630075773244438155_);" d="M469.925,1528.962
				c0.006-0.353-0.018-0.71-0.109-1.07c-5.335-21.152-31.816-34.327-31.816-34.327l-10.493,0.822
				c-6.033,18.643-5.258,30.078-4.289,35.17c0.027,0.143,0.07,0.279,0.108,0.417
				C431.982,1530.748,449.799,1531.253,469.925,1528.962z"/>
			
				<linearGradient id="SVGID_00000176762290485467826670000006548163862306518411_" gradientUnits="userSpaceOnUse" x1="145.3628" y1="1456.2112" x2="-26.9733" y2="1591.5299" gradientTransform="matrix(1 0 0 1 395.7825 0)">
				<stop  offset="0" style="stop-color:#4042E2"/>
				<stop  offset="1" style="stop-color:#4F52FF"/>
			</linearGradient>
			<path style="fill:url(#SVGID_00000176762290485467826670000006548163862306518411_);" d="M423.326,1529.974
				c0.467,1.701,1.723,3.025,3.33,3.363c12.313,2.59,31.884,0.505,40.101-0.569c1.813-0.237,3.138-1.913,3.168-3.806
				C449.799,1531.253,431.982,1530.748,423.326,1529.974z"/>
			
				<linearGradient id="SVGID_00000055708614346970433640000012927338867787813017_" gradientUnits="userSpaceOnUse" x1="39.9461" y1="1458.1658" x2="30.8974" y2="1537.1361" gradientTransform="matrix(1 0 0 1 395.7825 0)">
				<stop  offset="0" style="stop-color:#FF928E"/>
				<stop  offset="1" style="stop-color:#FEB3B1"/>
			</linearGradient>
			<path style="fill:url(#SVGID_00000055708614346970433640000012927338867787813017_);" d="M423.288,1478.758l4.444,21.395
				c0.326,1.567,1.53,2.742,2.989,2.879c1.786,0.168,4.328,0.266,6.885-0.11c2.293-0.337,3.889-2.667,3.483-5.167L438,1478.758
				H423.288z"/>
			
				<linearGradient id="SVGID_00000042716582906794391180000010451193654445933490_" gradientUnits="userSpaceOnUse" x1="175.9765" y1="1495.2004" x2="3.6413" y2="1630.5184" gradientTransform="matrix(1 0 0 1 395.7825 0)">
				<stop  offset="0" style="stop-color:#4042E2"/>
				<stop  offset="1" style="stop-color:#4F52FF"/>
			</linearGradient>
			<path style="fill:url(#SVGID_00000042716582906794391180000010451193654445933490_);" d="M515.37,1529.76
				c-11.589-0.325-17.583-1.689-20.682-2.956c-0.007,1.152-0.001,2.325,0.036,3.54c0.04,1.297,1.001,2.334,2.184,2.327l63.631-0.411
				c2.031-0.013,3.218-2.368,2.337-4.23C554.534,1528.719,533.285,1530.261,515.37,1529.76z"/>
			
				<linearGradient id="SVGID_00000129910931914377433020000000357968471751626894_" gradientUnits="userSpaceOnUse" x1="98.9056" y1="1513.3551" x2="167.0946" y2="1513.3551" gradientTransform="matrix(1 0 0 1 395.7825 0)">
				<stop  offset="0" style="stop-color:#09005D"/>
				<stop  offset="1" style="stop-color:#1A0F91"/>
			</linearGradient>
			<path style="fill:url(#SVGID_00000129910931914377433020000000357968471751626894_);" d="M562.877,1528.03
				c-0.077-0.162-0.143-0.327-0.252-0.48c-5.619-7.852-19.932-23.488-48.214-30.269l-13.568-0.429c0,0-6.041,10.501-6.155,29.951
				c3.099,1.267,9.093,2.631,20.682,2.956C533.285,1530.261,554.534,1528.719,562.877,1528.03z"/>
			
				<linearGradient id="SVGID_00000013882885786185185080000001329707940563758472_" gradientUnits="userSpaceOnUse" x1="113.6535" y1="1466.6116" x2="104.605" y2="1545.5811" gradientTransform="matrix(1 0 0 1 395.7825 0)">
				<stop  offset="0" style="stop-color:#FF928E"/>
				<stop  offset="1" style="stop-color:#FEB3B1"/>
			</linearGradient>
			<path style="fill:url(#SVGID_00000013882885786185185080000001329707940563758472_);" d="M498.328,1476.29
				c0.15,1.011,2.01,16.382,2.73,22.342c0.171,1.416,1.197,2.512,2.49,2.666c2.31,0.276,6.049,0.527,9.319-0.143
				c1.764-0.362,3.042-2.057,3.042-4.028V1473L498.328,1476.29z"/>
			
				<linearGradient id="SVGID_00000183935639679545364810000001407716868067368086_" gradientUnits="userSpaceOnUse" x1="404.0525" y1="1414.0437" x2="676.0531" y2="1086.0425">
				<stop  offset="0" style="stop-color:#4042E2"/>
				<stop  offset="1" style="stop-color:#4F52FF"/>
			</linearGradient>
			<path style="fill:url(#SVGID_00000183935639679545364810000001407716868067368086_);" d="M487.443,1195.783
				c0,0,32.724,124.364,32.132,280.863c-0.011,2.853-2.014,5.315-4.806,5.904c-4.114,0.867-10.163,1.895-15.17,1.755
				c-2.673-0.075-4.907-2.057-5.357-4.693c-4.588-26.908-30.92-178.496-45.923-203.106c0,0-9.871,135.011-6.716,205.055
				c0.078,1.742-1.197,3.252-2.929,3.453c-2.627,0.304-6.83,0.534-12.179-0.034c-2.03-0.216-3.668-1.751-3.958-3.772
				c-3.268-22.773-22.08-158.328-21.28-255.976c0.045-5.507,14.563-29.45,14.563-29.45H487.443z"/>
			
				<linearGradient id="SVGID_00000062168046571127086210000004805181877764321673_" gradientUnits="userSpaceOnUse" x1="470.943" y1="996.0324" x2="400.4464" y2="1179.0232">
				<stop  offset="0" style="stop-color:#4042E2"/>
				<stop  offset="1" style="stop-color:#4F52FF"/>
			</linearGradient>
			<path style="fill:url(#SVGID_00000062168046571127086210000004805181877764321673_);" d="M532.954,1045.272
				c-5.311-6.657-9.964-13.793-13.856-21.146c-5.436-10.27-0.437,6.648-1.922-4.949c-40.706-29.374-102-14.506-125.71-11.52
				c-7.774,0.979-14.884,4.812-20.007,10.741c-20.317,23.512-64.899,87.882-12.424,152.745c6.715-3.727,16.257-9.705,22.738-16.622
				c-5.805-16.365-6.281-37.279,5.886-62.924c0.416,2.033,0.93,4.045,1.554,6.026c16.769,53.126,17.664,97.335,17.626,107.524
				c-0.005,1.383,0.826,2.629,2.11,3.144c22.07,8.844,64.554,3.58,78.815,1.455c2.615-0.39,4.374-2.824,4.013-5.443
				c-6.999-50.708,28.922-134.125,38.409-155.018C530.869,1047.781,531.813,1046.428,532.954,1045.272z"/>
			
				<linearGradient id="SVGID_00000111881874618975708000000014773781897321663651_" gradientUnits="userSpaceOnUse" x1="442.7892" y1="929.2025" x2="447.7892" y2="1033.2023">
				<stop  offset="0" style="stop-color:#FF928E"/>
				<stop  offset="1" style="stop-color:#FEB3B1"/>
			</linearGradient>
			<path style="fill:url(#SVGID_00000111881874618975708000000014773781897321663651_);" d="M429.612,964.959l-4.254,43.457
				c0,0,24.447,7.363,42.228-5.182l-12.5-39.497L429.612,964.959z"/>
			<g>
				
					<linearGradient id="SVGID_00000009587924899604603880000012219318188342978214_" gradientUnits="userSpaceOnUse" x1="604.9948" y1="855.9593" x2="552.9948" y2="886.9592">
					<stop  offset="0" style="stop-color:#FF928E"/>
					<stop  offset="1" style="stop-color:#FEB3B1"/>
				</linearGradient>
				<path style="fill:url(#SVGID_00000009587924899604603880000012219318188342978214_);" d="M457.979,915.428
					c0.589,0.554,24.832,48.163,24.832,48.163l-27.478,13.265l-29.682-41.71C425.651,935.146,448.129,906.155,457.979,915.428z"/>
				
					<linearGradient id="SVGID_00000059991597975320752690000012355606652243752639_" gradientUnits="userSpaceOnUse" x1="-1592.9559" y1="-1069.088" x2="-1519.7384" y2="-1069.088" gradientTransform="matrix(0.6854 -0.7281 0.7281 0.6854 2302.3018 544.7815)">
					<stop  offset="0" style="stop-color:#09005D"/>
					<stop  offset="1" style="stop-color:#1A0F91"/>
				</linearGradient>
				<path style="fill:url(#SVGID_00000059991597975320752690000012355606652243752639_);" d="M437.809,936.301
					c-0.49,1.268-0.37,2.684,0.33,3.85l13.705,22.846c0.208,0.347,0.456,0.66,0.752,0.935c1.631,1.519,7.213,5.935,11.529-0.078
					c3.678-5.125,7.129-9.785,10.827-11.706c2.159-1.122,4.817-0.226,5.913,1.947c2.258,4.475,6.632,13.598,9.379,22.248
					c0.688,2.168-0.431,4.496-2.539,5.35c-5.564,2.254-16.561,6.331-26.319,7.678c-1.603,0.221-3.19-0.455-4.144-1.762
					c-4.198-5.751-16.031-21.825-20.07-25.848c-3.752-3.738-10.677-2.328-13.797-1.432c-1.185,0.341-2.446,0.177-3.501-0.46
					c-3.166-1.907-8.691-6.655-3.637-14.695c1.257-1.999,0.616-4.662-1.357-5.959c-3.534-2.325-7.37-6.69-3.716-13.757
					c3.699-7.155,10.305-7.797,14.804-7.247c1.991,0.243,4.012-0.801,4.776-2.655c0.339-0.825,1.011-1.528,2.262-1.782
					c2.358-0.479,3.906-2.635,3.443-4.996c-0.793-4.049-0.196-9.309,6.268-12.863c11.856-6.519,22.241,4.103,24.882,13.069
					c2.641,8.966-10.615,15.303-18.954,16.36C442.518,926.122,439.16,932.807,437.809,936.301z"/>
				
					<linearGradient id="SVGID_00000057117339926285140800000004168311076766741937_" gradientUnits="userSpaceOnUse" x1="-1635.917" y1="-1024.3457" x2="-1586.7534" y2="-1074.7861" gradientTransform="matrix(0.6854 -0.7281 0.7281 0.6854 2302.3018 544.7815)">
					<stop  offset="0" style="stop-color:#FF928E"/>
					<stop  offset="1" style="stop-color:#FEB3B1"/>
				</linearGradient>
				<path style="fill:url(#SVGID_00000057117339926285140800000004168311076766741937_);" d="M442.317,970.15
					c0,0-5.272-15.426-12.021-14.86c-6.748,0.566-12.06,7.289-3.696,14.847C437.004,979.538,442.317,970.15,442.317,970.15z"/>
			</g>
			
				<linearGradient id="SVGID_00000026852041474378940300000010148417009385900965_" gradientUnits="userSpaceOnUse" x1="311.6723" y1="1104.7555" x2="91.6726" y2="1240.7554">
				<stop  offset="0" style="stop-color:#4042E2"/>
				<stop  offset="1" style="stop-color:#4F52FF"/>
			</linearGradient>
			<path style="fill:url(#SVGID_00000026852041474378940300000010148417009385900965_);" d="M385.433,1087.623
				c-8.895-24.344-5.668-53.739-5.634-54.033l2.451,0.28c-0.032,0.289-3.191,29.12,5.502,52.906L385.433,1087.623z"/>
			
				<linearGradient id="SVGID_00000052067494971792658580000008199949356477255296_" gradientUnits="userSpaceOnUse" x1="58.86" y1="1226.0803" x2="34.593" y2="1269.2675" gradientTransform="matrix(1 0 0 1 395.7825 0)">
				<stop  offset="0" style="stop-color:#09005D"/>
				<stop  offset="1" style="stop-color:#1A0F91"/>
			</linearGradient>
			<path style="fill:url(#SVGID_00000052067494971792658580000008199949356477255296_);" d="M447.116,1273.336
				c-0.548,0-1.05-0.368-1.193-0.924c-2.714-10.467-23.035-21.969-23.239-22.084c-0.594-0.333-0.806-1.085-0.472-1.68
				c0.333-0.594,1.082-0.807,1.68-0.473c0.874,0.49,21.444,12.134,24.42,23.617c0.171,0.66-0.225,1.333-0.885,1.504
				C447.323,1273.323,447.219,1273.336,447.116,1273.336z"/>
			<g>
				
					<linearGradient id="SVGID_00000037691327149933643350000010325391697559977396_" gradientUnits="userSpaceOnUse" x1="551.0953" y1="1026.9109" x2="480.5988" y2="1209.9014">
					<stop  offset="0" style="stop-color:#4042E2"/>
					<stop  offset="1" style="stop-color:#4F52FF"/>
				</linearGradient>
				<path style="fill:url(#SVGID_00000037691327149933643350000010325391697559977396_);" d="M615.58,1058.939
					c-46.038,6.908-76.045-22.141-98.404-39.762c-29.521-23.265-52.494-11.946-52.494-11.946l31.483,60.085
					c47.015,44.328,95.219,34.484,125.609,20.119C622.241,1075.829,619.14,1066.117,615.58,1058.939z"/>
				
					<linearGradient id="SVGID_00000013150550640107302750000012400282702407719336_" gradientUnits="userSpaceOnUse" x1="-427.4096" y1="649.7034" x2="-442.4097" y2="717.7036" gradientTransform="matrix(1 0 0 1 1163.5511 0)">
					<stop  offset="0" style="stop-color:#FF928E"/>
					<stop  offset="1" style="stop-color:#FEB3B1"/>
				</linearGradient>
				<path style="fill:url(#SVGID_00000013150550640107302750000012400282702407719336_);" d="M680.287,1031.473l-15.267,8.216
					c-18.31,11.148-34.694,17.039-49.439,19.251c3.56,7.178,6.661,16.89,6.193,28.495c19.345-9.144,31.474-20.119,31.474-20.119
					C687.833,1046.692,680.287,1031.473,680.287,1031.473z"/>
			</g>
			
				<linearGradient id="SVGID_00000039123934437308414770000010390303163984105602_" gradientUnits="userSpaceOnUse" x1="-383.1152" y1="659.4744" x2="-398.1152" y2="727.4742" gradientTransform="matrix(1 0 0 1 1163.5511 0)">
				<stop  offset="0" style="stop-color:#FF928E"/>
				<stop  offset="1" style="stop-color:#FEB3B1"/>
			</linearGradient>
			<path style="fill:url(#SVGID_00000039123934437308414770000010390303163984105602_);" d="M725.264,1052.987
				c-0.986-3.277-3.408-5.927-6.583-7.204l-30.984-12.46c0,0-0.468-3.974,6.547-6.674c7.015-2.7,5.374-10.556,5.374-10.556
				s-9.583,4.371-23.612,11.305c-8.023,3.965-12.525,10.966-14.912,16.236l7.976,10.49c19.097,5.737,38.42,6.833,57.908,4.558
				L725.264,1052.987z"/>
		</g>
	</g>
</g>
</svg>
